%TF.GenerationSoftware,KiCad,Pcbnew,9.0.7*%
%TF.CreationDate,2026-01-03T22:54:21+01:00*%
%TF.ProjectId,R3Sender,52335365-6e64-4657-922e-6b696361645f,rev?*%
%TF.SameCoordinates,Original*%
%TF.FileFunction,Copper,L2,Bot*%
%TF.FilePolarity,Positive*%
%FSLAX46Y46*%
G04 Gerber Fmt 4.6, Leading zero omitted, Abs format (unit mm)*
G04 Created by KiCad (PCBNEW 9.0.7) date 2026-01-03 22:54:21*
%MOMM*%
%LPD*%
G01*
G04 APERTURE LIST*
%TA.AperFunction,Conductor*%
%ADD10C,0.200000*%
%TD*%
%TA.AperFunction,ComponentPad*%
%ADD11R,2.000000X2.000000*%
%TD*%
%TA.AperFunction,ComponentPad*%
%ADD12C,2.000000*%
%TD*%
%TA.AperFunction,ComponentPad*%
%ADD13R,1.800000X1.800000*%
%TD*%
%TA.AperFunction,ComponentPad*%
%ADD14C,1.800000*%
%TD*%
%TA.AperFunction,ComponentPad*%
%ADD15R,1.700000X1.700000*%
%TD*%
%TA.AperFunction,ComponentPad*%
%ADD16C,1.700000*%
%TD*%
%TA.AperFunction,ComponentPad*%
%ADD17C,1.600000*%
%TD*%
%TA.AperFunction,ComponentPad*%
%ADD18R,1.600000X1.600000*%
%TD*%
%TA.AperFunction,ComponentPad*%
%ADD19O,1.600000X1.600000*%
%TD*%
G04 APERTURE END LIST*
D10*
%TO.N,+5V*%
X174000000Y-14500000D02*
X179000000Y-21500000D01*
%TO.N,Net-(J4-Pin_4)*%
X68000000Y-106500000D02*
X44000000Y-106500000D01*
%TO.N,+5V*%
X67000000Y-14500000D02*
X174000000Y-14500000D01*
%TO.N,Net-(J4-Pin_4)*%
X76500000Y-98000000D02*
X68000000Y-106500000D01*
%TO.N,+5V*%
X179000000Y-21500000D02*
X179000000Y-32000000D01*
%TO.N,Net-(J4-Pin_8)*%
X44500000Y-123500000D02*
X71000000Y-123500000D01*
%TD*%
D11*
%TO.P,BZ1,1,+*%
%TO.N,Net-(A1-D5)*%
X108000000Y-47540000D03*
D12*
%TO.P,BZ1,2,-*%
%TO.N,GND*%
X98000000Y-47540000D03*
%TD*%
D13*
%TO.P,D3,1,K*%
%TO.N,GND*%
X150000000Y-123000000D03*
D14*
%TO.P,D3,2,A*%
%TO.N,Net-(D3-A)*%
X150000000Y-120460000D03*
%TD*%
D15*
%TO.P,J1,1,Pin_1*%
%TO.N,+5V*%
X99720000Y-22000000D03*
D16*
%TO.P,J1,2,Pin_2*%
%TO.N,Net-(A1-D9)*%
X102260000Y-22000000D03*
%TO.P,J1,3,Pin_3*%
%TO.N,GND*%
X104800000Y-22000000D03*
%TO.P,J1,4,Pin_4*%
%TO.N,unconnected-(J1-Pin_4-Pad4)*%
X107340000Y-22000000D03*
%TO.P,J1,5,Pin_5*%
%TO.N,Net-(A1-D12)*%
X109880000Y-22000000D03*
%TO.P,J1,6,Pin_6*%
%TO.N,Net-(A1-D11)*%
X112420000Y-22000000D03*
%TO.P,J1,7,Pin_7*%
%TO.N,Net-(A1-D13)*%
X114960000Y-22000000D03*
%TO.P,J1,8,Pin_8*%
%TO.N,Net-(A1-D10)*%
X117500000Y-22000000D03*
%TD*%
D15*
%TO.P,J4,1,Pin_1*%
%TO.N,unconnected-(J4-Pin_1-Pad1)*%
X22800000Y-119260000D03*
D16*
%TO.P,J4,2,Pin_2*%
%TO.N,GND*%
X25340000Y-119260000D03*
%TO.P,J4,3,Pin_3*%
%TO.N,unconnected-(J4-Pin_3-Pad3)*%
X27880000Y-119260000D03*
%TO.P,J4,4,Pin_4*%
%TO.N,Net-(J4-Pin_4)*%
X30420000Y-119260000D03*
%TO.P,J4,5,Pin_5*%
%TO.N,unconnected-(J4-Pin_5-Pad5)*%
X32960000Y-119260000D03*
%TO.P,J4,6,Pin_6*%
%TO.N,unconnected-(J4-Pin_6-Pad6)*%
X35500000Y-119260000D03*
%TO.P,J4,7,Pin_7*%
%TO.N,unconnected-(J4-Pin_7-Pad7)*%
X38040000Y-119260000D03*
%TO.P,J4,8,Pin_8*%
%TO.N,Net-(J4-Pin_8)*%
X40580000Y-119260000D03*
%TO.P,J4,9,Pin_9*%
%TO.N,unconnected-(J4-Pin_9-Pad9)*%
X43120000Y-119260000D03*
%TO.P,J4,10,Pin_10*%
%TO.N,unconnected-(J4-Pin_10-Pad10)*%
X45660000Y-119260000D03*
%TO.P,J4,11,Pin_11*%
%TO.N,unconnected-(J4-Pin_11-Pad11)*%
X48200000Y-119260000D03*
%TO.P,J4,12,Pin_12*%
%TO.N,unconnected-(J4-Pin_12-Pad12)*%
X50740000Y-119260000D03*
%TO.P,J4,13,Pin_13*%
%TO.N,unconnected-(J4-Pin_13-Pad13)*%
X53280000Y-119260000D03*
%TO.P,J4,14,Pin_14*%
%TO.N,unconnected-(J4-Pin_14-Pad14)*%
X55820000Y-119260000D03*
%TO.P,J4,15,Pin_15*%
%TO.N,unconnected-(J4-Pin_15-Pad15)*%
X58360000Y-119260000D03*
%TD*%
D17*
%TO.P,R2,1*%
%TO.N,Net-(D2-A)*%
X127860000Y-114000000D03*
%TO.P,R2,2*%
%TO.N,Net-(A1-D7)*%
X127860000Y-106380000D03*
%TD*%
%TO.P,R5,1*%
%TO.N,Net-(J4-Pin_4)*%
X83000000Y-84810000D03*
%TO.P,R5,2*%
%TO.N,Net-(A1-D1{slash}TX)*%
X83000000Y-77190000D03*
%TD*%
D18*
%TO.P,A1,1,NC*%
%TO.N,unconnected-(A1-NC-Pad1)*%
X49500000Y-22000000D03*
D19*
%TO.P,A1,2,IOREF*%
%TO.N,unconnected-(A1-IOREF-Pad2)*%
X52040000Y-22000000D03*
%TO.P,A1,3,~{RESET}*%
%TO.N,unconnected-(A1-~{RESET}-Pad3)*%
X54580000Y-22000000D03*
%TO.P,A1,4,3V3*%
%TO.N,unconnected-(A1-3V3-Pad4)*%
X57120000Y-22000000D03*
%TO.P,A1,5,+5V*%
%TO.N,+5V*%
X59660000Y-22000000D03*
%TO.P,A1,6,GND*%
%TO.N,GND*%
X62200000Y-22000000D03*
%TO.P,A1,7,GND*%
X64740000Y-22000000D03*
%TO.P,A1,8,VIN*%
%TO.N,unconnected-(A1-VIN-Pad8)*%
X67280000Y-22000000D03*
%TO.P,A1,9,A0*%
%TO.N,unconnected-(A1-A0-Pad9)*%
X72360000Y-22000000D03*
%TO.P,A1,10,A1*%
%TO.N,unconnected-(A1-A1-Pad10)*%
X74900000Y-22000000D03*
%TO.P,A1,11,A2*%
%TO.N,unconnected-(A1-A2-Pad11)*%
X77440000Y-22000000D03*
%TO.P,A1,12,A3*%
%TO.N,unconnected-(A1-A3-Pad12)*%
X79980000Y-22000000D03*
%TO.P,A1,13,SDA/A4*%
%TO.N,unconnected-(A1-SDA{slash}A4-Pad13)*%
X82520000Y-22000000D03*
%TO.P,A1,14,SCL/A5*%
%TO.N,unconnected-(A1-SCL{slash}A5-Pad14)*%
X85060000Y-22000000D03*
%TO.P,A1,15,D0/RX*%
%TO.N,unconnected-(A1-D0{slash}RX-Pad15)*%
X85060000Y-70260000D03*
%TO.P,A1,16,D1/TX*%
%TO.N,Net-(A1-D1{slash}TX)*%
X82520000Y-70260000D03*
%TO.P,A1,17,D2*%
%TO.N,Net-(A1-D2)*%
X79980000Y-70260000D03*
%TO.P,A1,18,D3*%
%TO.N,Net-(A1-D3)*%
X77440000Y-70260000D03*
%TO.P,A1,19,D4*%
%TO.N,unconnected-(A1-D4-Pad19)*%
X74900000Y-70260000D03*
%TO.P,A1,20,D5*%
%TO.N,Net-(A1-D5)*%
X72360000Y-70260000D03*
%TO.P,A1,21,D6*%
%TO.N,Net-(A1-D6)*%
X69820000Y-70260000D03*
%TO.P,A1,22,D7*%
%TO.N,Net-(A1-D7)*%
X67280000Y-70260000D03*
%TO.P,A1,23,D8*%
%TO.N,Net-(A1-D8)*%
X63220000Y-70260000D03*
%TO.P,A1,24,D9*%
%TO.N,Net-(A1-D9)*%
X60680000Y-70260000D03*
%TO.P,A1,25,D10*%
%TO.N,Net-(A1-D10)*%
X58140000Y-70260000D03*
%TO.P,A1,26,D11*%
%TO.N,Net-(A1-D11)*%
X55600000Y-70260000D03*
%TO.P,A1,27,D12*%
%TO.N,Net-(A1-D12)*%
X53060000Y-70260000D03*
%TO.P,A1,28,D13*%
%TO.N,Net-(A1-D13)*%
X50520000Y-70260000D03*
%TO.P,A1,29,GND*%
%TO.N,GND*%
X47980000Y-70260000D03*
%TO.P,A1,30,AREF*%
%TO.N,unconnected-(A1-AREF-Pad30)*%
X45440000Y-70260000D03*
%TO.P,A1,31,SDA/A4*%
%TO.N,unconnected-(A1-SDA{slash}A4-Pad31)*%
X42900000Y-70260000D03*
%TO.P,A1,32,SCL/A5*%
%TO.N,unconnected-(A1-SCL{slash}A5-Pad32)*%
X40360000Y-70260000D03*
%TD*%
D13*
%TO.P,D4,1,K*%
%TO.N,GND*%
X94000000Y-119500000D03*
D14*
%TO.P,D4,2,A*%
%TO.N,Net-(D4-A)*%
X91460000Y-119500000D03*
%TD*%
D13*
%TO.P,D2,1,K*%
%TO.N,GND*%
X128000000Y-123000000D03*
D14*
%TO.P,D2,2,A*%
%TO.N,Net-(D2-A)*%
X128000000Y-120460000D03*
%TD*%
D17*
%TO.P,R4,1*%
%TO.N,Net-(D4-A)*%
X85570000Y-119640000D03*
%TO.P,R4,2*%
%TO.N,Net-(J4-Pin_8)*%
X77950000Y-119640000D03*
%TD*%
D15*
%TO.P,J2,1,Pin_1*%
%TO.N,GND*%
X175500000Y-33040000D03*
D16*
%TO.P,J2,2,Pin_2*%
%TO.N,+5V*%
X175500000Y-30500000D03*
%TO.P,J2,3,Pin_3*%
%TO.N,Net-(A1-D3)*%
X175500000Y-27960000D03*
%TD*%
D17*
%TO.P,R6,1*%
%TO.N,Net-(J4-Pin_4)*%
X84500000Y-103500000D03*
%TO.P,R6,2*%
%TO.N,GND*%
X92120000Y-103500000D03*
%TD*%
D13*
%TO.P,D1,1,K*%
%TO.N,GND*%
X113640000Y-123000000D03*
D14*
%TO.P,D1,2,A*%
%TO.N,Net-(D1-A)*%
X113640000Y-120460000D03*
%TD*%
D17*
%TO.P,R3,1*%
%TO.N,Net-(D3-A)*%
X149860000Y-114000000D03*
%TO.P,R3,2*%
%TO.N,Net-(A1-D6)*%
X149860000Y-106380000D03*
%TD*%
D15*
%TO.P,J3,1,Pin_1*%
%TO.N,GND*%
X175500000Y-116500000D03*
D16*
%TO.P,J3,2,Pin_2*%
%TO.N,+5V*%
X175500000Y-113960000D03*
%TO.P,J3,3,Pin_3*%
%TO.N,Net-(A1-D2)*%
X175500000Y-111420000D03*
%TD*%
D15*
%TO.P,J5,1,Pin_1*%
%TO.N,+5V*%
X22800000Y-96400000D03*
D16*
%TO.P,J5,2,Pin_2*%
%TO.N,unconnected-(J5-Pin_2-Pad2)*%
X25340000Y-96400000D03*
%TO.P,J5,3,Pin_3*%
%TO.N,unconnected-(J5-Pin_3-Pad3)*%
X27880000Y-96400000D03*
%TO.P,J5,4,Pin_4*%
%TO.N,unconnected-(J5-Pin_4-Pad4)*%
X30420000Y-96400000D03*
%TO.P,J5,5,Pin_5*%
%TO.N,unconnected-(J5-Pin_5-Pad5)*%
X32960000Y-96400000D03*
%TO.P,J5,6,Pin_6*%
%TO.N,unconnected-(J5-Pin_6-Pad6)*%
X35500000Y-96400000D03*
%TO.P,J5,7,Pin_7*%
%TO.N,unconnected-(J5-Pin_7-Pad7)*%
X38040000Y-96400000D03*
%TO.P,J5,8,Pin_8*%
%TO.N,unconnected-(J5-Pin_8-Pad8)*%
X40580000Y-96400000D03*
%TO.P,J5,9,Pin_9*%
%TO.N,unconnected-(J5-Pin_9-Pad9)*%
X43120000Y-96400000D03*
%TO.P,J5,10,Pin_10*%
%TO.N,unconnected-(J5-Pin_10-Pad10)*%
X45660000Y-96400000D03*
%TO.P,J5,11,Pin_11*%
%TO.N,unconnected-(J5-Pin_11-Pad11)*%
X48200000Y-96400000D03*
%TO.P,J5,12,Pin_12*%
%TO.N,unconnected-(J5-Pin_12-Pad12)*%
X50740000Y-96400000D03*
%TO.P,J5,13,Pin_13*%
%TO.N,unconnected-(J5-Pin_13-Pad13)*%
X53280000Y-96400000D03*
%TO.P,J5,14,Pin_14*%
%TO.N,unconnected-(J5-Pin_14-Pad14)*%
X55820000Y-96400000D03*
%TO.P,J5,15,Pin_15*%
%TO.N,unconnected-(J5-Pin_15-Pad15)*%
X58360000Y-96400000D03*
%TD*%
D17*
%TO.P,R1,1*%
%TO.N,Net-(D1-A)*%
X113500000Y-114000000D03*
%TO.P,R1,2*%
%TO.N,Net-(A1-D8)*%
X113500000Y-106380000D03*
%TD*%
D10*
%TO.N,Net-(A1-D2)*%
X79980000Y-70260000D02*
X86240000Y-64000000D01*
X173500000Y-111420000D02*
X175500000Y-111420000D01*
X126080000Y-64000000D02*
X173500000Y-111420000D01*
X86240000Y-64000000D02*
X126080000Y-64000000D01*
%TO.N,Net-(A1-D13)*%
X62119000Y-69803950D02*
X62922950Y-69000000D01*
X117500000Y-15500000D02*
X114960000Y-18040000D01*
X114960000Y-18040000D02*
X114960000Y-22000000D01*
X115000000Y-30500000D02*
X126000000Y-30500000D01*
X130500000Y-15500000D02*
X117500000Y-15500000D01*
X62119000Y-70881000D02*
X62119000Y-69803950D01*
X53760000Y-73500000D02*
X59500000Y-73500000D01*
X69500000Y-69000000D02*
X92500000Y-46000000D01*
X126000000Y-30500000D02*
X134000000Y-22500000D01*
X50520000Y-70260000D02*
X53760000Y-73500000D01*
X134000000Y-22500000D02*
X134000000Y-19000000D01*
X134000000Y-19000000D02*
X130500000Y-15500000D01*
X99500000Y-46000000D02*
X115000000Y-30500000D01*
X62922950Y-69000000D02*
X69500000Y-69000000D01*
X59500000Y-73500000D02*
X62119000Y-70881000D01*
X92500000Y-46000000D02*
X99500000Y-46000000D01*
%TO.N,Net-(A1-D8)*%
X63220000Y-70260000D02*
X63220000Y-87280000D01*
X108690000Y-106190000D02*
X113500000Y-106190000D01*
X106000000Y-108500000D02*
X108500000Y-106000000D01*
X108500000Y-106000000D02*
X108690000Y-106190000D01*
X64000000Y-102500000D02*
X32500000Y-102500000D01*
X67000000Y-99500000D02*
X64000000Y-102500000D01*
X95500000Y-129500000D02*
X106000000Y-119000000D01*
X63220000Y-87280000D02*
X63000000Y-87500000D01*
X20000000Y-125500000D02*
X24000000Y-129500000D01*
X32500000Y-102500000D02*
X20000000Y-115000000D01*
X67000000Y-91500000D02*
X67000000Y-99500000D01*
X106000000Y-119000000D02*
X106000000Y-108500000D01*
X24000000Y-129500000D02*
X95500000Y-129500000D01*
X63000000Y-87500000D02*
X67000000Y-91500000D01*
X20000000Y-115000000D02*
X20000000Y-125500000D01*
%TO.N,Net-(A1-D3)*%
X105000000Y-52500000D02*
X116500000Y-52500000D01*
X97000000Y-60500000D02*
X105000000Y-52500000D01*
X77440000Y-70260000D02*
X87200000Y-60500000D01*
X174460000Y-26920000D02*
X175500000Y-27960000D01*
X142080000Y-26920000D02*
X174460000Y-26920000D01*
X116500000Y-52500000D02*
X142080000Y-26920000D01*
X87200000Y-60500000D02*
X97000000Y-60500000D01*
%TO.N,+5V*%
X177500000Y-111960000D02*
X177500000Y-43000000D01*
X179000000Y-41500000D02*
X179000000Y-32000000D01*
X99720000Y-22000000D02*
X92220000Y-14500000D01*
X179000000Y-32000000D02*
X177500000Y-30500000D01*
X175500000Y-113960000D02*
X177500000Y-111960000D01*
X92220000Y-14500000D02*
X26500000Y-14500000D01*
X177500000Y-43000000D02*
X179000000Y-41500000D01*
X177500000Y-30500000D02*
X175500000Y-30500000D01*
X26500000Y-14500000D02*
X23720000Y-17280000D01*
X23720000Y-86280000D02*
X22800000Y-87200000D01*
X59660000Y-22000000D02*
X67000000Y-14660000D01*
X22800000Y-87200000D02*
X22800000Y-96400000D01*
X23720000Y-17280000D02*
X23720000Y-86280000D01*
X67000000Y-14660000D02*
X67000000Y-14500000D01*
%TO.N,Net-(A1-D5)*%
X93500000Y-57500000D02*
X103460000Y-47540000D01*
X85120000Y-57500000D02*
X93500000Y-57500000D01*
X72360000Y-70260000D02*
X85120000Y-57500000D01*
X103460000Y-47540000D02*
X108000000Y-47540000D01*
%TO.N,Net-(A1-D6)*%
X69820000Y-73820000D02*
X75500000Y-79500000D01*
X125500000Y-79500000D02*
X149860000Y-103860000D01*
X75500000Y-79500000D02*
X125500000Y-79500000D01*
X149860000Y-106380000D02*
X149860000Y-103860000D01*
X69820000Y-70260000D02*
X69820000Y-73820000D01*
%TO.N,Net-(A1-D1{slash}TX)*%
X83000000Y-70740000D02*
X82520000Y-70260000D01*
X82520000Y-70260000D02*
X82520000Y-70220000D01*
X83000000Y-77190000D02*
X83000000Y-70740000D01*
%TO.N,Net-(A1-D9)*%
X102260000Y-24260000D02*
X102260000Y-22000000D01*
X51959000Y-68541000D02*
X95000000Y-25500000D01*
X101500000Y-25500000D02*
X102500000Y-24500000D01*
X102500000Y-24500000D02*
X102260000Y-24260000D01*
X95000000Y-25500000D02*
X101500000Y-25500000D01*
X51959000Y-70716050D02*
X51959000Y-68541000D01*
X53242950Y-72000000D02*
X51959000Y-70716050D01*
X58940000Y-72000000D02*
X53242950Y-72000000D01*
X60680000Y-70260000D02*
X58940000Y-72000000D01*
%TO.N,Net-(A1-D7)*%
X67280000Y-70260000D02*
X67280000Y-74780000D01*
X75500000Y-83000000D02*
X104220000Y-83000000D01*
X104220000Y-83000000D02*
X127860000Y-106640000D01*
X67280000Y-74780000D02*
X75500000Y-83000000D01*
%TO.N,Net-(A1-D12)*%
X109500000Y-22380000D02*
X109880000Y-22000000D01*
X53060000Y-70260000D02*
X60320000Y-63000000D01*
X99500000Y-28500000D02*
X106000000Y-28500000D01*
X60320000Y-63000000D02*
X65000000Y-63000000D01*
X65000000Y-63000000D02*
X99500000Y-28500000D01*
X109500000Y-25000000D02*
X109500000Y-22380000D01*
X106000000Y-28500000D02*
X109500000Y-25000000D01*
%TO.N,GND*%
X134401000Y-18833900D02*
X130666100Y-15099000D01*
X112067100Y-45000000D02*
X134401000Y-22666100D01*
X130666100Y-15099000D02*
X107533240Y-15099000D01*
X175261240Y-29111000D02*
X175976760Y-29111000D01*
X104800000Y-22000000D02*
X104800000Y-22100000D01*
X130548100Y-26519000D02*
X112067100Y-45000000D01*
X111600000Y-45000000D02*
X111900000Y-44700000D01*
X176651000Y-28436760D02*
X176651000Y-27483240D01*
X175976760Y-29111000D02*
X176651000Y-28436760D01*
X101634240Y-23300000D02*
X63500000Y-23300000D01*
X174349000Y-30023240D02*
X175261240Y-29111000D01*
X101109000Y-22476760D02*
X101783240Y-23151000D01*
X174349000Y-31889000D02*
X174349000Y-30023240D01*
X175686760Y-26519000D02*
X130548100Y-26519000D01*
X63500000Y-23300000D02*
X62200000Y-22000000D01*
X107533240Y-15099000D02*
X101109000Y-21523240D01*
X108000000Y-45000000D02*
X112067100Y-45000000D01*
X108000000Y-45000000D02*
X111600000Y-45000000D01*
X101109000Y-21523240D02*
X101109000Y-22476760D01*
X149860000Y-122360000D02*
X150000000Y-122500000D01*
X111701000Y-15099000D02*
X130666100Y-15099000D01*
X176651000Y-27483240D02*
X175686760Y-26519000D01*
X112067100Y-45000000D02*
X111600000Y-45000000D01*
X134401000Y-22666100D02*
X134401000Y-18833900D01*
X101783240Y-23151000D02*
X101634240Y-23300000D01*
X175500000Y-33040000D02*
X174349000Y-31889000D01*
X104800000Y-22000000D02*
X111701000Y-15099000D01*
%TO.N,Net-(A1-D10)*%
X58140000Y-70260000D02*
X61400000Y-67000000D01*
X116000000Y-24500000D02*
X117000000Y-24500000D01*
X117000000Y-24500000D02*
X117500000Y-24000000D01*
X66500000Y-67000000D02*
X90000000Y-43500000D01*
X117500000Y-24000000D02*
X117500000Y-22000000D01*
X90000000Y-43500000D02*
X97000000Y-43500000D01*
X97000000Y-43500000D02*
X116000000Y-24500000D01*
X61400000Y-67000000D02*
X66500000Y-67000000D01*
%TO.N,Net-(A1-D11)*%
X113500000Y-23000000D02*
X113420000Y-23000000D01*
X113420000Y-23000000D02*
X112420000Y-22000000D01*
X113500000Y-24000000D02*
X113500000Y-23000000D01*
X89000000Y-41500000D02*
X96000000Y-41500000D01*
X96000000Y-41500000D02*
X113500000Y-24000000D01*
X65000000Y-65500000D02*
X89000000Y-41500000D01*
X55600000Y-70260000D02*
X60360000Y-65500000D01*
X60360000Y-65500000D02*
X65000000Y-65500000D01*
%TO.N,Net-(D1-A)*%
X113500000Y-120320000D02*
X113640000Y-120460000D01*
X113500000Y-120370000D02*
X113640000Y-120510000D01*
X113500000Y-114000000D02*
X113500000Y-120320000D01*
%TO.N,Net-(D2-A)*%
X127860000Y-114000000D02*
X127860000Y-120320000D01*
X127860000Y-120320000D02*
X128000000Y-120460000D01*
X127860000Y-120820000D02*
X128000000Y-120960000D01*
%TO.N,Net-(D3-A)*%
X150000000Y-113900000D02*
X149860000Y-114040000D01*
X149860000Y-120320000D02*
X150000000Y-120460000D01*
X149860000Y-114000000D02*
X149860000Y-120320000D01*
%TO.N,Net-(J4-Pin_8)*%
X40580000Y-119260000D02*
X40580000Y-122755000D01*
X44450000Y-123450000D02*
X44500000Y-123500000D01*
X74860000Y-119640000D02*
X71000000Y-123500000D01*
X41275000Y-123450000D02*
X44450000Y-123450000D01*
X77950000Y-119640000D02*
X74860000Y-119640000D01*
X40580000Y-122755000D02*
X41275000Y-123450000D01*
%TO.N,Net-(J4-Pin_4)*%
X82175000Y-103500000D02*
X76587500Y-97912500D01*
X84500000Y-103500000D02*
X82175000Y-103500000D01*
X83000000Y-91500000D02*
X76587500Y-97912500D01*
X76587500Y-97912500D02*
X76500000Y-98000000D01*
X83000000Y-84810000D02*
X83000000Y-91500000D01*
X43180000Y-106500000D02*
X44000000Y-106500000D01*
X30420000Y-119260000D02*
X43180000Y-106500000D01*
%TO.N,Net-(D4-A)*%
X85570000Y-119640000D02*
X91320000Y-119640000D01*
X91320000Y-119640000D02*
X91460000Y-119500000D01*
%TD*%
%TA.AperFunction,Conductor*%
%TO.N,GND*%
G36*
X174124130Y-27540185D02*
G01*
X174169885Y-27592989D01*
X174179829Y-27662147D01*
X174179564Y-27663898D01*
X174149500Y-27853713D01*
X174149500Y-28066286D01*
X174182753Y-28276239D01*
X174248444Y-28478414D01*
X174344951Y-28667820D01*
X174469890Y-28839786D01*
X174620213Y-28990109D01*
X174792182Y-29115050D01*
X174800946Y-29119516D01*
X174851742Y-29167491D01*
X174868536Y-29235312D01*
X174845998Y-29301447D01*
X174800946Y-29340484D01*
X174792182Y-29344949D01*
X174620213Y-29469890D01*
X174469890Y-29620213D01*
X174344951Y-29792179D01*
X174248444Y-29981585D01*
X174182753Y-30183760D01*
X174172119Y-30250903D01*
X174149500Y-30393713D01*
X174149500Y-30606287D01*
X174182754Y-30816243D01*
X174196486Y-30858507D01*
X174248444Y-31018414D01*
X174344951Y-31207820D01*
X174469890Y-31379786D01*
X174583818Y-31493714D01*
X174617303Y-31555037D01*
X174612319Y-31624729D01*
X174570447Y-31680662D01*
X174539471Y-31697577D01*
X174407912Y-31746646D01*
X174407906Y-31746649D01*
X174292812Y-31832809D01*
X174292809Y-31832812D01*
X174206649Y-31947906D01*
X174206645Y-31947913D01*
X174156403Y-32082620D01*
X174156401Y-32082627D01*
X174150000Y-32142155D01*
X174150000Y-32790000D01*
X175066988Y-32790000D01*
X175034075Y-32847007D01*
X175000000Y-32974174D01*
X175000000Y-33105826D01*
X175034075Y-33232993D01*
X175066988Y-33290000D01*
X174150000Y-33290000D01*
X174150000Y-33937844D01*
X174156401Y-33997372D01*
X174156403Y-33997379D01*
X174206645Y-34132086D01*
X174206649Y-34132093D01*
X174292809Y-34247187D01*
X174292812Y-34247190D01*
X174407906Y-34333350D01*
X174407913Y-34333354D01*
X174542620Y-34383596D01*
X174542627Y-34383598D01*
X174602155Y-34389999D01*
X174602172Y-34390000D01*
X175250000Y-34390000D01*
X175250000Y-33473012D01*
X175307007Y-33505925D01*
X175434174Y-33540000D01*
X175565826Y-33540000D01*
X175692993Y-33505925D01*
X175750000Y-33473012D01*
X175750000Y-34390000D01*
X176397828Y-34390000D01*
X176397844Y-34389999D01*
X176457372Y-34383598D01*
X176457379Y-34383596D01*
X176592086Y-34333354D01*
X176592093Y-34333350D01*
X176707187Y-34247190D01*
X176707190Y-34247187D01*
X176793350Y-34132093D01*
X176793354Y-34132086D01*
X176843596Y-33997379D01*
X176843598Y-33997372D01*
X176849999Y-33937844D01*
X176850000Y-33937827D01*
X176850000Y-33290000D01*
X175933012Y-33290000D01*
X175965925Y-33232993D01*
X176000000Y-33105826D01*
X176000000Y-32974174D01*
X175965925Y-32847007D01*
X175933012Y-32790000D01*
X176850000Y-32790000D01*
X176850000Y-32142172D01*
X176849999Y-32142155D01*
X176843598Y-32082627D01*
X176843596Y-32082620D01*
X176793354Y-31947913D01*
X176793350Y-31947906D01*
X176707190Y-31832812D01*
X176707187Y-31832809D01*
X176592093Y-31746649D01*
X176592088Y-31746646D01*
X176460528Y-31697577D01*
X176404595Y-31655705D01*
X176380178Y-31590241D01*
X176395030Y-31521968D01*
X176416175Y-31493720D01*
X176530104Y-31379792D01*
X176655051Y-31207816D01*
X176655349Y-31207230D01*
X176675235Y-31168205D01*
X176723209Y-31117409D01*
X176785719Y-31100500D01*
X177199903Y-31100500D01*
X177266942Y-31120185D01*
X177287584Y-31136819D01*
X178363181Y-32212416D01*
X178396666Y-32273739D01*
X178399500Y-32300097D01*
X178399500Y-41199902D01*
X178379815Y-41266941D01*
X178363181Y-41287583D01*
X177019481Y-42631282D01*
X177019479Y-42631285D01*
X176969361Y-42718094D01*
X176969359Y-42718096D01*
X176940425Y-42768209D01*
X176940424Y-42768210D01*
X176940423Y-42768215D01*
X176899499Y-42920943D01*
X176899499Y-42920945D01*
X176899499Y-43089046D01*
X176899500Y-43089059D01*
X176899500Y-110675444D01*
X176879815Y-110742483D01*
X176827011Y-110788238D01*
X176757853Y-110798182D01*
X176694297Y-110769157D01*
X176665016Y-110731740D01*
X176655050Y-110712182D01*
X176530109Y-110540213D01*
X176379786Y-110389890D01*
X176207820Y-110264951D01*
X176018414Y-110168444D01*
X176018413Y-110168443D01*
X176018412Y-110168443D01*
X175816243Y-110102754D01*
X175816241Y-110102753D01*
X175816240Y-110102753D01*
X175654957Y-110077208D01*
X175606287Y-110069500D01*
X175393713Y-110069500D01*
X175345042Y-110077208D01*
X175183760Y-110102753D01*
X174981585Y-110168444D01*
X174792179Y-110264951D01*
X174620213Y-110389890D01*
X174469890Y-110540213D01*
X174344948Y-110712184D01*
X174344947Y-110712185D01*
X174324765Y-110751795D01*
X174276791Y-110802591D01*
X174214281Y-110819500D01*
X173800097Y-110819500D01*
X173733058Y-110799815D01*
X173712416Y-110783181D01*
X126567590Y-63638355D01*
X126567588Y-63638352D01*
X126448716Y-63519480D01*
X126448714Y-63519479D01*
X126361904Y-63469360D01*
X126361904Y-63469359D01*
X126361900Y-63469358D01*
X126311785Y-63440423D01*
X126159057Y-63399499D01*
X126000943Y-63399499D01*
X125993347Y-63399499D01*
X125993331Y-63399500D01*
X86326669Y-63399500D01*
X86326653Y-63399499D01*
X86319057Y-63399499D01*
X86160943Y-63399499D01*
X86053587Y-63428265D01*
X86008210Y-63440424D01*
X86008209Y-63440425D01*
X85958096Y-63469359D01*
X85958095Y-63469360D01*
X85914689Y-63494420D01*
X85871285Y-63519479D01*
X85759478Y-63631286D01*
X80424842Y-68965921D01*
X80363519Y-68999406D01*
X80298848Y-68996173D01*
X80284534Y-68991522D01*
X80109995Y-68963878D01*
X80082352Y-68959500D01*
X79889096Y-68959500D01*
X79822057Y-68939815D01*
X79776302Y-68887011D01*
X79766358Y-68817853D01*
X79795383Y-68754297D01*
X79801415Y-68747819D01*
X83529754Y-65019481D01*
X87412416Y-61136819D01*
X87473739Y-61103334D01*
X87500097Y-61100500D01*
X96913331Y-61100500D01*
X96913347Y-61100501D01*
X96920943Y-61100501D01*
X97079054Y-61100501D01*
X97079057Y-61100501D01*
X97231785Y-61059577D01*
X97281904Y-61030639D01*
X97368716Y-60980520D01*
X97480520Y-60868716D01*
X97480520Y-60868714D01*
X97490728Y-60858507D01*
X97490729Y-60858504D01*
X105212416Y-53136819D01*
X105273739Y-53103334D01*
X105300097Y-53100500D01*
X116413331Y-53100500D01*
X116413347Y-53100501D01*
X116420943Y-53100501D01*
X116579054Y-53100501D01*
X116579057Y-53100501D01*
X116731785Y-53059577D01*
X116781904Y-53030639D01*
X116868716Y-52980520D01*
X116980520Y-52868716D01*
X116980520Y-52868714D01*
X116990728Y-52858507D01*
X116990729Y-52858504D01*
X142292416Y-27556819D01*
X142353739Y-27523334D01*
X142380097Y-27520500D01*
X174057091Y-27520500D01*
X174124130Y-27540185D01*
G37*
%TD.AperFunction*%
%TA.AperFunction,Conductor*%
G36*
X173694198Y-15120185D02*
G01*
X173728062Y-15152426D01*
X178333401Y-21599901D01*
X178376403Y-21660103D01*
X178399351Y-21726097D01*
X178399500Y-21732177D01*
X178399500Y-30250903D01*
X178379815Y-30317942D01*
X178327011Y-30363697D01*
X178257853Y-30373641D01*
X178194297Y-30344616D01*
X178187819Y-30338584D01*
X177987590Y-30138355D01*
X177987588Y-30138352D01*
X177868717Y-30019481D01*
X177868716Y-30019480D01*
X177781904Y-29969360D01*
X177781904Y-29969359D01*
X177781900Y-29969358D01*
X177731785Y-29940423D01*
X177579057Y-29899499D01*
X177420943Y-29899499D01*
X177413347Y-29899499D01*
X177413331Y-29899500D01*
X176785719Y-29899500D01*
X176718680Y-29879815D01*
X176675235Y-29831795D01*
X176655052Y-29792185D01*
X176655051Y-29792184D01*
X176530109Y-29620213D01*
X176379786Y-29469890D01*
X176207820Y-29344951D01*
X176207115Y-29344591D01*
X176199054Y-29340485D01*
X176148259Y-29292512D01*
X176131463Y-29224692D01*
X176153999Y-29158556D01*
X176199054Y-29119515D01*
X176207816Y-29115051D01*
X176284170Y-29059577D01*
X176379786Y-28990109D01*
X176379788Y-28990106D01*
X176379792Y-28990104D01*
X176530104Y-28839792D01*
X176530106Y-28839788D01*
X176530109Y-28839786D01*
X176655048Y-28667820D01*
X176655047Y-28667820D01*
X176655051Y-28667816D01*
X176751557Y-28478412D01*
X176817246Y-28276243D01*
X176850500Y-28066287D01*
X176850500Y-27853713D01*
X176817246Y-27643757D01*
X176751557Y-27441588D01*
X176655051Y-27252184D01*
X176655049Y-27252181D01*
X176655048Y-27252179D01*
X176530109Y-27080213D01*
X176379786Y-26929890D01*
X176207820Y-26804951D01*
X176018414Y-26708444D01*
X176018413Y-26708443D01*
X176018412Y-26708443D01*
X175816243Y-26642754D01*
X175816241Y-26642753D01*
X175816240Y-26642753D01*
X175654957Y-26617208D01*
X175606287Y-26609500D01*
X175393713Y-26609500D01*
X175365006Y-26614046D01*
X175183757Y-26642753D01*
X175141473Y-26656492D01*
X175126260Y-26656926D01*
X175112003Y-26662244D01*
X175092048Y-26657903D01*
X175071632Y-26658486D01*
X175057545Y-26650397D01*
X175043730Y-26647392D01*
X175015476Y-26626241D01*
X174947590Y-26558355D01*
X174947588Y-26558352D01*
X174828717Y-26439481D01*
X174828716Y-26439480D01*
X174741904Y-26389360D01*
X174741904Y-26389359D01*
X174741900Y-26389358D01*
X174691785Y-26360423D01*
X174539057Y-26319499D01*
X174380943Y-26319499D01*
X174373347Y-26319499D01*
X174373331Y-26319500D01*
X142166669Y-26319500D01*
X142166653Y-26319499D01*
X142159057Y-26319499D01*
X142000943Y-26319499D01*
X141893587Y-26348265D01*
X141848210Y-26360424D01*
X141848209Y-26360425D01*
X141798096Y-26389359D01*
X141798095Y-26389360D01*
X141754689Y-26414420D01*
X141711285Y-26439479D01*
X141711282Y-26439481D01*
X141599478Y-26551286D01*
X116287584Y-51863181D01*
X116226261Y-51896666D01*
X116199903Y-51899500D01*
X104920940Y-51899500D01*
X104880019Y-51910464D01*
X104880019Y-51910465D01*
X104842751Y-51920451D01*
X104768214Y-51940423D01*
X104768209Y-51940426D01*
X104631290Y-52019475D01*
X104631282Y-52019481D01*
X104519478Y-52131286D01*
X96787584Y-59863181D01*
X96726261Y-59896666D01*
X96699903Y-59899500D01*
X87120940Y-59899500D01*
X87080019Y-59910464D01*
X87080019Y-59910465D01*
X87042751Y-59920451D01*
X86968214Y-59940423D01*
X86968209Y-59940426D01*
X86831290Y-60019475D01*
X86831282Y-60019481D01*
X86719478Y-60131286D01*
X77884842Y-68965921D01*
X77823519Y-68999406D01*
X77758848Y-68996173D01*
X77744534Y-68991522D01*
X77569995Y-68963878D01*
X77542352Y-68959500D01*
X77337648Y-68959500D01*
X77313329Y-68963351D01*
X77135465Y-68991522D01*
X76940776Y-69054781D01*
X76758386Y-69147715D01*
X76592786Y-69268028D01*
X76448028Y-69412786D01*
X76327715Y-69578386D01*
X76280485Y-69671080D01*
X76232510Y-69721876D01*
X76164689Y-69738671D01*
X76098554Y-69716134D01*
X76059515Y-69671080D01*
X76058883Y-69669840D01*
X76012287Y-69578390D01*
X76004556Y-69567749D01*
X75891971Y-69412786D01*
X75747213Y-69268028D01*
X75581613Y-69147715D01*
X75581612Y-69147714D01*
X75581610Y-69147713D01*
X75524653Y-69118691D01*
X75399223Y-69054781D01*
X75204534Y-68991522D01*
X75029995Y-68963878D01*
X75002352Y-68959500D01*
X74809096Y-68959500D01*
X74742057Y-68939815D01*
X74696302Y-68887011D01*
X74686358Y-68817853D01*
X74715383Y-68754297D01*
X74721415Y-68747819D01*
X79909658Y-63559577D01*
X85332416Y-58136819D01*
X85393739Y-58103334D01*
X85420097Y-58100500D01*
X93413331Y-58100500D01*
X93413347Y-58100501D01*
X93420943Y-58100501D01*
X93579054Y-58100501D01*
X93579057Y-58100501D01*
X93731785Y-58059577D01*
X93781904Y-58030639D01*
X93868716Y-57980520D01*
X93980520Y-57868716D01*
X93980520Y-57868714D01*
X93990728Y-57858507D01*
X93990729Y-57858504D01*
X103672416Y-48176819D01*
X103733739Y-48143334D01*
X103760097Y-48140500D01*
X106375501Y-48140500D01*
X106442540Y-48160185D01*
X106488295Y-48212989D01*
X106499501Y-48264500D01*
X106499501Y-48587876D01*
X106505908Y-48647483D01*
X106556202Y-48782328D01*
X106556206Y-48782335D01*
X106642452Y-48897544D01*
X106642455Y-48897547D01*
X106757664Y-48983793D01*
X106757671Y-48983797D01*
X106892517Y-49034091D01*
X106892516Y-49034091D01*
X106899444Y-49034835D01*
X106952127Y-49040500D01*
X109047872Y-49040499D01*
X109107483Y-49034091D01*
X109242331Y-48983796D01*
X109357546Y-48897546D01*
X109443796Y-48782331D01*
X109494091Y-48647483D01*
X109500500Y-48587873D01*
X109500499Y-46492128D01*
X109494091Y-46432517D01*
X109443796Y-46297669D01*
X109443795Y-46297668D01*
X109443793Y-46297664D01*
X109357547Y-46182455D01*
X109357544Y-46182452D01*
X109242335Y-46096206D01*
X109242328Y-46096202D01*
X109107482Y-46045908D01*
X109107483Y-46045908D01*
X109047883Y-46039501D01*
X109047881Y-46039500D01*
X109047873Y-46039500D01*
X109047864Y-46039500D01*
X106952129Y-46039500D01*
X106952123Y-46039501D01*
X106892516Y-46045908D01*
X106757671Y-46096202D01*
X106757664Y-46096206D01*
X106642455Y-46182452D01*
X106642452Y-46182455D01*
X106556206Y-46297664D01*
X106556202Y-46297671D01*
X106505908Y-46432517D01*
X106500748Y-46480519D01*
X106499501Y-46492123D01*
X106499500Y-46492135D01*
X106499500Y-46815500D01*
X106479815Y-46882539D01*
X106427011Y-46928294D01*
X106375500Y-46939500D01*
X103539057Y-46939500D01*
X103380943Y-46939500D01*
X103228215Y-46980423D01*
X103228214Y-46980423D01*
X103228212Y-46980424D01*
X103228209Y-46980425D01*
X103178096Y-47009359D01*
X103178095Y-47009360D01*
X103134689Y-47034420D01*
X103091285Y-47059479D01*
X103091282Y-47059481D01*
X103010863Y-47139901D01*
X102979480Y-47171284D01*
X102979478Y-47171286D01*
X98131284Y-52019481D01*
X93287584Y-56863181D01*
X93226261Y-56896666D01*
X93199903Y-56899500D01*
X85199057Y-56899500D01*
X85040943Y-56899500D01*
X84888215Y-56940423D01*
X84888214Y-56940423D01*
X84888212Y-56940424D01*
X84888209Y-56940425D01*
X84838096Y-56969359D01*
X84838095Y-56969360D01*
X84794689Y-56994420D01*
X84751285Y-57019479D01*
X84751282Y-57019481D01*
X84639478Y-57131286D01*
X72804842Y-68965921D01*
X72743519Y-68999406D01*
X72678848Y-68996173D01*
X72664534Y-68991522D01*
X72489995Y-68963878D01*
X72462352Y-68959500D01*
X72257648Y-68959500D01*
X72233329Y-68963351D01*
X72055465Y-68991522D01*
X71860776Y-69054781D01*
X71678386Y-69147715D01*
X71512786Y-69268028D01*
X71368028Y-69412786D01*
X71247715Y-69578386D01*
X71200485Y-69671080D01*
X71152510Y-69721876D01*
X71084689Y-69738671D01*
X71018554Y-69716134D01*
X70979515Y-69671080D01*
X70978883Y-69669840D01*
X70932287Y-69578390D01*
X70924556Y-69567749D01*
X70811971Y-69412786D01*
X70667213Y-69268028D01*
X70501611Y-69147713D01*
X70454882Y-69123904D01*
X70404086Y-69075930D01*
X70387290Y-69008109D01*
X70409827Y-68941974D01*
X70423489Y-68925744D01*
X92712416Y-46636819D01*
X92773739Y-46603334D01*
X92800097Y-46600500D01*
X96592860Y-46600500D01*
X96659899Y-46620185D01*
X96705654Y-46672989D01*
X96715598Y-46742147D01*
X96703345Y-46780795D01*
X96609897Y-46964197D01*
X96536934Y-47188752D01*
X96500000Y-47421947D01*
X96500000Y-47658052D01*
X96536934Y-47891247D01*
X96609897Y-48115802D01*
X96717087Y-48326174D01*
X96777338Y-48409104D01*
X96777340Y-48409105D01*
X97517037Y-47669408D01*
X97534075Y-47732993D01*
X97599901Y-47847007D01*
X97692993Y-47940099D01*
X97807007Y-48005925D01*
X97870590Y-48022962D01*
X97130893Y-48762658D01*
X97213828Y-48822914D01*
X97424197Y-48930102D01*
X97648752Y-49003065D01*
X97648751Y-49003065D01*
X97881948Y-49040000D01*
X98118052Y-49040000D01*
X98351247Y-49003065D01*
X98575802Y-48930102D01*
X98786163Y-48822918D01*
X98786169Y-48822914D01*
X98869104Y-48762658D01*
X98869105Y-48762658D01*
X98129408Y-48022962D01*
X98192993Y-48005925D01*
X98307007Y-47940099D01*
X98400099Y-47847007D01*
X98465925Y-47732993D01*
X98482962Y-47669409D01*
X99222658Y-48409105D01*
X99222658Y-48409104D01*
X99282914Y-48326169D01*
X99282918Y-48326163D01*
X99390102Y-48115802D01*
X99463065Y-47891247D01*
X99500000Y-47658052D01*
X99500000Y-47421947D01*
X99463065Y-47188752D01*
X99390102Y-46964197D01*
X99296655Y-46780795D01*
X99296146Y-46778089D01*
X99294346Y-46776011D01*
X99289737Y-46743959D01*
X99283759Y-46712125D01*
X99284793Y-46709576D01*
X99284402Y-46706853D01*
X99297853Y-46677397D01*
X99310035Y-46647385D01*
X99312284Y-46645799D01*
X99313427Y-46643297D01*
X99340670Y-46625788D01*
X99367142Y-46607128D01*
X99370598Y-46606555D01*
X99372205Y-46605523D01*
X99407140Y-46600500D01*
X99413331Y-46600500D01*
X99413347Y-46600501D01*
X99420943Y-46600501D01*
X99579054Y-46600501D01*
X99579057Y-46600501D01*
X99731785Y-46559577D01*
X99781904Y-46530639D01*
X99868716Y-46480520D01*
X99980520Y-46368716D01*
X99980520Y-46368714D01*
X99990728Y-46358507D01*
X99990729Y-46358504D01*
X115212416Y-31136819D01*
X115273739Y-31103334D01*
X115300097Y-31100500D01*
X125913331Y-31100500D01*
X125913347Y-31100501D01*
X125920943Y-31100501D01*
X126079054Y-31100501D01*
X126079057Y-31100501D01*
X126231785Y-31059577D01*
X126281904Y-31030639D01*
X126368716Y-30980520D01*
X126480520Y-30868716D01*
X126480520Y-30868714D01*
X126490728Y-30858507D01*
X126490730Y-30858504D01*
X134358506Y-22990728D01*
X134358511Y-22990724D01*
X134368714Y-22980520D01*
X134368716Y-22980520D01*
X134480520Y-22868716D01*
X134559577Y-22731784D01*
X134594754Y-22600501D01*
X134600500Y-22579058D01*
X134600500Y-22420943D01*
X134600500Y-18920943D01*
X134559577Y-18768216D01*
X134559573Y-18768209D01*
X134480524Y-18631290D01*
X134480521Y-18631286D01*
X134480520Y-18631284D01*
X134368716Y-18519480D01*
X134368715Y-18519479D01*
X134364385Y-18515149D01*
X134364374Y-18515139D01*
X131161416Y-15312181D01*
X131127931Y-15250858D01*
X131132915Y-15181166D01*
X131174787Y-15125233D01*
X131240251Y-15100816D01*
X131249097Y-15100500D01*
X173627159Y-15100500D01*
X173694198Y-15120185D01*
G37*
%TD.AperFunction*%
%TA.AperFunction,Conductor*%
G36*
X104334075Y-22192993D02*
G01*
X104399901Y-22307007D01*
X104492993Y-22400099D01*
X104607007Y-22465925D01*
X104670590Y-22482962D01*
X104038282Y-23115269D01*
X104038282Y-23115270D01*
X104092449Y-23154624D01*
X104281782Y-23251095D01*
X104483870Y-23316757D01*
X104693754Y-23350000D01*
X104906246Y-23350000D01*
X105116127Y-23316757D01*
X105116130Y-23316757D01*
X105318217Y-23251095D01*
X105507554Y-23154622D01*
X105561716Y-23115270D01*
X105561717Y-23115270D01*
X104929408Y-22482962D01*
X104992993Y-22465925D01*
X105107007Y-22400099D01*
X105200099Y-22307007D01*
X105265925Y-22192993D01*
X105282962Y-22129409D01*
X105915270Y-22761717D01*
X105915270Y-22761716D01*
X105954622Y-22707555D01*
X105959232Y-22698507D01*
X106007205Y-22647709D01*
X106075025Y-22630912D01*
X106141161Y-22653447D01*
X106180204Y-22698504D01*
X106184949Y-22707817D01*
X106309890Y-22879786D01*
X106460213Y-23030109D01*
X106632179Y-23155048D01*
X106632181Y-23155049D01*
X106632184Y-23155051D01*
X106821588Y-23251557D01*
X107023757Y-23317246D01*
X107233713Y-23350500D01*
X107233714Y-23350500D01*
X107446286Y-23350500D01*
X107446287Y-23350500D01*
X107656243Y-23317246D01*
X107858412Y-23251557D01*
X108047816Y-23155051D01*
X108134138Y-23092335D01*
X108219786Y-23030109D01*
X108219788Y-23030106D01*
X108219792Y-23030104D01*
X108370104Y-22879792D01*
X108370106Y-22879788D01*
X108370109Y-22879786D01*
X108495048Y-22707820D01*
X108495047Y-22707820D01*
X108495051Y-22707816D01*
X108499514Y-22699054D01*
X108547488Y-22648259D01*
X108615308Y-22631463D01*
X108681444Y-22653999D01*
X108720486Y-22699056D01*
X108724951Y-22707820D01*
X108849890Y-22879786D01*
X108863181Y-22893077D01*
X108896666Y-22954400D01*
X108899500Y-22980758D01*
X108899500Y-24699903D01*
X108879815Y-24766942D01*
X108863181Y-24787584D01*
X105787584Y-27863181D01*
X105726261Y-27896666D01*
X105699903Y-27899500D01*
X99586669Y-27899500D01*
X99586653Y-27899499D01*
X99579057Y-27899499D01*
X99420943Y-27899499D01*
X99313587Y-27928265D01*
X99268210Y-27940424D01*
X99268209Y-27940425D01*
X99218096Y-27969359D01*
X99218095Y-27969360D01*
X99174689Y-27994420D01*
X99131285Y-28019479D01*
X99131282Y-28019481D01*
X99019478Y-28131286D01*
X64787584Y-62363181D01*
X64726261Y-62396666D01*
X64699903Y-62399500D01*
X60240940Y-62399500D01*
X60200019Y-62410464D01*
X60200019Y-62410465D01*
X60162751Y-62420451D01*
X60088214Y-62440423D01*
X60088209Y-62440426D01*
X59951290Y-62519475D01*
X59951282Y-62519481D01*
X59839478Y-62631286D01*
X53504842Y-68965921D01*
X53443519Y-68999406D01*
X53378848Y-68996173D01*
X53364534Y-68991522D01*
X53189995Y-68963878D01*
X53162352Y-68959500D01*
X52957648Y-68959500D01*
X52917108Y-68965921D01*
X52755464Y-68991523D01*
X52755457Y-68991524D01*
X52721817Y-69002455D01*
X52693698Y-69003258D01*
X52665853Y-69007262D01*
X52659241Y-69004242D01*
X52651976Y-69004450D01*
X52627887Y-68989923D01*
X52602297Y-68978237D01*
X52598366Y-68972121D01*
X52592144Y-68968369D01*
X52579733Y-68943126D01*
X52564523Y-68919459D01*
X52563046Y-68909186D01*
X52561316Y-68905668D01*
X52559500Y-68884524D01*
X52559500Y-68841097D01*
X52579185Y-68774058D01*
X52595819Y-68753416D01*
X95212416Y-26136819D01*
X95273739Y-26103334D01*
X95300097Y-26100500D01*
X101413331Y-26100500D01*
X101413347Y-26100501D01*
X101420943Y-26100501D01*
X101579054Y-26100501D01*
X101579057Y-26100501D01*
X101731785Y-26059577D01*
X101781904Y-26030639D01*
X101868716Y-25980520D01*
X101980520Y-25868716D01*
X101980520Y-25868714D01*
X101990728Y-25858507D01*
X101990729Y-25858504D01*
X102980520Y-24868716D01*
X103059577Y-24731784D01*
X103100501Y-24579057D01*
X103100501Y-24420942D01*
X103059577Y-24268215D01*
X102980520Y-24131284D01*
X102896818Y-24047582D01*
X102863334Y-23986258D01*
X102860500Y-23959901D01*
X102860500Y-23285718D01*
X102880185Y-23218679D01*
X102928207Y-23175233D01*
X102967815Y-23155052D01*
X102967815Y-23155051D01*
X102967816Y-23155051D01*
X103059193Y-23088661D01*
X103139786Y-23030109D01*
X103139788Y-23030106D01*
X103139792Y-23030104D01*
X103290104Y-22879792D01*
X103290106Y-22879788D01*
X103290109Y-22879786D01*
X103375890Y-22761717D01*
X103415051Y-22707816D01*
X103419793Y-22698508D01*
X103467763Y-22647711D01*
X103535583Y-22630911D01*
X103601719Y-22653445D01*
X103640763Y-22698500D01*
X103645373Y-22707547D01*
X103684728Y-22761716D01*
X104317037Y-22129408D01*
X104334075Y-22192993D01*
G37*
%TD.AperFunction*%
%TA.AperFunction,Conductor*%
G36*
X64274075Y-21807007D02*
G01*
X64240000Y-21934174D01*
X64240000Y-22065826D01*
X64274075Y-22192993D01*
X64306988Y-22250000D01*
X62633012Y-22250000D01*
X62665925Y-22192993D01*
X62700000Y-22065826D01*
X62700000Y-21934174D01*
X62665925Y-21807007D01*
X62633012Y-21750000D01*
X64306988Y-21750000D01*
X64274075Y-21807007D01*
G37*
%TD.AperFunction*%
%TA.AperFunction,Conductor*%
G36*
X116817941Y-15120185D02*
G01*
X116863696Y-15172989D01*
X116873640Y-15242147D01*
X116844615Y-15305703D01*
X116838583Y-15312181D01*
X114479481Y-17671282D01*
X114479479Y-17671285D01*
X114429361Y-17758094D01*
X114429359Y-17758096D01*
X114400425Y-17808209D01*
X114400424Y-17808210D01*
X114400423Y-17808215D01*
X114359499Y-17960943D01*
X114359499Y-17960945D01*
X114359499Y-18129046D01*
X114359500Y-18129059D01*
X114359500Y-20714281D01*
X114339815Y-20781320D01*
X114291795Y-20824765D01*
X114252185Y-20844947D01*
X114252184Y-20844948D01*
X114080213Y-20969890D01*
X113929890Y-21120213D01*
X113804949Y-21292182D01*
X113800484Y-21300946D01*
X113752509Y-21351742D01*
X113684688Y-21368536D01*
X113618553Y-21345998D01*
X113579516Y-21300946D01*
X113575050Y-21292182D01*
X113450109Y-21120213D01*
X113299786Y-20969890D01*
X113127820Y-20844951D01*
X112938414Y-20748444D01*
X112938413Y-20748443D01*
X112938412Y-20748443D01*
X112736243Y-20682754D01*
X112736241Y-20682753D01*
X112736240Y-20682753D01*
X112574957Y-20657208D01*
X112526287Y-20649500D01*
X112313713Y-20649500D01*
X112265042Y-20657208D01*
X112103760Y-20682753D01*
X111901585Y-20748444D01*
X111712179Y-20844951D01*
X111540213Y-20969890D01*
X111389890Y-21120213D01*
X111264949Y-21292182D01*
X111260484Y-21300946D01*
X111212509Y-21351742D01*
X111144688Y-21368536D01*
X111078553Y-21345998D01*
X111039516Y-21300946D01*
X111035050Y-21292182D01*
X110910109Y-21120213D01*
X110759786Y-20969890D01*
X110587820Y-20844951D01*
X110398414Y-20748444D01*
X110398413Y-20748443D01*
X110398412Y-20748443D01*
X110196243Y-20682754D01*
X110196241Y-20682753D01*
X110196240Y-20682753D01*
X110034957Y-20657208D01*
X109986287Y-20649500D01*
X109773713Y-20649500D01*
X109725042Y-20657208D01*
X109563760Y-20682753D01*
X109361585Y-20748444D01*
X109172179Y-20844951D01*
X109000213Y-20969890D01*
X108849890Y-21120213D01*
X108724949Y-21292182D01*
X108720484Y-21300946D01*
X108672509Y-21351742D01*
X108604688Y-21368536D01*
X108538553Y-21345998D01*
X108499516Y-21300946D01*
X108495050Y-21292182D01*
X108370109Y-21120213D01*
X108219786Y-20969890D01*
X108047820Y-20844951D01*
X107858414Y-20748444D01*
X107858413Y-20748443D01*
X107858412Y-20748443D01*
X107656243Y-20682754D01*
X107656241Y-20682753D01*
X107656240Y-20682753D01*
X107494957Y-20657208D01*
X107446287Y-20649500D01*
X107233713Y-20649500D01*
X107185042Y-20657208D01*
X107023760Y-20682753D01*
X106821585Y-20748444D01*
X106632179Y-20844951D01*
X106460213Y-20969890D01*
X106309890Y-21120213D01*
X106184949Y-21292182D01*
X106180202Y-21301499D01*
X106132227Y-21352293D01*
X106064405Y-21369087D01*
X105998271Y-21346548D01*
X105959234Y-21301495D01*
X105954626Y-21292452D01*
X105915270Y-21238282D01*
X105915269Y-21238282D01*
X105282962Y-21870590D01*
X105265925Y-21807007D01*
X105200099Y-21692993D01*
X105107007Y-21599901D01*
X104992993Y-21534075D01*
X104929409Y-21517037D01*
X105561716Y-20884728D01*
X105507550Y-20845375D01*
X105318217Y-20748904D01*
X105116129Y-20683242D01*
X104906246Y-20650000D01*
X104693754Y-20650000D01*
X104483872Y-20683242D01*
X104483869Y-20683242D01*
X104281782Y-20748904D01*
X104092439Y-20845380D01*
X104038282Y-20884727D01*
X104038282Y-20884728D01*
X104670591Y-21517037D01*
X104607007Y-21534075D01*
X104492993Y-21599901D01*
X104399901Y-21692993D01*
X104334075Y-21807007D01*
X104317037Y-21870591D01*
X103684728Y-21238282D01*
X103684727Y-21238282D01*
X103645380Y-21292440D01*
X103645376Y-21292446D01*
X103640760Y-21301505D01*
X103592781Y-21352297D01*
X103524959Y-21369087D01*
X103458826Y-21346543D01*
X103419794Y-21301493D01*
X103415051Y-21292184D01*
X103415049Y-21292181D01*
X103415048Y-21292179D01*
X103290109Y-21120213D01*
X103139786Y-20969890D01*
X102967820Y-20844951D01*
X102778414Y-20748444D01*
X102778413Y-20748443D01*
X102778412Y-20748443D01*
X102576243Y-20682754D01*
X102576241Y-20682753D01*
X102576240Y-20682753D01*
X102414957Y-20657208D01*
X102366287Y-20649500D01*
X102153713Y-20649500D01*
X102105042Y-20657208D01*
X101943760Y-20682753D01*
X101741585Y-20748444D01*
X101552179Y-20844951D01*
X101380215Y-20969889D01*
X101266673Y-21083431D01*
X101205350Y-21116915D01*
X101135658Y-21111931D01*
X101079725Y-21070059D01*
X101062810Y-21039082D01*
X101013797Y-20907671D01*
X101013793Y-20907664D01*
X100927547Y-20792455D01*
X100927544Y-20792452D01*
X100812335Y-20706206D01*
X100812328Y-20706202D01*
X100677482Y-20655908D01*
X100677483Y-20655908D01*
X100617883Y-20649501D01*
X100617881Y-20649500D01*
X100617873Y-20649500D01*
X100617865Y-20649500D01*
X99270098Y-20649500D01*
X99203059Y-20629815D01*
X99182417Y-20613181D01*
X96688293Y-18119057D01*
X93881415Y-15312180D01*
X93847931Y-15250858D01*
X93852915Y-15181166D01*
X93894787Y-15125233D01*
X93960251Y-15100816D01*
X93969097Y-15100500D01*
X116750902Y-15100500D01*
X116817941Y-15120185D01*
G37*
%TD.AperFunction*%
%TA.AperFunction,Conductor*%
G36*
X183442539Y-9020185D02*
G01*
X183488294Y-9072989D01*
X183499500Y-9124500D01*
X183499500Y-133375500D01*
X183479815Y-133442539D01*
X183427011Y-133488294D01*
X183375500Y-133499500D01*
X19124500Y-133499500D01*
X19057461Y-133479815D01*
X19011706Y-133427011D01*
X19000500Y-133375500D01*
X19000500Y-125579054D01*
X19399498Y-125579054D01*
X19440423Y-125731785D01*
X19469358Y-125781900D01*
X19469359Y-125781904D01*
X19469360Y-125781904D01*
X19519479Y-125868714D01*
X19519481Y-125868717D01*
X19638349Y-125987585D01*
X19638355Y-125987590D01*
X23515139Y-129864374D01*
X23515149Y-129864385D01*
X23519479Y-129868715D01*
X23519480Y-129868716D01*
X23631284Y-129980520D01*
X23718095Y-130030639D01*
X23718097Y-130030641D01*
X23768213Y-130059576D01*
X23768215Y-130059577D01*
X23920942Y-130100500D01*
X23920943Y-130100500D01*
X95413331Y-130100500D01*
X95413347Y-130100501D01*
X95420943Y-130100501D01*
X95579054Y-130100501D01*
X95579057Y-130100501D01*
X95731785Y-130059577D01*
X95781904Y-130030639D01*
X95868716Y-129980520D01*
X95980520Y-129868716D01*
X95980520Y-129868714D01*
X95990728Y-129858507D01*
X95990730Y-129858504D01*
X106358506Y-119490728D01*
X106358511Y-119490724D01*
X106368714Y-119480520D01*
X106368716Y-119480520D01*
X106480520Y-119368716D01*
X106559577Y-119231784D01*
X106600500Y-119079057D01*
X106600500Y-113897648D01*
X112199500Y-113897648D01*
X112199500Y-114102351D01*
X112231522Y-114304534D01*
X112294781Y-114499223D01*
X112387715Y-114681613D01*
X112508028Y-114847213D01*
X112508034Y-114847219D01*
X112652781Y-114991966D01*
X112818390Y-115112287D01*
X112831793Y-115119116D01*
X112882589Y-115167088D01*
X112899500Y-115229601D01*
X112899500Y-119203710D01*
X112879815Y-119270749D01*
X112848385Y-119304028D01*
X112727638Y-119391755D01*
X112727632Y-119391760D01*
X112571756Y-119547636D01*
X112571752Y-119547641D01*
X112442187Y-119725974D01*
X112342104Y-119922393D01*
X112342103Y-119922396D01*
X112273985Y-120132047D01*
X112243961Y-120321610D01*
X112239500Y-120349778D01*
X112239500Y-120570222D01*
X112249279Y-120631966D01*
X112273985Y-120787952D01*
X112342103Y-120997603D01*
X112342104Y-120997606D01*
X112442187Y-121194025D01*
X112571752Y-121372358D01*
X112571756Y-121372363D01*
X112622316Y-121422923D01*
X112655801Y-121484246D01*
X112650817Y-121553938D01*
X112608945Y-121609871D01*
X112577969Y-121626785D01*
X112497918Y-121656643D01*
X112497906Y-121656649D01*
X112382812Y-121742809D01*
X112382809Y-121742812D01*
X112296649Y-121857906D01*
X112296645Y-121857913D01*
X112246403Y-121992620D01*
X112246401Y-121992627D01*
X112240000Y-122052155D01*
X112240000Y-122750000D01*
X113264722Y-122750000D01*
X113220667Y-122826306D01*
X113190000Y-122940756D01*
X113190000Y-123059244D01*
X113220667Y-123173694D01*
X113264722Y-123250000D01*
X112240000Y-123250000D01*
X112240000Y-123947844D01*
X112246401Y-124007372D01*
X112246403Y-124007379D01*
X112296645Y-124142086D01*
X112296649Y-124142093D01*
X112382809Y-124257187D01*
X112382812Y-124257190D01*
X112497906Y-124343350D01*
X112497913Y-124343354D01*
X112632620Y-124393596D01*
X112632627Y-124393598D01*
X112692155Y-124399999D01*
X112692172Y-124400000D01*
X113390000Y-124400000D01*
X113390000Y-123375277D01*
X113466306Y-123419333D01*
X113580756Y-123450000D01*
X113699244Y-123450000D01*
X113813694Y-123419333D01*
X113890000Y-123375277D01*
X113890000Y-124400000D01*
X114587828Y-124400000D01*
X114587844Y-124399999D01*
X114647372Y-124393598D01*
X114647379Y-124393596D01*
X114782086Y-124343354D01*
X114782093Y-124343350D01*
X114897187Y-124257190D01*
X114897190Y-124257187D01*
X114983350Y-124142093D01*
X114983354Y-124142086D01*
X115033596Y-124007379D01*
X115033598Y-124007372D01*
X115039999Y-123947844D01*
X115040000Y-123947827D01*
X115040000Y-123250000D01*
X114015278Y-123250000D01*
X114059333Y-123173694D01*
X114090000Y-123059244D01*
X114090000Y-122940756D01*
X114059333Y-122826306D01*
X114015278Y-122750000D01*
X115040000Y-122750000D01*
X115040000Y-122052172D01*
X115039999Y-122052155D01*
X115033598Y-121992627D01*
X115033596Y-121992620D01*
X114983354Y-121857913D01*
X114983350Y-121857906D01*
X114897190Y-121742812D01*
X114897187Y-121742809D01*
X114782093Y-121656649D01*
X114782087Y-121656646D01*
X114702030Y-121626786D01*
X114646097Y-121584914D01*
X114621680Y-121519450D01*
X114636532Y-121451177D01*
X114657681Y-121422925D01*
X114708242Y-121372365D01*
X114837815Y-121194022D01*
X114937895Y-120997606D01*
X115006015Y-120787951D01*
X115040500Y-120570222D01*
X115040500Y-120349778D01*
X115006015Y-120132049D01*
X114952653Y-119967816D01*
X114937896Y-119922396D01*
X114937895Y-119922393D01*
X114889773Y-119827951D01*
X114837815Y-119725978D01*
X114799829Y-119673694D01*
X114708247Y-119547641D01*
X114708243Y-119547636D01*
X114552363Y-119391756D01*
X114552358Y-119391752D01*
X114374025Y-119262187D01*
X114374024Y-119262186D01*
X114374022Y-119262185D01*
X114177606Y-119162105D01*
X114177605Y-119162104D01*
X114177596Y-119162100D01*
X114177046Y-119161872D01*
X114176868Y-119161729D01*
X114173265Y-119159893D01*
X114173650Y-119159135D01*
X114122643Y-119118031D01*
X114100579Y-119051736D01*
X114100500Y-119047312D01*
X114100500Y-115229601D01*
X114120185Y-115162562D01*
X114168206Y-115119116D01*
X114181610Y-115112287D01*
X114347219Y-114991966D01*
X114491966Y-114847219D01*
X114491968Y-114847215D01*
X114491971Y-114847213D01*
X114549366Y-114768214D01*
X114612287Y-114681610D01*
X114705220Y-114499219D01*
X114768477Y-114304534D01*
X114800500Y-114102352D01*
X114800500Y-113897648D01*
X126559500Y-113897648D01*
X126559500Y-114102351D01*
X126591522Y-114304534D01*
X126654781Y-114499223D01*
X126747715Y-114681613D01*
X126868028Y-114847213D01*
X126868034Y-114847219D01*
X127012781Y-114991966D01*
X127178390Y-115112287D01*
X127191793Y-115119116D01*
X127242589Y-115167088D01*
X127259500Y-115229601D01*
X127259500Y-119203710D01*
X127239815Y-119270749D01*
X127208385Y-119304028D01*
X127087638Y-119391755D01*
X127087632Y-119391760D01*
X126931756Y-119547636D01*
X126931752Y-119547641D01*
X126802187Y-119725974D01*
X126702104Y-119922393D01*
X126702103Y-119922396D01*
X126633985Y-120132047D01*
X126603961Y-120321610D01*
X126599500Y-120349778D01*
X126599500Y-120570222D01*
X126609279Y-120631966D01*
X126633985Y-120787952D01*
X126702103Y-120997603D01*
X126702104Y-120997606D01*
X126802187Y-121194025D01*
X126931752Y-121372358D01*
X126931756Y-121372363D01*
X126982316Y-121422923D01*
X127015801Y-121484246D01*
X127010817Y-121553938D01*
X126968945Y-121609871D01*
X126937969Y-121626785D01*
X126857918Y-121656643D01*
X126857906Y-121656649D01*
X126742812Y-121742809D01*
X126742809Y-121742812D01*
X126656649Y-121857906D01*
X126656645Y-121857913D01*
X126606403Y-121992620D01*
X126606401Y-121992627D01*
X126600000Y-122052155D01*
X126600000Y-122750000D01*
X127624722Y-122750000D01*
X127580667Y-122826306D01*
X127550000Y-122940756D01*
X127550000Y-123059244D01*
X127580667Y-123173694D01*
X127624722Y-123250000D01*
X126600000Y-123250000D01*
X126600000Y-123947844D01*
X126606401Y-124007372D01*
X126606403Y-124007379D01*
X126656645Y-124142086D01*
X126656649Y-124142093D01*
X126742809Y-124257187D01*
X126742812Y-124257190D01*
X126857906Y-124343350D01*
X126857913Y-124343354D01*
X126992620Y-124393596D01*
X126992627Y-124393598D01*
X127052155Y-124399999D01*
X127052172Y-124400000D01*
X127750000Y-124400000D01*
X127750000Y-123375277D01*
X127826306Y-123419333D01*
X127940756Y-123450000D01*
X128059244Y-123450000D01*
X128173694Y-123419333D01*
X128250000Y-123375277D01*
X128250000Y-124400000D01*
X128947828Y-124400000D01*
X128947844Y-124399999D01*
X129007372Y-124393598D01*
X129007379Y-124393596D01*
X129142086Y-124343354D01*
X129142093Y-124343350D01*
X129257187Y-124257190D01*
X129257190Y-124257187D01*
X129343350Y-124142093D01*
X129343354Y-124142086D01*
X129393596Y-124007379D01*
X129393598Y-124007372D01*
X129399999Y-123947844D01*
X129400000Y-123947827D01*
X129400000Y-123250000D01*
X128375278Y-123250000D01*
X128419333Y-123173694D01*
X128450000Y-123059244D01*
X128450000Y-122940756D01*
X128419333Y-122826306D01*
X128375278Y-122750000D01*
X129400000Y-122750000D01*
X129400000Y-122052172D01*
X129399999Y-122052155D01*
X129393598Y-121992627D01*
X129393596Y-121992620D01*
X129343354Y-121857913D01*
X129343350Y-121857906D01*
X129257190Y-121742812D01*
X129257187Y-121742809D01*
X129142093Y-121656649D01*
X129142087Y-121656646D01*
X129062030Y-121626786D01*
X129006097Y-121584914D01*
X128981680Y-121519450D01*
X128996532Y-121451177D01*
X129017681Y-121422925D01*
X129068242Y-121372365D01*
X129197815Y-121194022D01*
X129297895Y-120997606D01*
X129366015Y-120787951D01*
X129400500Y-120570222D01*
X129400500Y-120349778D01*
X129366015Y-120132049D01*
X129312653Y-119967816D01*
X129297896Y-119922396D01*
X129297895Y-119922393D01*
X129249773Y-119827951D01*
X129197815Y-119725978D01*
X129159829Y-119673694D01*
X129068247Y-119547641D01*
X129068243Y-119547636D01*
X128912363Y-119391756D01*
X128912358Y-119391752D01*
X128734025Y-119262187D01*
X128734024Y-119262186D01*
X128734022Y-119262185D01*
X128537606Y-119162105D01*
X128537605Y-119162104D01*
X128537596Y-119162100D01*
X128537046Y-119161872D01*
X128536868Y-119161729D01*
X128533265Y-119159893D01*
X128533650Y-119159135D01*
X128482643Y-119118031D01*
X128460579Y-119051736D01*
X128460500Y-119047312D01*
X128460500Y-115229601D01*
X128480185Y-115162562D01*
X128528206Y-115119116D01*
X128541610Y-115112287D01*
X128707219Y-114991966D01*
X128851966Y-114847219D01*
X128851968Y-114847215D01*
X128851971Y-114847213D01*
X128909366Y-114768214D01*
X128972287Y-114681610D01*
X129065220Y-114499219D01*
X129128477Y-114304534D01*
X129160500Y-114102352D01*
X129160500Y-113897648D01*
X148559500Y-113897648D01*
X148559500Y-114102351D01*
X148591522Y-114304534D01*
X148654781Y-114499223D01*
X148747715Y-114681613D01*
X148868028Y-114847213D01*
X148868034Y-114847219D01*
X149012781Y-114991966D01*
X149178390Y-115112287D01*
X149191793Y-115119116D01*
X149242589Y-115167088D01*
X149259500Y-115229601D01*
X149259500Y-119203710D01*
X149239815Y-119270749D01*
X149208385Y-119304028D01*
X149087638Y-119391755D01*
X149087632Y-119391760D01*
X148931756Y-119547636D01*
X148931752Y-119547641D01*
X148802187Y-119725974D01*
X148702104Y-119922393D01*
X148702103Y-119922396D01*
X148633985Y-120132047D01*
X148603961Y-120321610D01*
X148599500Y-120349778D01*
X148599500Y-120570222D01*
X148609279Y-120631966D01*
X148633985Y-120787952D01*
X148702103Y-120997603D01*
X148702104Y-120997606D01*
X148802187Y-121194025D01*
X148931752Y-121372358D01*
X148931756Y-121372363D01*
X148982316Y-121422923D01*
X149015801Y-121484246D01*
X149010817Y-121553938D01*
X148968945Y-121609871D01*
X148937969Y-121626785D01*
X148857918Y-121656643D01*
X148857906Y-121656649D01*
X148742812Y-121742809D01*
X148742809Y-121742812D01*
X148656649Y-121857906D01*
X148656645Y-121857913D01*
X148606403Y-121992620D01*
X148606401Y-121992627D01*
X148600000Y-122052155D01*
X148600000Y-122750000D01*
X149624722Y-122750000D01*
X149580667Y-122826306D01*
X149550000Y-122940756D01*
X149550000Y-123059244D01*
X149580667Y-123173694D01*
X149624722Y-123250000D01*
X148600000Y-123250000D01*
X148600000Y-123947844D01*
X148606401Y-124007372D01*
X148606403Y-124007379D01*
X148656645Y-124142086D01*
X148656649Y-124142093D01*
X148742809Y-124257187D01*
X148742812Y-124257190D01*
X148857906Y-124343350D01*
X148857913Y-124343354D01*
X148992620Y-124393596D01*
X148992627Y-124393598D01*
X149052155Y-124399999D01*
X149052172Y-124400000D01*
X149750000Y-124400000D01*
X149750000Y-123375277D01*
X149826306Y-123419333D01*
X149940756Y-123450000D01*
X150059244Y-123450000D01*
X150173694Y-123419333D01*
X150250000Y-123375277D01*
X150250000Y-124400000D01*
X150947828Y-124400000D01*
X150947844Y-124399999D01*
X151007372Y-124393598D01*
X151007379Y-124393596D01*
X151142086Y-124343354D01*
X151142093Y-124343350D01*
X151257187Y-124257190D01*
X151257190Y-124257187D01*
X151343350Y-124142093D01*
X151343354Y-124142086D01*
X151393596Y-124007379D01*
X151393598Y-124007372D01*
X151399999Y-123947844D01*
X151400000Y-123947827D01*
X151400000Y-123250000D01*
X150375278Y-123250000D01*
X150419333Y-123173694D01*
X150450000Y-123059244D01*
X150450000Y-122940756D01*
X150419333Y-122826306D01*
X150375278Y-122750000D01*
X151400000Y-122750000D01*
X151400000Y-122052172D01*
X151399999Y-122052155D01*
X151393598Y-121992627D01*
X151393596Y-121992620D01*
X151343354Y-121857913D01*
X151343350Y-121857906D01*
X151257190Y-121742812D01*
X151257187Y-121742809D01*
X151142093Y-121656649D01*
X151142087Y-121656646D01*
X151062030Y-121626786D01*
X151006097Y-121584914D01*
X150981680Y-121519450D01*
X150996532Y-121451177D01*
X151017681Y-121422925D01*
X151068242Y-121372365D01*
X151197815Y-121194022D01*
X151297895Y-120997606D01*
X151366015Y-120787951D01*
X151400500Y-120570222D01*
X151400500Y-120349778D01*
X151366015Y-120132049D01*
X151312653Y-119967816D01*
X151297896Y-119922396D01*
X151297895Y-119922393D01*
X151249773Y-119827951D01*
X151197815Y-119725978D01*
X151159829Y-119673694D01*
X151068247Y-119547641D01*
X151068243Y-119547636D01*
X150912363Y-119391756D01*
X150912358Y-119391752D01*
X150734025Y-119262187D01*
X150734024Y-119262186D01*
X150734022Y-119262185D01*
X150537606Y-119162105D01*
X150537605Y-119162104D01*
X150537596Y-119162100D01*
X150537046Y-119161872D01*
X150536868Y-119161729D01*
X150533265Y-119159893D01*
X150533650Y-119159135D01*
X150482643Y-119118031D01*
X150460579Y-119051736D01*
X150460500Y-119047312D01*
X150460500Y-115229601D01*
X150480185Y-115162562D01*
X150528206Y-115119116D01*
X150541610Y-115112287D01*
X150707219Y-114991966D01*
X150851966Y-114847219D01*
X150851968Y-114847215D01*
X150851971Y-114847213D01*
X150909366Y-114768214D01*
X150972287Y-114681610D01*
X151065220Y-114499219D01*
X151128477Y-114304534D01*
X151160500Y-114102352D01*
X151160500Y-113897648D01*
X151128477Y-113695466D01*
X151065220Y-113500781D01*
X151065218Y-113500778D01*
X151065218Y-113500776D01*
X151031503Y-113434607D01*
X150972287Y-113318390D01*
X150924186Y-113252184D01*
X150851971Y-113152786D01*
X150707213Y-113008028D01*
X150541613Y-112887715D01*
X150541612Y-112887714D01*
X150541610Y-112887713D01*
X150484653Y-112858691D01*
X150359223Y-112794781D01*
X150164534Y-112731522D01*
X149989995Y-112703878D01*
X149962352Y-112699500D01*
X149757648Y-112699500D01*
X149733329Y-112703351D01*
X149555465Y-112731522D01*
X149360776Y-112794781D01*
X149178386Y-112887715D01*
X149012786Y-113008028D01*
X148868028Y-113152786D01*
X148747715Y-113318386D01*
X148654781Y-113500776D01*
X148591522Y-113695465D01*
X148559500Y-113897648D01*
X129160500Y-113897648D01*
X129128477Y-113695466D01*
X129065220Y-113500781D01*
X129065218Y-113500778D01*
X129065218Y-113500776D01*
X129031503Y-113434607D01*
X128972287Y-113318390D01*
X128924186Y-113252184D01*
X128851971Y-113152786D01*
X128707213Y-113008028D01*
X128541613Y-112887715D01*
X128541612Y-112887714D01*
X128541610Y-112887713D01*
X128484653Y-112858691D01*
X128359223Y-112794781D01*
X128164534Y-112731522D01*
X127989995Y-112703878D01*
X127962352Y-112699500D01*
X127757648Y-112699500D01*
X127733329Y-112703351D01*
X127555465Y-112731522D01*
X127360776Y-112794781D01*
X127178386Y-112887715D01*
X127012786Y-113008028D01*
X126868028Y-113152786D01*
X126747715Y-113318386D01*
X126654781Y-113500776D01*
X126591522Y-113695465D01*
X126559500Y-113897648D01*
X114800500Y-113897648D01*
X114768477Y-113695466D01*
X114705220Y-113500781D01*
X114705218Y-113500778D01*
X114705218Y-113500776D01*
X114671503Y-113434607D01*
X114612287Y-113318390D01*
X114564186Y-113252184D01*
X114491971Y-113152786D01*
X114347213Y-113008028D01*
X114181613Y-112887715D01*
X114181612Y-112887714D01*
X114181610Y-112887713D01*
X114124653Y-112858691D01*
X113999223Y-112794781D01*
X113804534Y-112731522D01*
X113629995Y-112703878D01*
X113602352Y-112699500D01*
X113397648Y-112699500D01*
X113373329Y-112703351D01*
X113195465Y-112731522D01*
X113000776Y-112794781D01*
X112818386Y-112887715D01*
X112652786Y-113008028D01*
X112508028Y-113152786D01*
X112387715Y-113318386D01*
X112294781Y-113500776D01*
X112231522Y-113695465D01*
X112199500Y-113897648D01*
X106600500Y-113897648D01*
X106600500Y-108800096D01*
X106620185Y-108733057D01*
X106636814Y-108712420D01*
X108522414Y-106826819D01*
X108549342Y-106812116D01*
X108575159Y-106795524D01*
X108581361Y-106794632D01*
X108583737Y-106793335D01*
X108610094Y-106790501D01*
X108610942Y-106790500D01*
X108610943Y-106790501D01*
X108769058Y-106790501D01*
X108769061Y-106790500D01*
X108776669Y-106790500D01*
X112175862Y-106790500D01*
X112242901Y-106810185D01*
X112288656Y-106862989D01*
X112293791Y-106876174D01*
X112294781Y-106879222D01*
X112294782Y-106879223D01*
X112386677Y-107059577D01*
X112387715Y-107061613D01*
X112508028Y-107227213D01*
X112652786Y-107371971D01*
X112807749Y-107484556D01*
X112818390Y-107492287D01*
X112934607Y-107551503D01*
X113000776Y-107585218D01*
X113000778Y-107585218D01*
X113000781Y-107585220D01*
X113105137Y-107619127D01*
X113195465Y-107648477D01*
X113296557Y-107664488D01*
X113397648Y-107680500D01*
X113397649Y-107680500D01*
X113602351Y-107680500D01*
X113602352Y-107680500D01*
X113804534Y-107648477D01*
X113999219Y-107585220D01*
X114181610Y-107492287D01*
X114274590Y-107424732D01*
X114347213Y-107371971D01*
X114347215Y-107371968D01*
X114347219Y-107371966D01*
X114491966Y-107227219D01*
X114491968Y-107227215D01*
X114491971Y-107227213D01*
X114584032Y-107100500D01*
X114612287Y-107061610D01*
X114705220Y-106879219D01*
X114768477Y-106684534D01*
X114800500Y-106482352D01*
X114800500Y-106277648D01*
X114768477Y-106075466D01*
X114750284Y-106019475D01*
X114739127Y-105985137D01*
X114705220Y-105880781D01*
X114705218Y-105880778D01*
X114705218Y-105880776D01*
X114671503Y-105814607D01*
X114612287Y-105698390D01*
X114604556Y-105687749D01*
X114491971Y-105532786D01*
X114347213Y-105388028D01*
X114181613Y-105267715D01*
X114181612Y-105267714D01*
X114181610Y-105267713D01*
X114124653Y-105238691D01*
X113999223Y-105174781D01*
X113804534Y-105111522D01*
X113629995Y-105083878D01*
X113602352Y-105079500D01*
X113397648Y-105079500D01*
X113373329Y-105083351D01*
X113195465Y-105111522D01*
X113000776Y-105174781D01*
X112818386Y-105267715D01*
X112652786Y-105388028D01*
X112508035Y-105532779D01*
X112508028Y-105532787D01*
X112503961Y-105538386D01*
X112448631Y-105581052D01*
X112403644Y-105589500D01*
X108990097Y-105589500D01*
X108923058Y-105569815D01*
X108902416Y-105553181D01*
X108868718Y-105519483D01*
X108868716Y-105519481D01*
X108731785Y-105440423D01*
X108579057Y-105399499D01*
X108420943Y-105399499D01*
X108306397Y-105430192D01*
X108268214Y-105440423D01*
X108131284Y-105519481D01*
X108131281Y-105519483D01*
X105631286Y-108019478D01*
X105519481Y-108131282D01*
X105519479Y-108131285D01*
X105469361Y-108218094D01*
X105469359Y-108218096D01*
X105440425Y-108268209D01*
X105440424Y-108268210D01*
X105440423Y-108268215D01*
X105399499Y-108420943D01*
X105399499Y-108420945D01*
X105399499Y-108589046D01*
X105399500Y-108589059D01*
X105399500Y-118699903D01*
X105379815Y-118766942D01*
X105363181Y-118787584D01*
X95287584Y-128863181D01*
X95226261Y-128896666D01*
X95199903Y-128899500D01*
X24300097Y-128899500D01*
X24233058Y-128879815D01*
X24212416Y-128863181D01*
X20636819Y-125287584D01*
X20603334Y-125226261D01*
X20600500Y-125199903D01*
X20600500Y-115300097D01*
X20620185Y-115233058D01*
X20636819Y-115212416D01*
X32712417Y-103136819D01*
X32773740Y-103103334D01*
X32800098Y-103100500D01*
X63913331Y-103100500D01*
X63913347Y-103100501D01*
X63920943Y-103100501D01*
X64079054Y-103100501D01*
X64079057Y-103100501D01*
X64231785Y-103059577D01*
X64281904Y-103030639D01*
X64368716Y-102980520D01*
X64480520Y-102868716D01*
X64480520Y-102868714D01*
X64490728Y-102858507D01*
X64490729Y-102858504D01*
X67480520Y-99868716D01*
X67559577Y-99731784D01*
X67600501Y-99579057D01*
X67600501Y-99420942D01*
X67600501Y-99413347D01*
X67600500Y-99413329D01*
X67600500Y-91420945D01*
X67600500Y-91420943D01*
X67559577Y-91268216D01*
X67559577Y-91268215D01*
X67530639Y-91218095D01*
X67480520Y-91131284D01*
X67368716Y-91019480D01*
X67368715Y-91019479D01*
X67364385Y-91015149D01*
X67364374Y-91015139D01*
X63847411Y-87498176D01*
X63813926Y-87436853D01*
X63811208Y-87405128D01*
X63811796Y-87391541D01*
X63820501Y-87359057D01*
X63820501Y-87200943D01*
X63820500Y-87200939D01*
X63820500Y-71489601D01*
X63840185Y-71422562D01*
X63888206Y-71379116D01*
X63901610Y-71372287D01*
X64067219Y-71251966D01*
X64211966Y-71107219D01*
X64211968Y-71107215D01*
X64211971Y-71107213D01*
X64314270Y-70966408D01*
X64332287Y-70941610D01*
X64425220Y-70759219D01*
X64488477Y-70564534D01*
X64520500Y-70362352D01*
X64520500Y-70157648D01*
X64488477Y-69955466D01*
X64488476Y-69955462D01*
X64488476Y-69955461D01*
X64425882Y-69762818D01*
X64423887Y-69692977D01*
X64459967Y-69633144D01*
X64522668Y-69602316D01*
X64543813Y-69600500D01*
X65956187Y-69600500D01*
X66023226Y-69620185D01*
X66068981Y-69672989D01*
X66078925Y-69742147D01*
X66074118Y-69762818D01*
X66011523Y-69955461D01*
X66011523Y-69955464D01*
X65979500Y-70157648D01*
X65979500Y-70362351D01*
X66011522Y-70564534D01*
X66074781Y-70759223D01*
X66167715Y-70941613D01*
X66288028Y-71107213D01*
X66288034Y-71107219D01*
X66432781Y-71251966D01*
X66598390Y-71372287D01*
X66611793Y-71379116D01*
X66662589Y-71427088D01*
X66679500Y-71489601D01*
X66679500Y-74693330D01*
X66679499Y-74693348D01*
X66679499Y-74859054D01*
X66679498Y-74859054D01*
X66720423Y-75011785D01*
X66749358Y-75061900D01*
X66749359Y-75061904D01*
X66749360Y-75061904D01*
X66799479Y-75148714D01*
X66799481Y-75148717D01*
X66918349Y-75267585D01*
X66918355Y-75267590D01*
X75015139Y-83364374D01*
X75015149Y-83364385D01*
X75019479Y-83368715D01*
X75019480Y-83368716D01*
X75131284Y-83480520D01*
X75131286Y-83480521D01*
X75131290Y-83480524D01*
X75268209Y-83559573D01*
X75268216Y-83559577D01*
X75380019Y-83589534D01*
X75420942Y-83600500D01*
X75420943Y-83600500D01*
X82071364Y-83600500D01*
X82138403Y-83620185D01*
X82184158Y-83672989D01*
X82194102Y-83742147D01*
X82165077Y-83805703D01*
X82156177Y-83814540D01*
X82156226Y-83814589D01*
X82008032Y-83962782D01*
X82008028Y-83962786D01*
X81887715Y-84128386D01*
X81794781Y-84310776D01*
X81731522Y-84505465D01*
X81699500Y-84707648D01*
X81699500Y-84912351D01*
X81731522Y-85114534D01*
X81794781Y-85309223D01*
X81887715Y-85491613D01*
X82008028Y-85657213D01*
X82008034Y-85657219D01*
X82152781Y-85801966D01*
X82318390Y-85922287D01*
X82331793Y-85929116D01*
X82382589Y-85977088D01*
X82399500Y-86039601D01*
X82399500Y-91199902D01*
X82379815Y-91266941D01*
X82363181Y-91287583D01*
X76106980Y-97543784D01*
X67787584Y-105863181D01*
X67726261Y-105896666D01*
X67699903Y-105899500D01*
X43100943Y-105899500D01*
X42948215Y-105940423D01*
X42925647Y-105953453D01*
X42925646Y-105953453D01*
X42811290Y-106019475D01*
X42811282Y-106019481D01*
X42699478Y-106131286D01*
X30904522Y-117926241D01*
X30843199Y-117959726D01*
X30778523Y-117956491D01*
X30736245Y-117942754D01*
X30596272Y-117920584D01*
X30526287Y-117909500D01*
X30313713Y-117909500D01*
X30265042Y-117917208D01*
X30103760Y-117942753D01*
X29901585Y-118008444D01*
X29712179Y-118104951D01*
X29540213Y-118229890D01*
X29389890Y-118380213D01*
X29264949Y-118552182D01*
X29260484Y-118560946D01*
X29212509Y-118611742D01*
X29144688Y-118628536D01*
X29078553Y-118605998D01*
X29039516Y-118560946D01*
X29035050Y-118552182D01*
X28910109Y-118380213D01*
X28759786Y-118229890D01*
X28587820Y-118104951D01*
X28398414Y-118008444D01*
X28398413Y-118008443D01*
X28398412Y-118008443D01*
X28196243Y-117942754D01*
X28196241Y-117942753D01*
X28196240Y-117942753D01*
X28034957Y-117917208D01*
X27986287Y-117909500D01*
X27773713Y-117909500D01*
X27725042Y-117917208D01*
X27563760Y-117942753D01*
X27361585Y-118008444D01*
X27172179Y-118104951D01*
X27000213Y-118229890D01*
X26849890Y-118380213D01*
X26724949Y-118552182D01*
X26720202Y-118561499D01*
X26672227Y-118612293D01*
X26604405Y-118629087D01*
X26538271Y-118606548D01*
X26499234Y-118561495D01*
X26494626Y-118552452D01*
X26455270Y-118498282D01*
X26455269Y-118498282D01*
X25822962Y-119130590D01*
X25805925Y-119067007D01*
X25740099Y-118952993D01*
X25647007Y-118859901D01*
X25532993Y-118794075D01*
X25469409Y-118777037D01*
X26101716Y-118144728D01*
X26047550Y-118105375D01*
X25858217Y-118008904D01*
X25656129Y-117943242D01*
X25446246Y-117910000D01*
X25233754Y-117910000D01*
X25023872Y-117943242D01*
X25023869Y-117943242D01*
X24821782Y-118008904D01*
X24632439Y-118105380D01*
X24578282Y-118144727D01*
X24578282Y-118144728D01*
X25210591Y-118777037D01*
X25147007Y-118794075D01*
X25032993Y-118859901D01*
X24939901Y-118952993D01*
X24874075Y-119067007D01*
X24857037Y-119130591D01*
X24186818Y-118460372D01*
X24153333Y-118399049D01*
X24153330Y-118399036D01*
X24150499Y-118386015D01*
X24150499Y-118362128D01*
X24144091Y-118302517D01*
X24106640Y-118202105D01*
X24093798Y-118167673D01*
X24093793Y-118167664D01*
X24007547Y-118052455D01*
X24007544Y-118052452D01*
X23892335Y-117966206D01*
X23892328Y-117966202D01*
X23757482Y-117915908D01*
X23757483Y-117915908D01*
X23697883Y-117909501D01*
X23697881Y-117909500D01*
X23697873Y-117909500D01*
X23697864Y-117909500D01*
X21902129Y-117909500D01*
X21902123Y-117909501D01*
X21842516Y-117915908D01*
X21707671Y-117966202D01*
X21707664Y-117966206D01*
X21592455Y-118052452D01*
X21592452Y-118052455D01*
X21506206Y-118167664D01*
X21506202Y-118167671D01*
X21455908Y-118302517D01*
X21449501Y-118362116D01*
X21449500Y-118362135D01*
X21449500Y-120157870D01*
X21449501Y-120157876D01*
X21455908Y-120217483D01*
X21506202Y-120352328D01*
X21506206Y-120352335D01*
X21592452Y-120467544D01*
X21592455Y-120467547D01*
X21707664Y-120553793D01*
X21707671Y-120553797D01*
X21842517Y-120604091D01*
X21842516Y-120604091D01*
X21849444Y-120604835D01*
X21902127Y-120610500D01*
X23697872Y-120610499D01*
X23757483Y-120604091D01*
X23892331Y-120553796D01*
X24007546Y-120467546D01*
X24093796Y-120352331D01*
X24144091Y-120217483D01*
X24150500Y-120157873D01*
X24150499Y-120133979D01*
X24153330Y-120120963D01*
X24163940Y-120101525D01*
X24170179Y-120080275D01*
X24186803Y-120059643D01*
X24186808Y-120059636D01*
X24186811Y-120059634D01*
X24186818Y-120059626D01*
X24857037Y-119389408D01*
X24874075Y-119452993D01*
X24939901Y-119567007D01*
X25032993Y-119660099D01*
X25147007Y-119725925D01*
X25210590Y-119742962D01*
X24578282Y-120375269D01*
X24578282Y-120375270D01*
X24632449Y-120414624D01*
X24821782Y-120511095D01*
X25023870Y-120576757D01*
X25233754Y-120610000D01*
X25446246Y-120610000D01*
X25656127Y-120576757D01*
X25656130Y-120576757D01*
X25858217Y-120511095D01*
X26047554Y-120414622D01*
X26101716Y-120375270D01*
X26101717Y-120375270D01*
X25469408Y-119742962D01*
X25532993Y-119725925D01*
X25647007Y-119660099D01*
X25740099Y-119567007D01*
X25805925Y-119452993D01*
X25822962Y-119389408D01*
X26455270Y-120021717D01*
X26455270Y-120021716D01*
X26494622Y-119967555D01*
X26499232Y-119958507D01*
X26547205Y-119907709D01*
X26615025Y-119890912D01*
X26681161Y-119913447D01*
X26720204Y-119958504D01*
X26724949Y-119967817D01*
X26849890Y-120139786D01*
X27000213Y-120290109D01*
X27172179Y-120415048D01*
X27172181Y-120415049D01*
X27172184Y-120415051D01*
X27361588Y-120511557D01*
X27563757Y-120577246D01*
X27773713Y-120610500D01*
X27773714Y-120610500D01*
X27986286Y-120610500D01*
X27986287Y-120610500D01*
X28196243Y-120577246D01*
X28398412Y-120511557D01*
X28587816Y-120415051D01*
X28674138Y-120352335D01*
X28759786Y-120290109D01*
X28759788Y-120290106D01*
X28759792Y-120290104D01*
X28910104Y-120139792D01*
X28910106Y-120139788D01*
X28910109Y-120139786D01*
X29035048Y-119967820D01*
X29035050Y-119967817D01*
X29035051Y-119967816D01*
X29039514Y-119959054D01*
X29087488Y-119908259D01*
X29155308Y-119891463D01*
X29221444Y-119913999D01*
X29260486Y-119959056D01*
X29264951Y-119967820D01*
X29389890Y-120139786D01*
X29540213Y-120290109D01*
X29712179Y-120415048D01*
X29712181Y-120415049D01*
X29712184Y-120415051D01*
X29901588Y-120511557D01*
X30103757Y-120577246D01*
X30313713Y-120610500D01*
X30313714Y-120610500D01*
X30526286Y-120610500D01*
X30526287Y-120610500D01*
X30736243Y-120577246D01*
X30938412Y-120511557D01*
X31127816Y-120415051D01*
X31214138Y-120352335D01*
X31299786Y-120290109D01*
X31299788Y-120290106D01*
X31299792Y-120290104D01*
X31450104Y-120139792D01*
X31450106Y-120139788D01*
X31450109Y-120139786D01*
X31575048Y-119967820D01*
X31575050Y-119967817D01*
X31575051Y-119967816D01*
X31579514Y-119959054D01*
X31627488Y-119908259D01*
X31695308Y-119891463D01*
X31761444Y-119913999D01*
X31800486Y-119959056D01*
X31804951Y-119967820D01*
X31929890Y-120139786D01*
X32080213Y-120290109D01*
X32252179Y-120415048D01*
X32252181Y-120415049D01*
X32252184Y-120415051D01*
X32441588Y-120511557D01*
X32643757Y-120577246D01*
X32853713Y-120610500D01*
X32853714Y-120610500D01*
X33066286Y-120610500D01*
X33066287Y-120610500D01*
X33276243Y-120577246D01*
X33478412Y-120511557D01*
X33667816Y-120415051D01*
X33754138Y-120352335D01*
X33839786Y-120290109D01*
X33839788Y-120290106D01*
X33839792Y-120290104D01*
X33990104Y-120139792D01*
X33990106Y-120139788D01*
X33990109Y-120139786D01*
X34115048Y-119967820D01*
X34115050Y-119967817D01*
X34115051Y-119967816D01*
X34119514Y-119959054D01*
X34167488Y-119908259D01*
X34235308Y-119891463D01*
X34301444Y-119913999D01*
X34340486Y-119959056D01*
X34344951Y-119967820D01*
X34469890Y-120139786D01*
X34620213Y-120290109D01*
X34792179Y-120415048D01*
X34792181Y-120415049D01*
X34792184Y-120415051D01*
X34981588Y-120511557D01*
X35183757Y-120577246D01*
X35393713Y-120610500D01*
X35393714Y-120610500D01*
X35606286Y-120610500D01*
X35606287Y-120610500D01*
X35816243Y-120577246D01*
X36018412Y-120511557D01*
X36207816Y-120415051D01*
X36294138Y-120352335D01*
X36379786Y-120290109D01*
X36379788Y-120290106D01*
X36379792Y-120290104D01*
X36530104Y-120139792D01*
X36530106Y-120139788D01*
X36530109Y-120139786D01*
X36655048Y-119967820D01*
X36655050Y-119967817D01*
X36655051Y-119967816D01*
X36659514Y-119959054D01*
X36707488Y-119908259D01*
X36775308Y-119891463D01*
X36841444Y-119913999D01*
X36880486Y-119959056D01*
X36884951Y-119967820D01*
X37009890Y-120139786D01*
X37160213Y-120290109D01*
X37332179Y-120415048D01*
X37332181Y-120415049D01*
X37332184Y-120415051D01*
X37521588Y-120511557D01*
X37723757Y-120577246D01*
X37933713Y-120610500D01*
X37933714Y-120610500D01*
X38146286Y-120610500D01*
X38146287Y-120610500D01*
X38356243Y-120577246D01*
X38558412Y-120511557D01*
X38747816Y-120415051D01*
X38834138Y-120352335D01*
X38919786Y-120290109D01*
X38919788Y-120290106D01*
X38919792Y-120290104D01*
X39070104Y-120139792D01*
X39070106Y-120139788D01*
X39070109Y-120139786D01*
X39195048Y-119967820D01*
X39195050Y-119967817D01*
X39195051Y-119967816D01*
X39199514Y-119959054D01*
X39247488Y-119908259D01*
X39315308Y-119891463D01*
X39381444Y-119913999D01*
X39420486Y-119959056D01*
X39424951Y-119967820D01*
X39549890Y-120139786D01*
X39700213Y-120290109D01*
X39872184Y-120415051D01*
X39872184Y-120415052D01*
X39911793Y-120435233D01*
X39962590Y-120483206D01*
X39979500Y-120545718D01*
X39979500Y-122668330D01*
X39979499Y-122668348D01*
X39979499Y-122834054D01*
X39979498Y-122834054D01*
X39995166Y-122892527D01*
X40020423Y-122986785D01*
X40039300Y-123019480D01*
X40079420Y-123088970D01*
X40099479Y-123123715D01*
X40218349Y-123242585D01*
X40218355Y-123242590D01*
X40790139Y-123814374D01*
X40790149Y-123814385D01*
X40794479Y-123818715D01*
X40794480Y-123818716D01*
X40906284Y-123930520D01*
X40906286Y-123930521D01*
X40906290Y-123930524D01*
X40992887Y-123980520D01*
X41043216Y-124009577D01*
X41155019Y-124039534D01*
X41195942Y-124050500D01*
X41195943Y-124050500D01*
X44221637Y-124050500D01*
X44260180Y-124058165D01*
X44260366Y-124057473D01*
X44268214Y-124059575D01*
X44268216Y-124059577D01*
X44420943Y-124100501D01*
X44420945Y-124100501D01*
X44586654Y-124100501D01*
X44586670Y-124100500D01*
X70913331Y-124100500D01*
X70913347Y-124100501D01*
X70920943Y-124100501D01*
X71079054Y-124100501D01*
X71079057Y-124100501D01*
X71231785Y-124059577D01*
X71318387Y-124009577D01*
X71368716Y-123980520D01*
X71480520Y-123868716D01*
X71480520Y-123868714D01*
X71490724Y-123858511D01*
X71490727Y-123858506D01*
X75072416Y-120276819D01*
X75133739Y-120243334D01*
X75160097Y-120240500D01*
X76720398Y-120240500D01*
X76787437Y-120260185D01*
X76830883Y-120308205D01*
X76837715Y-120321614D01*
X76958028Y-120487213D01*
X77102786Y-120631971D01*
X77257749Y-120744556D01*
X77268390Y-120752287D01*
X77357901Y-120797895D01*
X77450776Y-120845218D01*
X77450778Y-120845218D01*
X77450781Y-120845220D01*
X77555137Y-120879127D01*
X77645465Y-120908477D01*
X77746557Y-120924488D01*
X77847648Y-120940500D01*
X77847649Y-120940500D01*
X78052351Y-120940500D01*
X78052352Y-120940500D01*
X78254534Y-120908477D01*
X78449219Y-120845220D01*
X78631610Y-120752287D01*
X78724590Y-120684732D01*
X78797213Y-120631971D01*
X78797215Y-120631968D01*
X78797219Y-120631966D01*
X78941966Y-120487219D01*
X78941968Y-120487215D01*
X78941971Y-120487213D01*
X79023301Y-120375270D01*
X79062287Y-120321610D01*
X79155220Y-120139219D01*
X79218477Y-119944534D01*
X79250500Y-119742352D01*
X79250500Y-119537648D01*
X84269500Y-119537648D01*
X84269500Y-119742351D01*
X84301522Y-119944534D01*
X84364781Y-120139223D01*
X84416385Y-120240500D01*
X84443131Y-120292992D01*
X84457715Y-120321613D01*
X84578028Y-120487213D01*
X84722786Y-120631971D01*
X84877749Y-120744556D01*
X84888390Y-120752287D01*
X84977901Y-120797895D01*
X85070776Y-120845218D01*
X85070778Y-120845218D01*
X85070781Y-120845220D01*
X85175137Y-120879127D01*
X85265465Y-120908477D01*
X85366557Y-120924488D01*
X85467648Y-120940500D01*
X85467649Y-120940500D01*
X85672351Y-120940500D01*
X85672352Y-120940500D01*
X85874534Y-120908477D01*
X86069219Y-120845220D01*
X86251610Y-120752287D01*
X86344590Y-120684732D01*
X86417213Y-120631971D01*
X86417215Y-120631968D01*
X86417219Y-120631966D01*
X86561966Y-120487219D01*
X86561968Y-120487215D01*
X86561971Y-120487213D01*
X86682284Y-120321614D01*
X86682285Y-120321613D01*
X86682287Y-120321610D01*
X86689117Y-120308204D01*
X86737091Y-120257409D01*
X86799602Y-120240500D01*
X90203711Y-120240500D01*
X90270750Y-120260185D01*
X90304028Y-120291614D01*
X90325824Y-120321614D01*
X90391754Y-120412361D01*
X90547636Y-120568243D01*
X90547641Y-120568247D01*
X90703192Y-120681260D01*
X90725978Y-120697815D01*
X90842501Y-120757187D01*
X90922393Y-120797895D01*
X90922396Y-120797896D01*
X91027221Y-120831955D01*
X91132049Y-120866015D01*
X91349778Y-120900500D01*
X91349779Y-120900500D01*
X91570221Y-120900500D01*
X91570222Y-120900500D01*
X91787951Y-120866015D01*
X91997606Y-120797895D01*
X92194022Y-120697815D01*
X92372365Y-120568242D01*
X92422924Y-120517682D01*
X92484245Y-120484198D01*
X92553936Y-120489182D01*
X92609870Y-120531053D01*
X92626786Y-120562030D01*
X92656646Y-120642087D01*
X92656649Y-120642093D01*
X92742809Y-120757187D01*
X92742812Y-120757190D01*
X92857906Y-120843350D01*
X92857913Y-120843354D01*
X92992620Y-120893596D01*
X92992627Y-120893598D01*
X93052155Y-120899999D01*
X93052172Y-120900000D01*
X93750000Y-120900000D01*
X93750000Y-119875277D01*
X93826306Y-119919333D01*
X93940756Y-119950000D01*
X94059244Y-119950000D01*
X94173694Y-119919333D01*
X94250000Y-119875277D01*
X94250000Y-120900000D01*
X94947828Y-120900000D01*
X94947844Y-120899999D01*
X95007372Y-120893598D01*
X95007379Y-120893596D01*
X95142086Y-120843354D01*
X95142093Y-120843350D01*
X95257187Y-120757190D01*
X95257190Y-120757187D01*
X95343350Y-120642093D01*
X95343354Y-120642086D01*
X95393596Y-120507379D01*
X95393598Y-120507372D01*
X95399999Y-120447844D01*
X95400000Y-120447827D01*
X95400000Y-119750000D01*
X94375278Y-119750000D01*
X94419333Y-119673694D01*
X94450000Y-119559244D01*
X94450000Y-119440756D01*
X94419333Y-119326306D01*
X94375278Y-119250000D01*
X95400000Y-119250000D01*
X95400000Y-118552172D01*
X95399999Y-118552155D01*
X95393598Y-118492627D01*
X95393596Y-118492620D01*
X95343354Y-118357913D01*
X95343350Y-118357906D01*
X95257190Y-118242812D01*
X95257187Y-118242809D01*
X95142093Y-118156649D01*
X95142086Y-118156645D01*
X95007379Y-118106403D01*
X95007372Y-118106401D01*
X94947844Y-118100000D01*
X94250000Y-118100000D01*
X94250000Y-119124722D01*
X94173694Y-119080667D01*
X94059244Y-119050000D01*
X93940756Y-119050000D01*
X93826306Y-119080667D01*
X93750000Y-119124722D01*
X93750000Y-118100000D01*
X93052155Y-118100000D01*
X92992627Y-118106401D01*
X92992620Y-118106403D01*
X92857913Y-118156645D01*
X92857906Y-118156649D01*
X92742812Y-118242809D01*
X92742809Y-118242812D01*
X92656649Y-118357906D01*
X92656643Y-118357918D01*
X92626785Y-118437969D01*
X92584914Y-118493903D01*
X92519449Y-118518319D01*
X92451176Y-118503467D01*
X92422923Y-118482316D01*
X92372363Y-118431756D01*
X92372358Y-118431752D01*
X92194025Y-118302187D01*
X92194024Y-118302186D01*
X92194022Y-118302185D01*
X92131096Y-118270122D01*
X91997606Y-118202104D01*
X91997603Y-118202103D01*
X91787952Y-118133985D01*
X91679086Y-118116742D01*
X91570222Y-118099500D01*
X91349778Y-118099500D01*
X91277201Y-118110995D01*
X91132047Y-118133985D01*
X90922396Y-118202103D01*
X90922393Y-118202104D01*
X90725974Y-118302187D01*
X90547641Y-118431752D01*
X90547636Y-118431756D01*
X90391756Y-118587636D01*
X90391752Y-118587641D01*
X90262187Y-118765974D01*
X90162100Y-118962403D01*
X90161872Y-118962954D01*
X90161729Y-118963131D01*
X90159893Y-118966735D01*
X90159135Y-118966349D01*
X90118031Y-119017357D01*
X90051736Y-119039421D01*
X90047312Y-119039500D01*
X86799602Y-119039500D01*
X86732563Y-119019815D01*
X86689117Y-118971795D01*
X86686342Y-118966349D01*
X86682287Y-118958390D01*
X86682285Y-118958387D01*
X86682284Y-118958385D01*
X86561971Y-118792786D01*
X86417213Y-118648028D01*
X86251613Y-118527715D01*
X86251612Y-118527714D01*
X86251610Y-118527713D01*
X86194653Y-118498691D01*
X86069223Y-118434781D01*
X85874534Y-118371522D01*
X85699995Y-118343878D01*
X85672352Y-118339500D01*
X85467648Y-118339500D01*
X85443329Y-118343351D01*
X85265465Y-118371522D01*
X85070776Y-118434781D01*
X84888386Y-118527715D01*
X84722786Y-118648028D01*
X84578028Y-118792786D01*
X84457715Y-118958386D01*
X84364781Y-119140776D01*
X84301522Y-119335465D01*
X84269500Y-119537648D01*
X79250500Y-119537648D01*
X79227393Y-119391756D01*
X79218477Y-119335465D01*
X79172568Y-119194174D01*
X79155220Y-119140781D01*
X79155218Y-119140778D01*
X79155218Y-119140776D01*
X79109849Y-119051736D01*
X79062287Y-118958390D01*
X79024548Y-118906446D01*
X78941971Y-118792786D01*
X78797213Y-118648028D01*
X78631613Y-118527715D01*
X78631612Y-118527714D01*
X78631610Y-118527713D01*
X78574653Y-118498691D01*
X78449223Y-118434781D01*
X78254534Y-118371522D01*
X78079995Y-118343878D01*
X78052352Y-118339500D01*
X77847648Y-118339500D01*
X77823329Y-118343351D01*
X77645465Y-118371522D01*
X77450776Y-118434781D01*
X77268386Y-118527715D01*
X77102786Y-118648028D01*
X76958028Y-118792786D01*
X76837715Y-118958385D01*
X76830883Y-118971795D01*
X76782909Y-119022591D01*
X76720398Y-119039500D01*
X74780940Y-119039500D01*
X74742617Y-119049768D01*
X74742618Y-119049769D01*
X74628214Y-119080423D01*
X74628209Y-119080426D01*
X74491290Y-119159475D01*
X74491282Y-119159481D01*
X74379478Y-119271286D01*
X70787584Y-122863181D01*
X70726261Y-122896666D01*
X70699903Y-122899500D01*
X44728364Y-122899500D01*
X44689820Y-122891834D01*
X44689635Y-122892527D01*
X44681786Y-122890424D01*
X44681785Y-122890423D01*
X44529057Y-122849499D01*
X44370943Y-122849499D01*
X44363347Y-122849499D01*
X44363331Y-122849500D01*
X41575097Y-122849500D01*
X41508058Y-122829815D01*
X41487416Y-122813181D01*
X41216819Y-122542584D01*
X41183334Y-122481261D01*
X41180500Y-122454903D01*
X41180500Y-120545718D01*
X41200185Y-120478679D01*
X41248207Y-120435233D01*
X41287815Y-120415052D01*
X41287815Y-120415051D01*
X41287816Y-120415051D01*
X41416422Y-120321614D01*
X41459786Y-120290109D01*
X41459788Y-120290106D01*
X41459792Y-120290104D01*
X41610104Y-120139792D01*
X41610106Y-120139788D01*
X41610109Y-120139786D01*
X41735048Y-119967820D01*
X41735050Y-119967817D01*
X41735051Y-119967816D01*
X41739514Y-119959054D01*
X41787488Y-119908259D01*
X41855308Y-119891463D01*
X41921444Y-119913999D01*
X41960486Y-119959056D01*
X41964951Y-119967820D01*
X42089890Y-120139786D01*
X42240213Y-120290109D01*
X42412179Y-120415048D01*
X42412181Y-120415049D01*
X42412184Y-120415051D01*
X42601588Y-120511557D01*
X42803757Y-120577246D01*
X43013713Y-120610500D01*
X43013714Y-120610500D01*
X43226286Y-120610500D01*
X43226287Y-120610500D01*
X43436243Y-120577246D01*
X43638412Y-120511557D01*
X43827816Y-120415051D01*
X43914138Y-120352335D01*
X43999786Y-120290109D01*
X43999788Y-120290106D01*
X43999792Y-120290104D01*
X44150104Y-120139792D01*
X44150106Y-120139788D01*
X44150109Y-120139786D01*
X44275048Y-119967820D01*
X44275050Y-119967817D01*
X44275051Y-119967816D01*
X44279514Y-119959054D01*
X44327488Y-119908259D01*
X44395308Y-119891463D01*
X44461444Y-119913999D01*
X44500486Y-119959056D01*
X44504951Y-119967820D01*
X44629890Y-120139786D01*
X44780213Y-120290109D01*
X44952179Y-120415048D01*
X44952181Y-120415049D01*
X44952184Y-120415051D01*
X45141588Y-120511557D01*
X45343757Y-120577246D01*
X45553713Y-120610500D01*
X45553714Y-120610500D01*
X45766286Y-120610500D01*
X45766287Y-120610500D01*
X45976243Y-120577246D01*
X46178412Y-120511557D01*
X46367816Y-120415051D01*
X46454138Y-120352335D01*
X46539786Y-120290109D01*
X46539788Y-120290106D01*
X46539792Y-120290104D01*
X46690104Y-120139792D01*
X46690106Y-120139788D01*
X46690109Y-120139786D01*
X46815048Y-119967820D01*
X46815050Y-119967817D01*
X46815051Y-119967816D01*
X46819514Y-119959054D01*
X46867488Y-119908259D01*
X46935308Y-119891463D01*
X47001444Y-119913999D01*
X47040486Y-119959056D01*
X47044951Y-119967820D01*
X47169890Y-120139786D01*
X47320213Y-120290109D01*
X47492179Y-120415048D01*
X47492181Y-120415049D01*
X47492184Y-120415051D01*
X47681588Y-120511557D01*
X47883757Y-120577246D01*
X48093713Y-120610500D01*
X48093714Y-120610500D01*
X48306286Y-120610500D01*
X48306287Y-120610500D01*
X48516243Y-120577246D01*
X48718412Y-120511557D01*
X48907816Y-120415051D01*
X48994138Y-120352335D01*
X49079786Y-120290109D01*
X49079788Y-120290106D01*
X49079792Y-120290104D01*
X49230104Y-120139792D01*
X49230106Y-120139788D01*
X49230109Y-120139786D01*
X49355048Y-119967820D01*
X49355050Y-119967817D01*
X49355051Y-119967816D01*
X49359514Y-119959054D01*
X49407488Y-119908259D01*
X49475308Y-119891463D01*
X49541444Y-119913999D01*
X49580486Y-119959056D01*
X49584951Y-119967820D01*
X49709890Y-120139786D01*
X49860213Y-120290109D01*
X50032179Y-120415048D01*
X50032181Y-120415049D01*
X50032184Y-120415051D01*
X50221588Y-120511557D01*
X50423757Y-120577246D01*
X50633713Y-120610500D01*
X50633714Y-120610500D01*
X50846286Y-120610500D01*
X50846287Y-120610500D01*
X51056243Y-120577246D01*
X51258412Y-120511557D01*
X51447816Y-120415051D01*
X51534138Y-120352335D01*
X51619786Y-120290109D01*
X51619788Y-120290106D01*
X51619792Y-120290104D01*
X51770104Y-120139792D01*
X51770106Y-120139788D01*
X51770109Y-120139786D01*
X51895048Y-119967820D01*
X51895050Y-119967817D01*
X51895051Y-119967816D01*
X51899514Y-119959054D01*
X51947488Y-119908259D01*
X52015308Y-119891463D01*
X52081444Y-119913999D01*
X52120486Y-119959056D01*
X52124951Y-119967820D01*
X52249890Y-120139786D01*
X52400213Y-120290109D01*
X52572179Y-120415048D01*
X52572181Y-120415049D01*
X52572184Y-120415051D01*
X52761588Y-120511557D01*
X52963757Y-120577246D01*
X53173713Y-120610500D01*
X53173714Y-120610500D01*
X53386286Y-120610500D01*
X53386287Y-120610500D01*
X53596243Y-120577246D01*
X53798412Y-120511557D01*
X53987816Y-120415051D01*
X54074138Y-120352335D01*
X54159786Y-120290109D01*
X54159788Y-120290106D01*
X54159792Y-120290104D01*
X54310104Y-120139792D01*
X54310106Y-120139788D01*
X54310109Y-120139786D01*
X54435048Y-119967820D01*
X54435050Y-119967817D01*
X54435051Y-119967816D01*
X54439514Y-119959054D01*
X54487488Y-119908259D01*
X54555308Y-119891463D01*
X54621444Y-119913999D01*
X54660486Y-119959056D01*
X54664951Y-119967820D01*
X54789890Y-120139786D01*
X54940213Y-120290109D01*
X55112179Y-120415048D01*
X55112181Y-120415049D01*
X55112184Y-120415051D01*
X55301588Y-120511557D01*
X55503757Y-120577246D01*
X55713713Y-120610500D01*
X55713714Y-120610500D01*
X55926286Y-120610500D01*
X55926287Y-120610500D01*
X56136243Y-120577246D01*
X56338412Y-120511557D01*
X56527816Y-120415051D01*
X56614138Y-120352335D01*
X56699786Y-120290109D01*
X56699788Y-120290106D01*
X56699792Y-120290104D01*
X56850104Y-120139792D01*
X56850106Y-120139788D01*
X56850109Y-120139786D01*
X56975048Y-119967820D01*
X56975050Y-119967817D01*
X56975051Y-119967816D01*
X56979514Y-119959054D01*
X57027488Y-119908259D01*
X57095308Y-119891463D01*
X57161444Y-119913999D01*
X57200486Y-119959056D01*
X57204951Y-119967820D01*
X57329890Y-120139786D01*
X57480213Y-120290109D01*
X57652179Y-120415048D01*
X57652181Y-120415049D01*
X57652184Y-120415051D01*
X57841588Y-120511557D01*
X58043757Y-120577246D01*
X58253713Y-120610500D01*
X58253714Y-120610500D01*
X58466286Y-120610500D01*
X58466287Y-120610500D01*
X58676243Y-120577246D01*
X58878412Y-120511557D01*
X59067816Y-120415051D01*
X59154138Y-120352335D01*
X59239786Y-120290109D01*
X59239788Y-120290106D01*
X59239792Y-120290104D01*
X59390104Y-120139792D01*
X59390106Y-120139788D01*
X59390109Y-120139786D01*
X59515048Y-119967820D01*
X59515050Y-119967817D01*
X59515051Y-119967816D01*
X59611557Y-119778412D01*
X59677246Y-119576243D01*
X59710500Y-119366287D01*
X59710500Y-119153713D01*
X59677246Y-118943757D01*
X59611557Y-118741588D01*
X59515051Y-118552184D01*
X59515049Y-118552181D01*
X59515048Y-118552179D01*
X59390109Y-118380213D01*
X59239786Y-118229890D01*
X59067820Y-118104951D01*
X58878414Y-118008444D01*
X58878413Y-118008443D01*
X58878412Y-118008443D01*
X58676243Y-117942754D01*
X58676241Y-117942753D01*
X58676240Y-117942753D01*
X58514957Y-117917208D01*
X58466287Y-117909500D01*
X58253713Y-117909500D01*
X58205042Y-117917208D01*
X58043760Y-117942753D01*
X57841585Y-118008444D01*
X57652179Y-118104951D01*
X57480213Y-118229890D01*
X57329890Y-118380213D01*
X57204949Y-118552182D01*
X57200484Y-118560946D01*
X57152509Y-118611742D01*
X57084688Y-118628536D01*
X57018553Y-118605998D01*
X56979516Y-118560946D01*
X56975050Y-118552182D01*
X56850109Y-118380213D01*
X56699786Y-118229890D01*
X56527820Y-118104951D01*
X56338414Y-118008444D01*
X56338413Y-118008443D01*
X56338412Y-118008443D01*
X56136243Y-117942754D01*
X56136241Y-117942753D01*
X56136240Y-117942753D01*
X55974957Y-117917208D01*
X55926287Y-117909500D01*
X55713713Y-117909500D01*
X55665042Y-117917208D01*
X55503760Y-117942753D01*
X55301585Y-118008444D01*
X55112179Y-118104951D01*
X54940213Y-118229890D01*
X54789890Y-118380213D01*
X54664949Y-118552182D01*
X54660484Y-118560946D01*
X54612509Y-118611742D01*
X54544688Y-118628536D01*
X54478553Y-118605998D01*
X54439516Y-118560946D01*
X54435050Y-118552182D01*
X54310109Y-118380213D01*
X54159786Y-118229890D01*
X53987820Y-118104951D01*
X53798414Y-118008444D01*
X53798413Y-118008443D01*
X53798412Y-118008443D01*
X53596243Y-117942754D01*
X53596241Y-117942753D01*
X53596240Y-117942753D01*
X53434957Y-117917208D01*
X53386287Y-117909500D01*
X53173713Y-117909500D01*
X53125042Y-117917208D01*
X52963760Y-117942753D01*
X52761585Y-118008444D01*
X52572179Y-118104951D01*
X52400213Y-118229890D01*
X52249890Y-118380213D01*
X52124949Y-118552182D01*
X52120484Y-118560946D01*
X52072509Y-118611742D01*
X52004688Y-118628536D01*
X51938553Y-118605998D01*
X51899516Y-118560946D01*
X51895050Y-118552182D01*
X51770109Y-118380213D01*
X51619786Y-118229890D01*
X51447820Y-118104951D01*
X51258414Y-118008444D01*
X51258413Y-118008443D01*
X51258412Y-118008443D01*
X51056243Y-117942754D01*
X51056241Y-117942753D01*
X51056240Y-117942753D01*
X50894957Y-117917208D01*
X50846287Y-117909500D01*
X50633713Y-117909500D01*
X50585042Y-117917208D01*
X50423760Y-117942753D01*
X50221585Y-118008444D01*
X50032179Y-118104951D01*
X49860213Y-118229890D01*
X49709890Y-118380213D01*
X49584949Y-118552182D01*
X49580484Y-118560946D01*
X49532509Y-118611742D01*
X49464688Y-118628536D01*
X49398553Y-118605998D01*
X49359516Y-118560946D01*
X49355050Y-118552182D01*
X49230109Y-118380213D01*
X49079786Y-118229890D01*
X48907820Y-118104951D01*
X48718414Y-118008444D01*
X48718413Y-118008443D01*
X48718412Y-118008443D01*
X48516243Y-117942754D01*
X48516241Y-117942753D01*
X48516240Y-117942753D01*
X48354957Y-117917208D01*
X48306287Y-117909500D01*
X48093713Y-117909500D01*
X48045042Y-117917208D01*
X47883760Y-117942753D01*
X47681585Y-118008444D01*
X47492179Y-118104951D01*
X47320213Y-118229890D01*
X47169890Y-118380213D01*
X47044949Y-118552182D01*
X47040484Y-118560946D01*
X46992509Y-118611742D01*
X46924688Y-118628536D01*
X46858553Y-118605998D01*
X46819516Y-118560946D01*
X46815050Y-118552182D01*
X46690109Y-118380213D01*
X46539786Y-118229890D01*
X46367820Y-118104951D01*
X46178414Y-118008444D01*
X46178413Y-118008443D01*
X46178412Y-118008443D01*
X45976243Y-117942754D01*
X45976241Y-117942753D01*
X45976240Y-117942753D01*
X45814957Y-117917208D01*
X45766287Y-117909500D01*
X45553713Y-117909500D01*
X45505042Y-117917208D01*
X45343760Y-117942753D01*
X45141585Y-118008444D01*
X44952179Y-118104951D01*
X44780213Y-118229890D01*
X44629890Y-118380213D01*
X44504949Y-118552182D01*
X44500484Y-118560946D01*
X44452509Y-118611742D01*
X44384688Y-118628536D01*
X44318553Y-118605998D01*
X44279516Y-118560946D01*
X44275050Y-118552182D01*
X44150109Y-118380213D01*
X43999786Y-118229890D01*
X43827820Y-118104951D01*
X43638414Y-118008444D01*
X43638413Y-118008443D01*
X43638412Y-118008443D01*
X43436243Y-117942754D01*
X43436241Y-117942753D01*
X43436240Y-117942753D01*
X43274957Y-117917208D01*
X43226287Y-117909500D01*
X43013713Y-117909500D01*
X42965042Y-117917208D01*
X42803760Y-117942753D01*
X42601585Y-118008444D01*
X42412179Y-118104951D01*
X42240213Y-118229890D01*
X42089890Y-118380213D01*
X41964949Y-118552182D01*
X41960484Y-118560946D01*
X41912509Y-118611742D01*
X41844688Y-118628536D01*
X41778553Y-118605998D01*
X41739516Y-118560946D01*
X41735050Y-118552182D01*
X41610109Y-118380213D01*
X41459786Y-118229890D01*
X41287820Y-118104951D01*
X41098414Y-118008444D01*
X41098413Y-118008443D01*
X41098412Y-118008443D01*
X40896243Y-117942754D01*
X40896241Y-117942753D01*
X40896240Y-117942753D01*
X40734957Y-117917208D01*
X40686287Y-117909500D01*
X40473713Y-117909500D01*
X40425042Y-117917208D01*
X40263760Y-117942753D01*
X40061585Y-118008444D01*
X39872179Y-118104951D01*
X39700213Y-118229890D01*
X39549890Y-118380213D01*
X39424949Y-118552182D01*
X39420484Y-118560946D01*
X39372509Y-118611742D01*
X39304688Y-118628536D01*
X39238553Y-118605998D01*
X39199516Y-118560946D01*
X39195050Y-118552182D01*
X39070109Y-118380213D01*
X38919786Y-118229890D01*
X38747820Y-118104951D01*
X38558414Y-118008444D01*
X38558413Y-118008443D01*
X38558412Y-118008443D01*
X38356243Y-117942754D01*
X38356241Y-117942753D01*
X38356240Y-117942753D01*
X38194957Y-117917208D01*
X38146287Y-117909500D01*
X37933713Y-117909500D01*
X37885042Y-117917208D01*
X37723760Y-117942753D01*
X37521585Y-118008444D01*
X37332179Y-118104951D01*
X37160213Y-118229890D01*
X37009890Y-118380213D01*
X36884949Y-118552182D01*
X36880484Y-118560946D01*
X36832509Y-118611742D01*
X36764688Y-118628536D01*
X36698553Y-118605998D01*
X36659516Y-118560946D01*
X36655050Y-118552182D01*
X36530109Y-118380213D01*
X36379786Y-118229890D01*
X36207820Y-118104951D01*
X36018414Y-118008444D01*
X36018413Y-118008443D01*
X36018412Y-118008443D01*
X35816243Y-117942754D01*
X35816241Y-117942753D01*
X35816240Y-117942753D01*
X35654957Y-117917208D01*
X35606287Y-117909500D01*
X35393713Y-117909500D01*
X35345042Y-117917208D01*
X35183760Y-117942753D01*
X34981585Y-118008444D01*
X34792179Y-118104951D01*
X34620213Y-118229890D01*
X34469890Y-118380213D01*
X34344949Y-118552182D01*
X34340484Y-118560946D01*
X34292509Y-118611742D01*
X34224688Y-118628536D01*
X34158553Y-118605998D01*
X34119516Y-118560946D01*
X34115050Y-118552182D01*
X33990109Y-118380213D01*
X33839786Y-118229890D01*
X33667820Y-118104951D01*
X33478414Y-118008444D01*
X33478413Y-118008443D01*
X33478412Y-118008443D01*
X33276243Y-117942754D01*
X33276241Y-117942753D01*
X33276240Y-117942753D01*
X33114957Y-117917208D01*
X33066287Y-117909500D01*
X32919096Y-117909500D01*
X32852057Y-117889815D01*
X32806302Y-117837011D01*
X32796358Y-117767853D01*
X32825383Y-117704297D01*
X32831415Y-117697819D01*
X38078503Y-112450732D01*
X43392416Y-107136819D01*
X43453739Y-107103334D01*
X43480097Y-107100500D01*
X43920943Y-107100500D01*
X67913331Y-107100500D01*
X67913347Y-107100501D01*
X67920943Y-107100501D01*
X68079054Y-107100501D01*
X68079057Y-107100501D01*
X68231785Y-107059577D01*
X68281904Y-107030639D01*
X68368716Y-106980520D01*
X68480520Y-106868716D01*
X68480520Y-106868714D01*
X68490728Y-106858507D01*
X68490729Y-106858504D01*
X76499822Y-98849412D01*
X76561141Y-98815930D01*
X76630833Y-98820914D01*
X76675180Y-98849415D01*
X81690139Y-103864374D01*
X81690149Y-103864385D01*
X81694479Y-103868715D01*
X81694480Y-103868716D01*
X81806284Y-103980520D01*
X81893095Y-104030639D01*
X81893097Y-104030641D01*
X81943213Y-104059576D01*
X81943215Y-104059577D01*
X82095942Y-104100500D01*
X82095943Y-104100500D01*
X83270398Y-104100500D01*
X83337437Y-104120185D01*
X83380883Y-104168205D01*
X83387715Y-104181614D01*
X83508028Y-104347213D01*
X83652786Y-104491971D01*
X83773226Y-104579474D01*
X83818390Y-104612287D01*
X83934607Y-104671503D01*
X84000776Y-104705218D01*
X84000778Y-104705218D01*
X84000781Y-104705220D01*
X84105137Y-104739127D01*
X84195465Y-104768477D01*
X84296557Y-104784488D01*
X84397648Y-104800500D01*
X84397649Y-104800500D01*
X84602351Y-104800500D01*
X84602352Y-104800500D01*
X84804534Y-104768477D01*
X84999219Y-104705220D01*
X85181610Y-104612287D01*
X85274590Y-104544732D01*
X85347213Y-104491971D01*
X85347215Y-104491968D01*
X85347219Y-104491966D01*
X85491966Y-104347219D01*
X85491968Y-104347215D01*
X85491971Y-104347213D01*
X85544732Y-104274590D01*
X85612287Y-104181610D01*
X85705220Y-103999219D01*
X85768477Y-103804534D01*
X85800500Y-103602352D01*
X85800500Y-103397682D01*
X90820000Y-103397682D01*
X90820000Y-103602317D01*
X90852009Y-103804417D01*
X90915244Y-103999031D01*
X91008141Y-104181350D01*
X91008147Y-104181359D01*
X91040523Y-104225921D01*
X91040524Y-104225922D01*
X91720000Y-103546446D01*
X91720000Y-103552661D01*
X91747259Y-103654394D01*
X91799920Y-103745606D01*
X91874394Y-103820080D01*
X91965606Y-103872741D01*
X92067339Y-103900000D01*
X92073553Y-103900000D01*
X91394076Y-104579474D01*
X91438650Y-104611859D01*
X91620968Y-104704755D01*
X91815582Y-104767990D01*
X92017683Y-104800000D01*
X92222317Y-104800000D01*
X92424417Y-104767990D01*
X92619031Y-104704755D01*
X92801349Y-104611859D01*
X92845921Y-104579474D01*
X92166447Y-103900000D01*
X92172661Y-103900000D01*
X92274394Y-103872741D01*
X92365606Y-103820080D01*
X92440080Y-103745606D01*
X92492741Y-103654394D01*
X92520000Y-103552661D01*
X92520000Y-103546447D01*
X93199474Y-104225921D01*
X93231859Y-104181349D01*
X93324755Y-103999031D01*
X93387990Y-103804417D01*
X93420000Y-103602317D01*
X93420000Y-103397682D01*
X93387990Y-103195582D01*
X93324755Y-103000968D01*
X93231859Y-102818650D01*
X93199474Y-102774077D01*
X93199474Y-102774076D01*
X92520000Y-103453551D01*
X92520000Y-103447339D01*
X92492741Y-103345606D01*
X92440080Y-103254394D01*
X92365606Y-103179920D01*
X92274394Y-103127259D01*
X92172661Y-103100000D01*
X92166446Y-103100000D01*
X92845922Y-102420524D01*
X92845921Y-102420523D01*
X92801359Y-102388147D01*
X92801350Y-102388141D01*
X92619031Y-102295244D01*
X92424417Y-102232009D01*
X92222317Y-102200000D01*
X92017683Y-102200000D01*
X91815582Y-102232009D01*
X91620968Y-102295244D01*
X91438644Y-102388143D01*
X91394077Y-102420523D01*
X91394077Y-102420524D01*
X92073554Y-103100000D01*
X92067339Y-103100000D01*
X91965606Y-103127259D01*
X91874394Y-103179920D01*
X91799920Y-103254394D01*
X91747259Y-103345606D01*
X91720000Y-103447339D01*
X91720000Y-103453553D01*
X91040524Y-102774077D01*
X91040523Y-102774077D01*
X91008143Y-102818644D01*
X90915244Y-103000968D01*
X90852009Y-103195582D01*
X90820000Y-103397682D01*
X85800500Y-103397682D01*
X85800500Y-103397648D01*
X85792257Y-103345606D01*
X85768477Y-103195465D01*
X85724324Y-103059577D01*
X85705220Y-103000781D01*
X85705218Y-103000778D01*
X85705218Y-103000776D01*
X85671503Y-102934607D01*
X85612287Y-102818390D01*
X85580092Y-102774077D01*
X85491971Y-102652786D01*
X85347213Y-102508028D01*
X85181613Y-102387715D01*
X85181612Y-102387714D01*
X85181610Y-102387713D01*
X85124653Y-102358691D01*
X84999223Y-102294781D01*
X84804534Y-102231522D01*
X84629995Y-102203878D01*
X84602352Y-102199500D01*
X84397648Y-102199500D01*
X84373329Y-102203351D01*
X84195465Y-102231522D01*
X84000776Y-102294781D01*
X83818386Y-102387715D01*
X83652786Y-102508028D01*
X83508028Y-102652786D01*
X83387715Y-102818385D01*
X83380883Y-102831795D01*
X83332909Y-102882591D01*
X83270398Y-102899500D01*
X82475097Y-102899500D01*
X82408058Y-102879815D01*
X82387416Y-102863181D01*
X77524415Y-98000180D01*
X77490930Y-97938857D01*
X77495914Y-97869165D01*
X77524411Y-97824823D01*
X83358506Y-91990727D01*
X83358511Y-91990724D01*
X83368714Y-91980520D01*
X83368716Y-91980520D01*
X83480520Y-91868716D01*
X83559577Y-91731784D01*
X83600500Y-91579057D01*
X83600500Y-86039601D01*
X83620185Y-85972562D01*
X83668206Y-85929116D01*
X83681610Y-85922287D01*
X83847219Y-85801966D01*
X83991966Y-85657219D01*
X83991968Y-85657215D01*
X83991971Y-85657213D01*
X84044732Y-85584590D01*
X84112287Y-85491610D01*
X84205220Y-85309219D01*
X84268477Y-85114534D01*
X84300500Y-84912352D01*
X84300500Y-84707648D01*
X84268477Y-84505466D01*
X84205220Y-84310781D01*
X84205218Y-84310778D01*
X84205218Y-84310776D01*
X84171503Y-84244607D01*
X84112287Y-84128390D01*
X84104556Y-84117749D01*
X83991971Y-83962786D01*
X83843774Y-83814589D01*
X83844733Y-83813629D01*
X83809909Y-83760275D01*
X83809415Y-83690407D01*
X83846773Y-83631363D01*
X83910122Y-83601890D01*
X83928636Y-83600500D01*
X103919903Y-83600500D01*
X103986942Y-83620185D01*
X104007584Y-83636819D01*
X126526981Y-106156216D01*
X126560466Y-106217539D01*
X126561774Y-106263292D01*
X126559500Y-106277651D01*
X126559500Y-106482351D01*
X126591522Y-106684534D01*
X126654781Y-106879223D01*
X126718691Y-107004653D01*
X126746677Y-107059577D01*
X126747715Y-107061613D01*
X126868028Y-107227213D01*
X127012786Y-107371971D01*
X127167749Y-107484556D01*
X127178390Y-107492287D01*
X127294607Y-107551503D01*
X127360776Y-107585218D01*
X127360778Y-107585218D01*
X127360781Y-107585220D01*
X127465137Y-107619127D01*
X127555465Y-107648477D01*
X127656557Y-107664488D01*
X127757648Y-107680500D01*
X127757649Y-107680500D01*
X127962351Y-107680500D01*
X127962352Y-107680500D01*
X128164534Y-107648477D01*
X128359219Y-107585220D01*
X128541610Y-107492287D01*
X128634590Y-107424732D01*
X128707213Y-107371971D01*
X128707215Y-107371968D01*
X128707219Y-107371966D01*
X128851966Y-107227219D01*
X128851968Y-107227215D01*
X128851971Y-107227213D01*
X128944032Y-107100500D01*
X128972287Y-107061610D01*
X129065220Y-106879219D01*
X129128477Y-106684534D01*
X129160500Y-106482352D01*
X129160500Y-106277648D01*
X129128477Y-106075466D01*
X129110284Y-106019475D01*
X129099127Y-105985137D01*
X129065220Y-105880781D01*
X129065218Y-105880778D01*
X129065218Y-105880776D01*
X129031503Y-105814607D01*
X128972287Y-105698390D01*
X128964556Y-105687749D01*
X128851971Y-105532786D01*
X128707213Y-105388028D01*
X128541613Y-105267715D01*
X128541612Y-105267714D01*
X128541610Y-105267713D01*
X128484653Y-105238691D01*
X128359223Y-105174781D01*
X128164534Y-105111522D01*
X127989995Y-105083878D01*
X127962352Y-105079500D01*
X127757648Y-105079500D01*
X127690254Y-105090174D01*
X127555464Y-105111523D01*
X127555461Y-105111523D01*
X127360782Y-105174779D01*
X127356283Y-105176643D01*
X127355536Y-105174840D01*
X127294958Y-105186181D01*
X127230233Y-105159866D01*
X127219724Y-105150488D01*
X104707590Y-82638355D01*
X104707588Y-82638352D01*
X104588717Y-82519481D01*
X104588716Y-82519480D01*
X104501904Y-82469360D01*
X104501904Y-82469359D01*
X104501900Y-82469358D01*
X104451785Y-82440423D01*
X104299057Y-82399499D01*
X104140943Y-82399499D01*
X104133347Y-82399499D01*
X104133331Y-82399500D01*
X75800097Y-82399500D01*
X75733058Y-82379815D01*
X75712416Y-82363181D01*
X67916819Y-74567584D01*
X67883334Y-74506261D01*
X67880500Y-74479903D01*
X67880500Y-71489601D01*
X67900185Y-71422562D01*
X67948206Y-71379116D01*
X67961610Y-71372287D01*
X68127219Y-71251966D01*
X68271966Y-71107219D01*
X68271968Y-71107215D01*
X68271971Y-71107213D01*
X68392284Y-70941614D01*
X68392286Y-70941611D01*
X68392287Y-70941610D01*
X68439516Y-70848917D01*
X68487489Y-70798123D01*
X68555310Y-70781328D01*
X68621445Y-70803865D01*
X68660485Y-70848919D01*
X68707715Y-70941614D01*
X68828028Y-71107213D01*
X68828034Y-71107219D01*
X68972781Y-71251966D01*
X69138390Y-71372287D01*
X69151793Y-71379116D01*
X69202589Y-71427088D01*
X69219500Y-71489601D01*
X69219500Y-73733330D01*
X69219499Y-73733348D01*
X69219499Y-73899054D01*
X69219498Y-73899054D01*
X69219499Y-73899057D01*
X69260423Y-74051785D01*
X69288549Y-74100500D01*
X69289358Y-74101900D01*
X69289359Y-74101904D01*
X69289360Y-74101904D01*
X69339479Y-74188714D01*
X69339481Y-74188717D01*
X69458349Y-74307585D01*
X69458355Y-74307590D01*
X75015139Y-79864374D01*
X75015149Y-79864385D01*
X75019479Y-79868715D01*
X75019480Y-79868716D01*
X75131284Y-79980520D01*
X75218095Y-80030639D01*
X75218097Y-80030641D01*
X75256151Y-80052611D01*
X75268215Y-80059577D01*
X75420943Y-80100501D01*
X75420946Y-80100501D01*
X75586653Y-80100501D01*
X75586669Y-80100500D01*
X125199903Y-80100500D01*
X125266942Y-80120185D01*
X125287584Y-80136819D01*
X149223181Y-104072416D01*
X149256666Y-104133739D01*
X149259500Y-104160097D01*
X149259500Y-105150397D01*
X149239815Y-105217436D01*
X149191800Y-105260879D01*
X149178389Y-105267712D01*
X149012786Y-105388028D01*
X148868028Y-105532786D01*
X148747715Y-105698386D01*
X148654781Y-105880776D01*
X148591522Y-106075465D01*
X148559500Y-106277648D01*
X148559500Y-106482351D01*
X148591522Y-106684534D01*
X148654781Y-106879223D01*
X148718691Y-107004653D01*
X148746677Y-107059577D01*
X148747715Y-107061613D01*
X148868028Y-107227213D01*
X149012786Y-107371971D01*
X149167749Y-107484556D01*
X149178390Y-107492287D01*
X149294607Y-107551503D01*
X149360776Y-107585218D01*
X149360778Y-107585218D01*
X149360781Y-107585220D01*
X149465137Y-107619127D01*
X149555465Y-107648477D01*
X149656557Y-107664488D01*
X149757648Y-107680500D01*
X149757649Y-107680500D01*
X149962351Y-107680500D01*
X149962352Y-107680500D01*
X150164534Y-107648477D01*
X150359219Y-107585220D01*
X150541610Y-107492287D01*
X150634590Y-107424732D01*
X150707213Y-107371971D01*
X150707215Y-107371968D01*
X150707219Y-107371966D01*
X150851966Y-107227219D01*
X150851968Y-107227215D01*
X150851971Y-107227213D01*
X150944032Y-107100500D01*
X150972287Y-107061610D01*
X151065220Y-106879219D01*
X151128477Y-106684534D01*
X151160500Y-106482352D01*
X151160500Y-106277648D01*
X151128477Y-106075466D01*
X151110284Y-106019475D01*
X151099127Y-105985137D01*
X151065220Y-105880781D01*
X151065218Y-105880778D01*
X151065218Y-105880776D01*
X151031503Y-105814607D01*
X150972287Y-105698390D01*
X150964556Y-105687749D01*
X150851971Y-105532786D01*
X150707213Y-105388028D01*
X150541610Y-105267712D01*
X150528200Y-105260879D01*
X150477406Y-105212903D01*
X150460500Y-105150397D01*
X150460500Y-103780945D01*
X150460500Y-103780943D01*
X150419577Y-103628216D01*
X150375956Y-103552661D01*
X150340524Y-103491290D01*
X150340521Y-103491286D01*
X150340520Y-103491284D01*
X150228716Y-103379480D01*
X150228715Y-103379479D01*
X150224385Y-103375149D01*
X150224374Y-103375139D01*
X125987590Y-79138355D01*
X125987588Y-79138352D01*
X125868717Y-79019481D01*
X125868716Y-79019480D01*
X125781904Y-78969360D01*
X125781904Y-78969359D01*
X125781900Y-78969358D01*
X125731785Y-78940423D01*
X125579057Y-78899499D01*
X125420943Y-78899499D01*
X125413347Y-78899499D01*
X125413331Y-78899500D01*
X75800097Y-78899500D01*
X75733058Y-78879815D01*
X75712416Y-78863181D01*
X70456819Y-73607584D01*
X70423334Y-73546261D01*
X70420500Y-73519903D01*
X70420500Y-71489601D01*
X70440185Y-71422562D01*
X70488206Y-71379116D01*
X70501610Y-71372287D01*
X70667219Y-71251966D01*
X70811966Y-71107219D01*
X70811968Y-71107215D01*
X70811971Y-71107213D01*
X70932284Y-70941614D01*
X70932286Y-70941611D01*
X70932287Y-70941610D01*
X70979516Y-70848917D01*
X71027489Y-70798123D01*
X71095310Y-70781328D01*
X71161445Y-70803865D01*
X71200485Y-70848919D01*
X71247715Y-70941614D01*
X71368028Y-71107213D01*
X71512786Y-71251971D01*
X71616072Y-71327011D01*
X71678390Y-71372287D01*
X71758125Y-71412914D01*
X71860776Y-71465218D01*
X71860778Y-71465218D01*
X71860781Y-71465220D01*
X71935818Y-71489601D01*
X72055465Y-71528477D01*
X72134885Y-71541056D01*
X72257648Y-71560500D01*
X72257649Y-71560500D01*
X72462351Y-71560500D01*
X72462352Y-71560500D01*
X72664534Y-71528477D01*
X72859219Y-71465220D01*
X73041610Y-71372287D01*
X73134590Y-71304732D01*
X73207213Y-71251971D01*
X73207215Y-71251968D01*
X73207219Y-71251966D01*
X73351966Y-71107219D01*
X73351968Y-71107215D01*
X73351971Y-71107213D01*
X73472284Y-70941614D01*
X73472286Y-70941611D01*
X73472287Y-70941610D01*
X73519516Y-70848917D01*
X73567489Y-70798123D01*
X73635310Y-70781328D01*
X73701445Y-70803865D01*
X73740485Y-70848919D01*
X73787715Y-70941614D01*
X73908028Y-71107213D01*
X74052786Y-71251971D01*
X74156072Y-71327011D01*
X74218390Y-71372287D01*
X74298125Y-71412914D01*
X74400776Y-71465218D01*
X74400778Y-71465218D01*
X74400781Y-71465220D01*
X74475818Y-71489601D01*
X74595465Y-71528477D01*
X74674885Y-71541056D01*
X74797648Y-71560500D01*
X74797649Y-71560500D01*
X75002351Y-71560500D01*
X75002352Y-71560500D01*
X75204534Y-71528477D01*
X75399219Y-71465220D01*
X75581610Y-71372287D01*
X75674590Y-71304732D01*
X75747213Y-71251971D01*
X75747215Y-71251968D01*
X75747219Y-71251966D01*
X75891966Y-71107219D01*
X75891968Y-71107215D01*
X75891971Y-71107213D01*
X76012284Y-70941614D01*
X76012286Y-70941611D01*
X76012287Y-70941610D01*
X76059516Y-70848917D01*
X76107489Y-70798123D01*
X76175310Y-70781328D01*
X76241445Y-70803865D01*
X76280485Y-70848919D01*
X76327715Y-70941614D01*
X76448028Y-71107213D01*
X76592786Y-71251971D01*
X76696072Y-71327011D01*
X76758390Y-71372287D01*
X76838125Y-71412914D01*
X76940776Y-71465218D01*
X76940778Y-71465218D01*
X76940781Y-71465220D01*
X77015818Y-71489601D01*
X77135465Y-71528477D01*
X77214885Y-71541056D01*
X77337648Y-71560500D01*
X77337649Y-71560500D01*
X77542351Y-71560500D01*
X77542352Y-71560500D01*
X77744534Y-71528477D01*
X77939219Y-71465220D01*
X78121610Y-71372287D01*
X78214590Y-71304732D01*
X78287213Y-71251971D01*
X78287215Y-71251968D01*
X78287219Y-71251966D01*
X78431966Y-71107219D01*
X78431968Y-71107215D01*
X78431971Y-71107213D01*
X78552284Y-70941614D01*
X78552286Y-70941611D01*
X78552287Y-70941610D01*
X78599516Y-70848917D01*
X78647489Y-70798123D01*
X78715310Y-70781328D01*
X78781445Y-70803865D01*
X78820485Y-70848919D01*
X78867715Y-70941614D01*
X78988028Y-71107213D01*
X79132786Y-71251971D01*
X79236072Y-71327011D01*
X79298390Y-71372287D01*
X79378125Y-71412914D01*
X79480776Y-71465218D01*
X79480778Y-71465218D01*
X79480781Y-71465220D01*
X79555818Y-71489601D01*
X79675465Y-71528477D01*
X79754885Y-71541056D01*
X79877648Y-71560500D01*
X79877649Y-71560500D01*
X80082351Y-71560500D01*
X80082352Y-71560500D01*
X80284534Y-71528477D01*
X80479219Y-71465220D01*
X80661610Y-71372287D01*
X80754590Y-71304732D01*
X80827213Y-71251971D01*
X80827215Y-71251968D01*
X80827219Y-71251966D01*
X80971966Y-71107219D01*
X80971968Y-71107215D01*
X80971971Y-71107213D01*
X81092284Y-70941614D01*
X81092286Y-70941611D01*
X81092287Y-70941610D01*
X81139516Y-70848917D01*
X81187489Y-70798123D01*
X81255310Y-70781328D01*
X81321445Y-70803865D01*
X81360485Y-70848919D01*
X81407715Y-70941614D01*
X81528028Y-71107213D01*
X81672786Y-71251971D01*
X81776072Y-71327011D01*
X81838390Y-71372287D01*
X81918125Y-71412914D01*
X82020776Y-71465218D01*
X82020778Y-71465218D01*
X82020781Y-71465220D01*
X82095818Y-71489601D01*
X82215459Y-71528475D01*
X82215460Y-71528475D01*
X82215466Y-71528477D01*
X82294902Y-71541058D01*
X82358032Y-71570985D01*
X82394963Y-71630296D01*
X82399500Y-71663530D01*
X82399500Y-75960397D01*
X82379815Y-76027436D01*
X82331800Y-76070879D01*
X82318389Y-76077712D01*
X82152786Y-76198028D01*
X82008028Y-76342786D01*
X81887715Y-76508386D01*
X81794781Y-76690776D01*
X81731522Y-76885465D01*
X81699500Y-77087648D01*
X81699500Y-77292351D01*
X81731522Y-77494534D01*
X81794781Y-77689223D01*
X81887715Y-77871613D01*
X82008028Y-78037213D01*
X82152786Y-78181971D01*
X82307749Y-78294556D01*
X82318390Y-78302287D01*
X82434607Y-78361503D01*
X82500776Y-78395218D01*
X82500778Y-78395218D01*
X82500781Y-78395220D01*
X82605137Y-78429127D01*
X82695465Y-78458477D01*
X82796557Y-78474488D01*
X82897648Y-78490500D01*
X82897649Y-78490500D01*
X83102351Y-78490500D01*
X83102352Y-78490500D01*
X83304534Y-78458477D01*
X83499219Y-78395220D01*
X83681610Y-78302287D01*
X83774590Y-78234732D01*
X83847213Y-78181971D01*
X83847215Y-78181968D01*
X83847219Y-78181966D01*
X83991966Y-78037219D01*
X83991968Y-78037215D01*
X83991971Y-78037213D01*
X84044732Y-77964590D01*
X84112287Y-77871610D01*
X84205220Y-77689219D01*
X84268477Y-77494534D01*
X84300500Y-77292352D01*
X84300500Y-77087648D01*
X84268477Y-76885466D01*
X84205220Y-76690781D01*
X84205218Y-76690778D01*
X84205218Y-76690776D01*
X84171503Y-76624607D01*
X84112287Y-76508390D01*
X84104556Y-76497749D01*
X83991971Y-76342786D01*
X83847213Y-76198028D01*
X83681610Y-76077712D01*
X83668200Y-76070879D01*
X83617406Y-76022903D01*
X83600500Y-75960397D01*
X83600500Y-71025651D01*
X83604152Y-71011290D01*
X83603289Y-70999497D01*
X83612249Y-70979455D01*
X83615568Y-70966408D01*
X83619431Y-70959304D01*
X83632287Y-70941610D01*
X83680269Y-70847439D01*
X83681068Y-70845971D01*
X83704583Y-70822375D01*
X83727489Y-70798123D01*
X83729169Y-70797706D01*
X83730390Y-70796482D01*
X83762955Y-70789340D01*
X83795310Y-70781328D01*
X83796946Y-70781885D01*
X83798637Y-70781515D01*
X83829890Y-70793112D01*
X83861445Y-70803865D01*
X83862665Y-70805273D01*
X83864143Y-70805822D01*
X83870673Y-70814515D01*
X83900485Y-70848919D01*
X83947715Y-70941614D01*
X84068028Y-71107213D01*
X84212786Y-71251971D01*
X84316072Y-71327011D01*
X84378390Y-71372287D01*
X84458125Y-71412914D01*
X84560776Y-71465218D01*
X84560778Y-71465218D01*
X84560781Y-71465220D01*
X84635818Y-71489601D01*
X84755465Y-71528477D01*
X84834885Y-71541056D01*
X84957648Y-71560500D01*
X84957649Y-71560500D01*
X85162351Y-71560500D01*
X85162352Y-71560500D01*
X85364534Y-71528477D01*
X85559219Y-71465220D01*
X85741610Y-71372287D01*
X85834590Y-71304732D01*
X85907213Y-71251971D01*
X85907215Y-71251968D01*
X85907219Y-71251966D01*
X86051966Y-71107219D01*
X86051968Y-71107215D01*
X86051971Y-71107213D01*
X86154270Y-70966408D01*
X86172287Y-70941610D01*
X86265220Y-70759219D01*
X86328477Y-70564534D01*
X86360500Y-70362352D01*
X86360500Y-70157648D01*
X86328477Y-69955466D01*
X86328476Y-69955464D01*
X86271801Y-69781036D01*
X86265220Y-69760781D01*
X86265218Y-69760778D01*
X86265218Y-69760776D01*
X86230672Y-69692977D01*
X86172287Y-69578390D01*
X86164556Y-69567749D01*
X86051971Y-69412786D01*
X85907213Y-69268028D01*
X85741613Y-69147715D01*
X85741612Y-69147714D01*
X85741610Y-69147713D01*
X85684653Y-69118691D01*
X85559223Y-69054781D01*
X85364534Y-68991522D01*
X85189995Y-68963878D01*
X85162352Y-68959500D01*
X84957648Y-68959500D01*
X84933329Y-68963351D01*
X84755465Y-68991522D01*
X84560776Y-69054781D01*
X84378386Y-69147715D01*
X84212786Y-69268028D01*
X84068028Y-69412786D01*
X83947715Y-69578386D01*
X83900485Y-69671080D01*
X83852510Y-69721876D01*
X83784689Y-69738671D01*
X83718554Y-69716134D01*
X83679515Y-69671080D01*
X83678883Y-69669840D01*
X83632287Y-69578390D01*
X83624556Y-69567749D01*
X83511971Y-69412786D01*
X83367213Y-69268028D01*
X83201613Y-69147715D01*
X83201612Y-69147714D01*
X83201610Y-69147713D01*
X83144653Y-69118691D01*
X83019223Y-69054781D01*
X82824534Y-68991522D01*
X82649995Y-68963878D01*
X82622352Y-68959500D01*
X82429096Y-68959500D01*
X82362057Y-68939815D01*
X82316302Y-68887011D01*
X82306358Y-68817853D01*
X82335383Y-68754297D01*
X82341415Y-68747819D01*
X86452416Y-64636819D01*
X86513739Y-64603334D01*
X86540097Y-64600500D01*
X125779903Y-64600500D01*
X125846942Y-64620185D01*
X125867584Y-64636819D01*
X173015139Y-111784374D01*
X173015149Y-111784385D01*
X173019479Y-111788715D01*
X173019480Y-111788716D01*
X173131284Y-111900520D01*
X173218095Y-111950639D01*
X173218097Y-111950641D01*
X173256151Y-111972611D01*
X173268215Y-111979577D01*
X173420943Y-112020500D01*
X173579057Y-112020500D01*
X174214281Y-112020500D01*
X174281320Y-112040185D01*
X174324765Y-112088205D01*
X174344947Y-112127814D01*
X174344948Y-112127815D01*
X174469890Y-112299786D01*
X174620213Y-112450109D01*
X174792182Y-112575050D01*
X174800946Y-112579516D01*
X174851742Y-112627491D01*
X174868536Y-112695312D01*
X174845998Y-112761447D01*
X174800946Y-112800484D01*
X174792182Y-112804949D01*
X174620213Y-112929890D01*
X174469890Y-113080213D01*
X174344951Y-113252179D01*
X174248444Y-113441585D01*
X174182753Y-113643760D01*
X174182753Y-113643762D01*
X174149500Y-113853713D01*
X174149500Y-114066287D01*
X174182754Y-114276243D01*
X174191946Y-114304534D01*
X174248444Y-114478414D01*
X174344951Y-114667820D01*
X174469890Y-114839786D01*
X174583818Y-114953714D01*
X174617303Y-115015037D01*
X174612319Y-115084729D01*
X174570447Y-115140662D01*
X174539471Y-115157577D01*
X174407912Y-115206646D01*
X174407906Y-115206649D01*
X174292812Y-115292809D01*
X174292809Y-115292812D01*
X174206649Y-115407906D01*
X174206645Y-115407913D01*
X174156403Y-115542620D01*
X174156401Y-115542627D01*
X174150000Y-115602155D01*
X174150000Y-116250000D01*
X175066988Y-116250000D01*
X175034075Y-116307007D01*
X175000000Y-116434174D01*
X175000000Y-116565826D01*
X175034075Y-116692993D01*
X175066988Y-116750000D01*
X174150000Y-116750000D01*
X174150000Y-117397844D01*
X174156401Y-117457372D01*
X174156403Y-117457379D01*
X174206645Y-117592086D01*
X174206649Y-117592093D01*
X174292809Y-117707187D01*
X174292812Y-117707190D01*
X174407906Y-117793350D01*
X174407913Y-117793354D01*
X174542620Y-117843596D01*
X174542627Y-117843598D01*
X174602155Y-117849999D01*
X174602172Y-117850000D01*
X175250000Y-117850000D01*
X175250000Y-116933012D01*
X175307007Y-116965925D01*
X175434174Y-117000000D01*
X175565826Y-117000000D01*
X175692993Y-116965925D01*
X175750000Y-116933012D01*
X175750000Y-117850000D01*
X176397828Y-117850000D01*
X176397844Y-117849999D01*
X176457372Y-117843598D01*
X176457379Y-117843596D01*
X176592086Y-117793354D01*
X176592093Y-117793350D01*
X176707187Y-117707190D01*
X176707190Y-117707187D01*
X176793350Y-117592093D01*
X176793354Y-117592086D01*
X176843596Y-117457379D01*
X176843598Y-117457372D01*
X176849999Y-117397844D01*
X176850000Y-117397827D01*
X176850000Y-116750000D01*
X175933012Y-116750000D01*
X175965925Y-116692993D01*
X176000000Y-116565826D01*
X176000000Y-116434174D01*
X175965925Y-116307007D01*
X175933012Y-116250000D01*
X176850000Y-116250000D01*
X176850000Y-115602172D01*
X176849999Y-115602155D01*
X176843598Y-115542627D01*
X176843596Y-115542620D01*
X176793354Y-115407913D01*
X176793350Y-115407906D01*
X176707190Y-115292812D01*
X176707187Y-115292809D01*
X176592093Y-115206649D01*
X176592088Y-115206646D01*
X176460528Y-115157577D01*
X176404595Y-115115705D01*
X176380178Y-115050241D01*
X176395030Y-114981968D01*
X176416175Y-114953720D01*
X176530104Y-114839792D01*
X176655051Y-114667816D01*
X176751557Y-114478412D01*
X176817246Y-114276243D01*
X176850500Y-114066287D01*
X176850500Y-113853713D01*
X176817246Y-113643757D01*
X176803506Y-113601473D01*
X176801512Y-113531635D01*
X176833755Y-113475478D01*
X177868713Y-112440521D01*
X177868716Y-112440520D01*
X177980520Y-112328716D01*
X178030639Y-112241904D01*
X178059577Y-112191785D01*
X178100500Y-112039057D01*
X178100500Y-111880943D01*
X178100500Y-43300096D01*
X178120185Y-43233057D01*
X178136814Y-43212420D01*
X179358506Y-41990727D01*
X179358511Y-41990724D01*
X179368714Y-41980520D01*
X179368716Y-41980520D01*
X179480520Y-41868716D01*
X179559577Y-41731784D01*
X179600500Y-41579057D01*
X179600500Y-31920943D01*
X179600500Y-31920942D01*
X179600500Y-21549701D01*
X179605327Y-21520740D01*
X179600500Y-21470955D01*
X179600500Y-21420943D01*
X179592901Y-21392583D01*
X179590068Y-21363363D01*
X179572522Y-21316528D01*
X179559577Y-21268216D01*
X179544897Y-21242789D01*
X179534598Y-21215298D01*
X179505529Y-21174601D01*
X179480520Y-21131284D01*
X179467017Y-21117781D01*
X179453795Y-21102174D01*
X179446896Y-21092516D01*
X174505528Y-14174600D01*
X174480520Y-14131284D01*
X174459758Y-14110522D01*
X174442696Y-14086635D01*
X174408712Y-14058658D01*
X174399842Y-14050606D01*
X174368717Y-14019481D01*
X174368712Y-14019477D01*
X174352176Y-14009930D01*
X174343285Y-14004797D01*
X174320625Y-13986142D01*
X174275098Y-13965430D01*
X174269907Y-13962433D01*
X174269906Y-13962432D01*
X174231787Y-13940424D01*
X174231781Y-13940421D01*
X174213336Y-13935479D01*
X174194088Y-13928575D01*
X174176703Y-13920666D01*
X174176698Y-13920665D01*
X174133273Y-13913426D01*
X174133273Y-13913427D01*
X174127353Y-13912440D01*
X174079057Y-13899500D01*
X174049704Y-13899500D01*
X174039581Y-13897813D01*
X174039580Y-13897813D01*
X174020737Y-13894672D01*
X173976928Y-13898921D01*
X173964960Y-13899500D01*
X92299061Y-13899500D01*
X92299057Y-13899499D01*
X92140943Y-13899499D01*
X92140939Y-13899500D01*
X26586670Y-13899500D01*
X26586654Y-13899499D01*
X26579058Y-13899499D01*
X26420943Y-13899499D01*
X26344579Y-13919961D01*
X26268214Y-13940423D01*
X26268209Y-13940426D01*
X26131290Y-14019475D01*
X26131282Y-14019481D01*
X23239481Y-16911282D01*
X23239479Y-16911285D01*
X23189361Y-16998094D01*
X23189359Y-16998096D01*
X23160425Y-17048209D01*
X23160424Y-17048210D01*
X23160423Y-17048215D01*
X23119499Y-17200943D01*
X23119499Y-17200945D01*
X23119499Y-17369046D01*
X23119500Y-17369059D01*
X23119500Y-85979902D01*
X23099815Y-86046941D01*
X23083181Y-86067583D01*
X22319482Y-86831281D01*
X22319478Y-86831287D01*
X22273292Y-86911284D01*
X22240424Y-86968212D01*
X22240423Y-86968213D01*
X22219961Y-87044579D01*
X22199499Y-87120943D01*
X22199499Y-87120945D01*
X22199499Y-87289046D01*
X22199500Y-87289059D01*
X22199500Y-94925500D01*
X22179815Y-94992539D01*
X22127011Y-95038294D01*
X22075501Y-95049500D01*
X21902130Y-95049500D01*
X21902123Y-95049501D01*
X21842516Y-95055908D01*
X21707671Y-95106202D01*
X21707664Y-95106206D01*
X21592455Y-95192452D01*
X21592452Y-95192455D01*
X21506206Y-95307664D01*
X21506202Y-95307671D01*
X21455908Y-95442517D01*
X21449501Y-95502116D01*
X21449500Y-95502135D01*
X21449500Y-97297870D01*
X21449501Y-97297876D01*
X21455908Y-97357483D01*
X21506202Y-97492328D01*
X21506206Y-97492335D01*
X21592452Y-97607544D01*
X21592455Y-97607547D01*
X21707664Y-97693793D01*
X21707671Y-97693797D01*
X21842517Y-97744091D01*
X21842516Y-97744091D01*
X21849444Y-97744835D01*
X21902127Y-97750500D01*
X23697872Y-97750499D01*
X23757483Y-97744091D01*
X23892331Y-97693796D01*
X24007546Y-97607546D01*
X24093796Y-97492331D01*
X24142810Y-97360916D01*
X24184681Y-97304984D01*
X24250145Y-97280566D01*
X24318418Y-97295417D01*
X24346673Y-97316569D01*
X24460213Y-97430109D01*
X24632179Y-97555048D01*
X24632181Y-97555049D01*
X24632184Y-97555051D01*
X24821588Y-97651557D01*
X25023757Y-97717246D01*
X25233713Y-97750500D01*
X25233714Y-97750500D01*
X25446286Y-97750500D01*
X25446287Y-97750500D01*
X25656243Y-97717246D01*
X25858412Y-97651557D01*
X26047816Y-97555051D01*
X26134138Y-97492335D01*
X26219786Y-97430109D01*
X26219788Y-97430106D01*
X26219792Y-97430104D01*
X26370104Y-97279792D01*
X26370106Y-97279788D01*
X26370109Y-97279786D01*
X26495048Y-97107820D01*
X26495047Y-97107820D01*
X26495051Y-97107816D01*
X26499514Y-97099054D01*
X26547488Y-97048259D01*
X26615308Y-97031463D01*
X26681444Y-97053999D01*
X26720486Y-97099056D01*
X26724951Y-97107820D01*
X26849890Y-97279786D01*
X27000213Y-97430109D01*
X27172179Y-97555048D01*
X27172181Y-97555049D01*
X27172184Y-97555051D01*
X27361588Y-97651557D01*
X27563757Y-97717246D01*
X27773713Y-97750500D01*
X27773714Y-97750500D01*
X27986286Y-97750500D01*
X27986287Y-97750500D01*
X28196243Y-97717246D01*
X28398412Y-97651557D01*
X28587816Y-97555051D01*
X28674138Y-97492335D01*
X28759786Y-97430109D01*
X28759788Y-97430106D01*
X28759792Y-97430104D01*
X28910104Y-97279792D01*
X28910106Y-97279788D01*
X28910109Y-97279786D01*
X29035048Y-97107820D01*
X29035047Y-97107820D01*
X29035051Y-97107816D01*
X29039514Y-97099054D01*
X29087488Y-97048259D01*
X29155308Y-97031463D01*
X29221444Y-97053999D01*
X29260486Y-97099056D01*
X29264951Y-97107820D01*
X29389890Y-97279786D01*
X29540213Y-97430109D01*
X29712179Y-97555048D01*
X29712181Y-97555049D01*
X29712184Y-97555051D01*
X29901588Y-97651557D01*
X30103757Y-97717246D01*
X30313713Y-97750500D01*
X30313714Y-97750500D01*
X30526286Y-97750500D01*
X30526287Y-97750500D01*
X30736243Y-97717246D01*
X30938412Y-97651557D01*
X31127816Y-97555051D01*
X31214138Y-97492335D01*
X31299786Y-97430109D01*
X31299788Y-97430106D01*
X31299792Y-97430104D01*
X31450104Y-97279792D01*
X31450106Y-97279788D01*
X31450109Y-97279786D01*
X31575048Y-97107820D01*
X31575047Y-97107820D01*
X31575051Y-97107816D01*
X31579514Y-97099054D01*
X31627488Y-97048259D01*
X31695308Y-97031463D01*
X31761444Y-97053999D01*
X31800486Y-97099056D01*
X31804951Y-97107820D01*
X31929890Y-97279786D01*
X32080213Y-97430109D01*
X32252179Y-97555048D01*
X32252181Y-97555049D01*
X32252184Y-97555051D01*
X32441588Y-97651557D01*
X32643757Y-97717246D01*
X32853713Y-97750500D01*
X32853714Y-97750500D01*
X33066286Y-97750500D01*
X33066287Y-97750500D01*
X33276243Y-97717246D01*
X33478412Y-97651557D01*
X33667816Y-97555051D01*
X33754138Y-97492335D01*
X33839786Y-97430109D01*
X33839788Y-97430106D01*
X33839792Y-97430104D01*
X33990104Y-97279792D01*
X33990106Y-97279788D01*
X33990109Y-97279786D01*
X34115048Y-97107820D01*
X34115047Y-97107820D01*
X34115051Y-97107816D01*
X34119514Y-97099054D01*
X34167488Y-97048259D01*
X34235308Y-97031463D01*
X34301444Y-97053999D01*
X34340486Y-97099056D01*
X34344951Y-97107820D01*
X34469890Y-97279786D01*
X34620213Y-97430109D01*
X34792179Y-97555048D01*
X34792181Y-97555049D01*
X34792184Y-97555051D01*
X34981588Y-97651557D01*
X35183757Y-97717246D01*
X35393713Y-97750500D01*
X35393714Y-97750500D01*
X35606286Y-97750500D01*
X35606287Y-97750500D01*
X35816243Y-97717246D01*
X36018412Y-97651557D01*
X36207816Y-97555051D01*
X36294138Y-97492335D01*
X36379786Y-97430109D01*
X36379788Y-97430106D01*
X36379792Y-97430104D01*
X36530104Y-97279792D01*
X36530106Y-97279788D01*
X36530109Y-97279786D01*
X36655048Y-97107820D01*
X36655047Y-97107820D01*
X36655051Y-97107816D01*
X36659514Y-97099054D01*
X36707488Y-97048259D01*
X36775308Y-97031463D01*
X36841444Y-97053999D01*
X36880486Y-97099056D01*
X36884951Y-97107820D01*
X37009890Y-97279786D01*
X37160213Y-97430109D01*
X37332179Y-97555048D01*
X37332181Y-97555049D01*
X37332184Y-97555051D01*
X37521588Y-97651557D01*
X37723757Y-97717246D01*
X37933713Y-97750500D01*
X37933714Y-97750500D01*
X38146286Y-97750500D01*
X38146287Y-97750500D01*
X38356243Y-97717246D01*
X38558412Y-97651557D01*
X38747816Y-97555051D01*
X38834138Y-97492335D01*
X38919786Y-97430109D01*
X38919788Y-97430106D01*
X38919792Y-97430104D01*
X39070104Y-97279792D01*
X39070106Y-97279788D01*
X39070109Y-97279786D01*
X39195048Y-97107820D01*
X39195047Y-97107820D01*
X39195051Y-97107816D01*
X39199514Y-97099054D01*
X39247488Y-97048259D01*
X39315308Y-97031463D01*
X39381444Y-97053999D01*
X39420486Y-97099056D01*
X39424951Y-97107820D01*
X39549890Y-97279786D01*
X39700213Y-97430109D01*
X39872179Y-97555048D01*
X39872181Y-97555049D01*
X39872184Y-97555051D01*
X40061588Y-97651557D01*
X40263757Y-97717246D01*
X40473713Y-97750500D01*
X40473714Y-97750500D01*
X40686286Y-97750500D01*
X40686287Y-97750500D01*
X40896243Y-97717246D01*
X41098412Y-97651557D01*
X41287816Y-97555051D01*
X41374138Y-97492335D01*
X41459786Y-97430109D01*
X41459788Y-97430106D01*
X41459792Y-97430104D01*
X41610104Y-97279792D01*
X41610106Y-97279788D01*
X41610109Y-97279786D01*
X41735048Y-97107820D01*
X41735047Y-97107820D01*
X41735051Y-97107816D01*
X41739514Y-97099054D01*
X41787488Y-97048259D01*
X41855308Y-97031463D01*
X41921444Y-97053999D01*
X41960486Y-97099056D01*
X41964951Y-97107820D01*
X42089890Y-97279786D01*
X42240213Y-97430109D01*
X42412179Y-97555048D01*
X42412181Y-97555049D01*
X42412184Y-97555051D01*
X42601588Y-97651557D01*
X42803757Y-97717246D01*
X43013713Y-97750500D01*
X43013714Y-97750500D01*
X43226286Y-97750500D01*
X43226287Y-97750500D01*
X43436243Y-97717246D01*
X43638412Y-97651557D01*
X43827816Y-97555051D01*
X43914138Y-97492335D01*
X43999786Y-97430109D01*
X43999788Y-97430106D01*
X43999792Y-97430104D01*
X44150104Y-97279792D01*
X44150106Y-97279788D01*
X44150109Y-97279786D01*
X44275048Y-97107820D01*
X44275047Y-97107820D01*
X44275051Y-97107816D01*
X44279514Y-97099054D01*
X44327488Y-97048259D01*
X44395308Y-97031463D01*
X44461444Y-97053999D01*
X44500486Y-97099056D01*
X44504951Y-97107820D01*
X44629890Y-97279786D01*
X44780213Y-97430109D01*
X44952179Y-97555048D01*
X44952181Y-97555049D01*
X44952184Y-97555051D01*
X45141588Y-97651557D01*
X45343757Y-97717246D01*
X45553713Y-97750500D01*
X45553714Y-97750500D01*
X45766286Y-97750500D01*
X45766287Y-97750500D01*
X45976243Y-97717246D01*
X46178412Y-97651557D01*
X46367816Y-97555051D01*
X46454138Y-97492335D01*
X46539786Y-97430109D01*
X46539788Y-97430106D01*
X46539792Y-97430104D01*
X46690104Y-97279792D01*
X46690106Y-97279788D01*
X46690109Y-97279786D01*
X46815048Y-97107820D01*
X46815047Y-97107820D01*
X46815051Y-97107816D01*
X46819514Y-97099054D01*
X46867488Y-97048259D01*
X46935308Y-97031463D01*
X47001444Y-97053999D01*
X47040486Y-97099056D01*
X47044951Y-97107820D01*
X47169890Y-97279786D01*
X47320213Y-97430109D01*
X47492179Y-97555048D01*
X47492181Y-97555049D01*
X47492184Y-97555051D01*
X47681588Y-97651557D01*
X47883757Y-97717246D01*
X48093713Y-97750500D01*
X48093714Y-97750500D01*
X48306286Y-97750500D01*
X48306287Y-97750500D01*
X48516243Y-97717246D01*
X48718412Y-97651557D01*
X48907816Y-97555051D01*
X48994138Y-97492335D01*
X49079786Y-97430109D01*
X49079788Y-97430106D01*
X49079792Y-97430104D01*
X49230104Y-97279792D01*
X49230106Y-97279788D01*
X49230109Y-97279786D01*
X49355048Y-97107820D01*
X49355047Y-97107820D01*
X49355051Y-97107816D01*
X49359514Y-97099054D01*
X49407488Y-97048259D01*
X49475308Y-97031463D01*
X49541444Y-97053999D01*
X49580486Y-97099056D01*
X49584951Y-97107820D01*
X49709890Y-97279786D01*
X49860213Y-97430109D01*
X50032179Y-97555048D01*
X50032181Y-97555049D01*
X50032184Y-97555051D01*
X50221588Y-97651557D01*
X50423757Y-97717246D01*
X50633713Y-97750500D01*
X50633714Y-97750500D01*
X50846286Y-97750500D01*
X50846287Y-97750500D01*
X51056243Y-97717246D01*
X51258412Y-97651557D01*
X51447816Y-97555051D01*
X51534138Y-97492335D01*
X51619786Y-97430109D01*
X51619788Y-97430106D01*
X51619792Y-97430104D01*
X51770104Y-97279792D01*
X51770106Y-97279788D01*
X51770109Y-97279786D01*
X51895048Y-97107820D01*
X51895047Y-97107820D01*
X51895051Y-97107816D01*
X51899514Y-97099054D01*
X51947488Y-97048259D01*
X52015308Y-97031463D01*
X52081444Y-97053999D01*
X52120486Y-97099056D01*
X52124951Y-97107820D01*
X52249890Y-97279786D01*
X52400213Y-97430109D01*
X52572179Y-97555048D01*
X52572181Y-97555049D01*
X52572184Y-97555051D01*
X52761588Y-97651557D01*
X52963757Y-97717246D01*
X53173713Y-97750500D01*
X53173714Y-97750500D01*
X53386286Y-97750500D01*
X53386287Y-97750500D01*
X53596243Y-97717246D01*
X53798412Y-97651557D01*
X53987816Y-97555051D01*
X54074138Y-97492335D01*
X54159786Y-97430109D01*
X54159788Y-97430106D01*
X54159792Y-97430104D01*
X54310104Y-97279792D01*
X54310106Y-97279788D01*
X54310109Y-97279786D01*
X54435048Y-97107820D01*
X54435047Y-97107820D01*
X54435051Y-97107816D01*
X54439514Y-97099054D01*
X54487488Y-97048259D01*
X54555308Y-97031463D01*
X54621444Y-97053999D01*
X54660486Y-97099056D01*
X54664951Y-97107820D01*
X54789890Y-97279786D01*
X54940213Y-97430109D01*
X55112179Y-97555048D01*
X55112181Y-97555049D01*
X55112184Y-97555051D01*
X55301588Y-97651557D01*
X55503757Y-97717246D01*
X55713713Y-97750500D01*
X55713714Y-97750500D01*
X55926286Y-97750500D01*
X55926287Y-97750500D01*
X56136243Y-97717246D01*
X56338412Y-97651557D01*
X56527816Y-97555051D01*
X56614138Y-97492335D01*
X56699786Y-97430109D01*
X56699788Y-97430106D01*
X56699792Y-97430104D01*
X56850104Y-97279792D01*
X56850106Y-97279788D01*
X56850109Y-97279786D01*
X56975048Y-97107820D01*
X56975047Y-97107820D01*
X56975051Y-97107816D01*
X56979514Y-97099054D01*
X57027488Y-97048259D01*
X57095308Y-97031463D01*
X57161444Y-97053999D01*
X57200486Y-97099056D01*
X57204951Y-97107820D01*
X57329890Y-97279786D01*
X57480213Y-97430109D01*
X57652179Y-97555048D01*
X57652181Y-97555049D01*
X57652184Y-97555051D01*
X57841588Y-97651557D01*
X58043757Y-97717246D01*
X58253713Y-97750500D01*
X58253714Y-97750500D01*
X58466286Y-97750500D01*
X58466287Y-97750500D01*
X58676243Y-97717246D01*
X58878412Y-97651557D01*
X59067816Y-97555051D01*
X59154138Y-97492335D01*
X59239786Y-97430109D01*
X59239788Y-97430106D01*
X59239792Y-97430104D01*
X59390104Y-97279792D01*
X59390106Y-97279788D01*
X59390109Y-97279786D01*
X59515048Y-97107820D01*
X59515047Y-97107820D01*
X59515051Y-97107816D01*
X59611557Y-96918412D01*
X59677246Y-96716243D01*
X59710500Y-96506287D01*
X59710500Y-96293713D01*
X59677246Y-96083757D01*
X59611557Y-95881588D01*
X59515051Y-95692184D01*
X59515049Y-95692181D01*
X59515048Y-95692179D01*
X59390109Y-95520213D01*
X59239786Y-95369890D01*
X59067820Y-95244951D01*
X58878414Y-95148444D01*
X58878413Y-95148443D01*
X58878412Y-95148443D01*
X58676243Y-95082754D01*
X58676241Y-95082753D01*
X58676240Y-95082753D01*
X58514957Y-95057208D01*
X58466287Y-95049500D01*
X58253713Y-95049500D01*
X58205042Y-95057208D01*
X58043760Y-95082753D01*
X57841585Y-95148444D01*
X57652179Y-95244951D01*
X57480213Y-95369890D01*
X57329890Y-95520213D01*
X57204949Y-95692182D01*
X57200484Y-95700946D01*
X57152509Y-95751742D01*
X57084688Y-95768536D01*
X57018553Y-95745998D01*
X56979516Y-95700946D01*
X56975050Y-95692182D01*
X56850109Y-95520213D01*
X56699786Y-95369890D01*
X56527820Y-95244951D01*
X56338414Y-95148444D01*
X56338413Y-95148443D01*
X56338412Y-95148443D01*
X56136243Y-95082754D01*
X56136241Y-95082753D01*
X56136240Y-95082753D01*
X55974957Y-95057208D01*
X55926287Y-95049500D01*
X55713713Y-95049500D01*
X55665042Y-95057208D01*
X55503760Y-95082753D01*
X55301585Y-95148444D01*
X55112179Y-95244951D01*
X54940213Y-95369890D01*
X54789890Y-95520213D01*
X54664949Y-95692182D01*
X54660484Y-95700946D01*
X54612509Y-95751742D01*
X54544688Y-95768536D01*
X54478553Y-95745998D01*
X54439516Y-95700946D01*
X54435050Y-95692182D01*
X54310109Y-95520213D01*
X54159786Y-95369890D01*
X53987820Y-95244951D01*
X53798414Y-95148444D01*
X53798413Y-95148443D01*
X53798412Y-95148443D01*
X53596243Y-95082754D01*
X53596241Y-95082753D01*
X53596240Y-95082753D01*
X53434957Y-95057208D01*
X53386287Y-95049500D01*
X53173713Y-95049500D01*
X53125042Y-95057208D01*
X52963760Y-95082753D01*
X52761585Y-95148444D01*
X52572179Y-95244951D01*
X52400213Y-95369890D01*
X52249890Y-95520213D01*
X52124949Y-95692182D01*
X52120484Y-95700946D01*
X52072509Y-95751742D01*
X52004688Y-95768536D01*
X51938553Y-95745998D01*
X51899516Y-95700946D01*
X51895050Y-95692182D01*
X51770109Y-95520213D01*
X51619786Y-95369890D01*
X51447820Y-95244951D01*
X51258414Y-95148444D01*
X51258413Y-95148443D01*
X51258412Y-95148443D01*
X51056243Y-95082754D01*
X51056241Y-95082753D01*
X51056240Y-95082753D01*
X50894957Y-95057208D01*
X50846287Y-95049500D01*
X50633713Y-95049500D01*
X50585042Y-95057208D01*
X50423760Y-95082753D01*
X50221585Y-95148444D01*
X50032179Y-95244951D01*
X49860213Y-95369890D01*
X49709890Y-95520213D01*
X49584949Y-95692182D01*
X49580484Y-95700946D01*
X49532509Y-95751742D01*
X49464688Y-95768536D01*
X49398553Y-95745998D01*
X49359516Y-95700946D01*
X49355050Y-95692182D01*
X49230109Y-95520213D01*
X49079786Y-95369890D01*
X48907820Y-95244951D01*
X48718414Y-95148444D01*
X48718413Y-95148443D01*
X48718412Y-95148443D01*
X48516243Y-95082754D01*
X48516241Y-95082753D01*
X48516240Y-95082753D01*
X48354957Y-95057208D01*
X48306287Y-95049500D01*
X48093713Y-95049500D01*
X48045042Y-95057208D01*
X47883760Y-95082753D01*
X47681585Y-95148444D01*
X47492179Y-95244951D01*
X47320213Y-95369890D01*
X47169890Y-95520213D01*
X47044949Y-95692182D01*
X47040484Y-95700946D01*
X46992509Y-95751742D01*
X46924688Y-95768536D01*
X46858553Y-95745998D01*
X46819516Y-95700946D01*
X46815050Y-95692182D01*
X46690109Y-95520213D01*
X46539786Y-95369890D01*
X46367820Y-95244951D01*
X46178414Y-95148444D01*
X46178413Y-95148443D01*
X46178412Y-95148443D01*
X45976243Y-95082754D01*
X45976241Y-95082753D01*
X45976240Y-95082753D01*
X45814957Y-95057208D01*
X45766287Y-95049500D01*
X45553713Y-95049500D01*
X45505042Y-95057208D01*
X45343760Y-95082753D01*
X45141585Y-95148444D01*
X44952179Y-95244951D01*
X44780213Y-95369890D01*
X44629890Y-95520213D01*
X44504949Y-95692182D01*
X44500484Y-95700946D01*
X44452509Y-95751742D01*
X44384688Y-95768536D01*
X44318553Y-95745998D01*
X44279516Y-95700946D01*
X44275050Y-95692182D01*
X44150109Y-95520213D01*
X43999786Y-95369890D01*
X43827820Y-95244951D01*
X43638414Y-95148444D01*
X43638413Y-95148443D01*
X43638412Y-95148443D01*
X43436243Y-95082754D01*
X43436241Y-95082753D01*
X43436240Y-95082753D01*
X43274957Y-95057208D01*
X43226287Y-95049500D01*
X43013713Y-95049500D01*
X42965042Y-95057208D01*
X42803760Y-95082753D01*
X42601585Y-95148444D01*
X42412179Y-95244951D01*
X42240213Y-95369890D01*
X42089890Y-95520213D01*
X41964949Y-95692182D01*
X41960484Y-95700946D01*
X41912509Y-95751742D01*
X41844688Y-95768536D01*
X41778553Y-95745998D01*
X41739516Y-95700946D01*
X41735050Y-95692182D01*
X41610109Y-95520213D01*
X41459786Y-95369890D01*
X41287820Y-95244951D01*
X41098414Y-95148444D01*
X41098413Y-95148443D01*
X41098412Y-95148443D01*
X40896243Y-95082754D01*
X40896241Y-95082753D01*
X40896240Y-95082753D01*
X40734957Y-95057208D01*
X40686287Y-95049500D01*
X40473713Y-95049500D01*
X40425042Y-95057208D01*
X40263760Y-95082753D01*
X40061585Y-95148444D01*
X39872179Y-95244951D01*
X39700213Y-95369890D01*
X39549890Y-95520213D01*
X39424949Y-95692182D01*
X39420484Y-95700946D01*
X39372509Y-95751742D01*
X39304688Y-95768536D01*
X39238553Y-95745998D01*
X39199516Y-95700946D01*
X39195050Y-95692182D01*
X39070109Y-95520213D01*
X38919786Y-95369890D01*
X38747820Y-95244951D01*
X38558414Y-95148444D01*
X38558413Y-95148443D01*
X38558412Y-95148443D01*
X38356243Y-95082754D01*
X38356241Y-95082753D01*
X38356240Y-95082753D01*
X38194957Y-95057208D01*
X38146287Y-95049500D01*
X37933713Y-95049500D01*
X37885042Y-95057208D01*
X37723760Y-95082753D01*
X37521585Y-95148444D01*
X37332179Y-95244951D01*
X37160213Y-95369890D01*
X37009890Y-95520213D01*
X36884949Y-95692182D01*
X36880484Y-95700946D01*
X36832509Y-95751742D01*
X36764688Y-95768536D01*
X36698553Y-95745998D01*
X36659516Y-95700946D01*
X36655050Y-95692182D01*
X36530109Y-95520213D01*
X36379786Y-95369890D01*
X36207820Y-95244951D01*
X36018414Y-95148444D01*
X36018413Y-95148443D01*
X36018412Y-95148443D01*
X35816243Y-95082754D01*
X35816241Y-95082753D01*
X35816240Y-95082753D01*
X35654957Y-95057208D01*
X35606287Y-95049500D01*
X35393713Y-95049500D01*
X35345042Y-95057208D01*
X35183760Y-95082753D01*
X34981585Y-95148444D01*
X34792179Y-95244951D01*
X34620213Y-95369890D01*
X34469890Y-95520213D01*
X34344949Y-95692182D01*
X34340484Y-95700946D01*
X34292509Y-95751742D01*
X34224688Y-95768536D01*
X34158553Y-95745998D01*
X34119516Y-95700946D01*
X34115050Y-95692182D01*
X33990109Y-95520213D01*
X33839786Y-95369890D01*
X33667820Y-95244951D01*
X33478414Y-95148444D01*
X33478413Y-95148443D01*
X33478412Y-95148443D01*
X33276243Y-95082754D01*
X33276241Y-95082753D01*
X33276240Y-95082753D01*
X33114957Y-95057208D01*
X33066287Y-95049500D01*
X32853713Y-95049500D01*
X32805042Y-95057208D01*
X32643760Y-95082753D01*
X32441585Y-95148444D01*
X32252179Y-95244951D01*
X32080213Y-95369890D01*
X31929890Y-95520213D01*
X31804949Y-95692182D01*
X31800484Y-95700946D01*
X31752509Y-95751742D01*
X31684688Y-95768536D01*
X31618553Y-95745998D01*
X31579516Y-95700946D01*
X31575050Y-95692182D01*
X31450109Y-95520213D01*
X31299786Y-95369890D01*
X31127820Y-95244951D01*
X30938414Y-95148444D01*
X30938413Y-95148443D01*
X30938412Y-95148443D01*
X30736243Y-95082754D01*
X30736241Y-95082753D01*
X30736240Y-95082753D01*
X30574957Y-95057208D01*
X30526287Y-95049500D01*
X30313713Y-95049500D01*
X30265042Y-95057208D01*
X30103760Y-95082753D01*
X29901585Y-95148444D01*
X29712179Y-95244951D01*
X29540213Y-95369890D01*
X29389890Y-95520213D01*
X29264949Y-95692182D01*
X29260484Y-95700946D01*
X29212509Y-95751742D01*
X29144688Y-95768536D01*
X29078553Y-95745998D01*
X29039516Y-95700946D01*
X29035050Y-95692182D01*
X28910109Y-95520213D01*
X28759786Y-95369890D01*
X28587820Y-95244951D01*
X28398414Y-95148444D01*
X28398413Y-95148443D01*
X28398412Y-95148443D01*
X28196243Y-95082754D01*
X28196241Y-95082753D01*
X28196240Y-95082753D01*
X28034957Y-95057208D01*
X27986287Y-95049500D01*
X27773713Y-95049500D01*
X27725042Y-95057208D01*
X27563760Y-95082753D01*
X27361585Y-95148444D01*
X27172179Y-95244951D01*
X27000213Y-95369890D01*
X26849890Y-95520213D01*
X26724949Y-95692182D01*
X26720484Y-95700946D01*
X26672509Y-95751742D01*
X26604688Y-95768536D01*
X26538553Y-95745998D01*
X26499516Y-95700946D01*
X26495050Y-95692182D01*
X26370109Y-95520213D01*
X26219786Y-95369890D01*
X26047820Y-95244951D01*
X25858414Y-95148444D01*
X25858413Y-95148443D01*
X25858412Y-95148443D01*
X25656243Y-95082754D01*
X25656241Y-95082753D01*
X25656240Y-95082753D01*
X25494957Y-95057208D01*
X25446287Y-95049500D01*
X25233713Y-95049500D01*
X25185042Y-95057208D01*
X25023760Y-95082753D01*
X24821585Y-95148444D01*
X24632179Y-95244951D01*
X24460215Y-95369889D01*
X24346673Y-95483431D01*
X24285350Y-95516915D01*
X24215658Y-95511931D01*
X24159725Y-95470059D01*
X24142810Y-95439082D01*
X24093797Y-95307671D01*
X24093793Y-95307664D01*
X24007547Y-95192455D01*
X24007544Y-95192452D01*
X23892335Y-95106206D01*
X23892328Y-95106202D01*
X23757482Y-95055908D01*
X23757483Y-95055908D01*
X23697883Y-95049501D01*
X23697881Y-95049500D01*
X23697873Y-95049500D01*
X23697865Y-95049500D01*
X23524500Y-95049500D01*
X23457461Y-95029815D01*
X23411706Y-94977011D01*
X23400500Y-94925500D01*
X23400500Y-87500096D01*
X23420185Y-87433057D01*
X23436815Y-87412419D01*
X24078506Y-86770727D01*
X24078511Y-86770724D01*
X24088714Y-86760520D01*
X24088716Y-86760520D01*
X24200520Y-86648716D01*
X24279577Y-86511784D01*
X24320500Y-86359057D01*
X24320500Y-17580097D01*
X24340185Y-17513058D01*
X24356819Y-17492416D01*
X26712417Y-15136819D01*
X26773740Y-15103334D01*
X26800098Y-15100500D01*
X65410902Y-15100500D01*
X65477941Y-15120185D01*
X65523696Y-15172989D01*
X65533640Y-15242147D01*
X65504615Y-15305703D01*
X65498583Y-15312181D01*
X60104842Y-20705921D01*
X60043519Y-20739406D01*
X59978848Y-20736173D01*
X59964534Y-20731522D01*
X59789995Y-20703878D01*
X59762352Y-20699500D01*
X59557648Y-20699500D01*
X59533329Y-20703351D01*
X59355465Y-20731522D01*
X59160776Y-20794781D01*
X58978386Y-20887715D01*
X58812786Y-21008028D01*
X58668028Y-21152786D01*
X58547715Y-21318386D01*
X58500485Y-21411080D01*
X58452510Y-21461876D01*
X58384689Y-21478671D01*
X58318554Y-21456134D01*
X58279515Y-21411080D01*
X58258118Y-21369087D01*
X58232287Y-21318390D01*
X58213438Y-21292446D01*
X58111971Y-21152786D01*
X57967213Y-21008028D01*
X57801613Y-20887715D01*
X57801612Y-20887714D01*
X57801610Y-20887713D01*
X57718527Y-20845380D01*
X57619223Y-20794781D01*
X57424534Y-20731522D01*
X57249995Y-20703878D01*
X57222352Y-20699500D01*
X57017648Y-20699500D01*
X56993329Y-20703351D01*
X56815465Y-20731522D01*
X56620776Y-20794781D01*
X56438386Y-20887715D01*
X56272786Y-21008028D01*
X56128028Y-21152786D01*
X56007715Y-21318386D01*
X55960485Y-21411080D01*
X55912510Y-21461876D01*
X55844689Y-21478671D01*
X55778554Y-21456134D01*
X55739515Y-21411080D01*
X55718118Y-21369087D01*
X55692287Y-21318390D01*
X55673438Y-21292446D01*
X55571971Y-21152786D01*
X55427213Y-21008028D01*
X55261613Y-20887715D01*
X55261612Y-20887714D01*
X55261610Y-20887713D01*
X55178527Y-20845380D01*
X55079223Y-20794781D01*
X54884534Y-20731522D01*
X54709995Y-20703878D01*
X54682352Y-20699500D01*
X54477648Y-20699500D01*
X54453329Y-20703351D01*
X54275465Y-20731522D01*
X54080776Y-20794781D01*
X53898386Y-20887715D01*
X53732786Y-21008028D01*
X53588028Y-21152786D01*
X53467715Y-21318386D01*
X53420485Y-21411080D01*
X53372510Y-21461876D01*
X53304689Y-21478671D01*
X53238554Y-21456134D01*
X53199515Y-21411080D01*
X53178118Y-21369087D01*
X53152287Y-21318390D01*
X53133438Y-21292446D01*
X53031971Y-21152786D01*
X52887213Y-21008028D01*
X52721613Y-20887715D01*
X52721612Y-20887714D01*
X52721610Y-20887713D01*
X52638527Y-20845380D01*
X52539223Y-20794781D01*
X52344534Y-20731522D01*
X52169995Y-20703878D01*
X52142352Y-20699500D01*
X51937648Y-20699500D01*
X51913329Y-20703351D01*
X51735465Y-20731522D01*
X51540776Y-20794781D01*
X51358386Y-20887715D01*
X51192786Y-21008028D01*
X51048032Y-21152782D01*
X51021668Y-21189070D01*
X50966338Y-21231735D01*
X50896724Y-21237714D01*
X50834929Y-21205108D01*
X50800572Y-21144269D01*
X50798060Y-21129438D01*
X50796807Y-21117781D01*
X50794091Y-21092517D01*
X50758298Y-20996552D01*
X50743797Y-20957671D01*
X50743793Y-20957664D01*
X50657547Y-20842455D01*
X50657544Y-20842452D01*
X50542335Y-20756206D01*
X50542328Y-20756202D01*
X50407482Y-20705908D01*
X50407483Y-20705908D01*
X50347883Y-20699501D01*
X50347881Y-20699500D01*
X50347873Y-20699500D01*
X50347864Y-20699500D01*
X48652129Y-20699500D01*
X48652123Y-20699501D01*
X48592516Y-20705908D01*
X48457671Y-20756202D01*
X48457664Y-20756206D01*
X48342455Y-20842452D01*
X48342452Y-20842455D01*
X48256206Y-20957664D01*
X48256202Y-20957671D01*
X48205908Y-21092517D01*
X48199501Y-21152116D01*
X48199500Y-21152135D01*
X48199500Y-22847870D01*
X48199501Y-22847876D01*
X48205908Y-22907483D01*
X48256202Y-23042328D01*
X48256206Y-23042335D01*
X48342452Y-23157544D01*
X48342455Y-23157547D01*
X48457664Y-23243793D01*
X48457671Y-23243797D01*
X48592517Y-23294091D01*
X48592516Y-23294091D01*
X48599444Y-23294835D01*
X48652127Y-23300500D01*
X50347872Y-23300499D01*
X50407483Y-23294091D01*
X50542331Y-23243796D01*
X50657546Y-23157546D01*
X50743796Y-23042331D01*
X50794091Y-22907483D01*
X50798061Y-22870556D01*
X50824796Y-22806011D01*
X50882188Y-22766161D01*
X50952013Y-22763666D01*
X51012102Y-22799317D01*
X51021667Y-22810929D01*
X51048032Y-22847217D01*
X51192786Y-22991971D01*
X51330928Y-23092335D01*
X51358390Y-23112287D01*
X51442319Y-23155051D01*
X51540776Y-23205218D01*
X51540778Y-23205218D01*
X51540781Y-23205220D01*
X51645137Y-23239127D01*
X51735465Y-23268477D01*
X51836557Y-23284488D01*
X51937648Y-23300500D01*
X51937649Y-23300500D01*
X52142351Y-23300500D01*
X52142352Y-23300500D01*
X52344534Y-23268477D01*
X52539219Y-23205220D01*
X52721610Y-23112287D01*
X52834726Y-23030104D01*
X52887213Y-22991971D01*
X52887215Y-22991968D01*
X52887219Y-22991966D01*
X53031966Y-22847219D01*
X53031968Y-22847215D01*
X53031971Y-22847213D01*
X53152284Y-22681614D01*
X53152286Y-22681611D01*
X53152287Y-22681610D01*
X53199516Y-22588917D01*
X53247489Y-22538123D01*
X53315310Y-22521328D01*
X53381445Y-22543865D01*
X53420483Y-22588917D01*
X53464348Y-22675006D01*
X53467715Y-22681614D01*
X53588028Y-22847213D01*
X53732786Y-22991971D01*
X53870928Y-23092335D01*
X53898390Y-23112287D01*
X53982319Y-23155051D01*
X54080776Y-23205218D01*
X54080778Y-23205218D01*
X54080781Y-23205220D01*
X54185137Y-23239127D01*
X54275465Y-23268477D01*
X54376557Y-23284488D01*
X54477648Y-23300500D01*
X54477649Y-23300500D01*
X54682351Y-23300500D01*
X54682352Y-23300500D01*
X54884534Y-23268477D01*
X55079219Y-23205220D01*
X55261610Y-23112287D01*
X55374726Y-23030104D01*
X55427213Y-22991971D01*
X55427215Y-22991968D01*
X55427219Y-22991966D01*
X55571966Y-22847219D01*
X55571968Y-22847215D01*
X55571971Y-22847213D01*
X55692284Y-22681614D01*
X55692286Y-22681611D01*
X55692287Y-22681610D01*
X55739516Y-22588917D01*
X55787489Y-22538123D01*
X55855310Y-22521328D01*
X55921445Y-22543865D01*
X55960483Y-22588917D01*
X56004348Y-22675006D01*
X56007715Y-22681614D01*
X56128028Y-22847213D01*
X56272786Y-22991971D01*
X56410928Y-23092335D01*
X56438390Y-23112287D01*
X56522319Y-23155051D01*
X56620776Y-23205218D01*
X56620778Y-23205218D01*
X56620781Y-23205220D01*
X56725137Y-23239127D01*
X56815465Y-23268477D01*
X56916557Y-23284488D01*
X57017648Y-23300500D01*
X57017649Y-23300500D01*
X57222351Y-23300500D01*
X57222352Y-23300500D01*
X57424534Y-23268477D01*
X57619219Y-23205220D01*
X57801610Y-23112287D01*
X57914726Y-23030104D01*
X57967213Y-22991971D01*
X57967215Y-22991968D01*
X57967219Y-22991966D01*
X58111966Y-22847219D01*
X58111968Y-22847215D01*
X58111971Y-22847213D01*
X58232284Y-22681614D01*
X58232286Y-22681611D01*
X58232287Y-22681610D01*
X58279516Y-22588917D01*
X58327489Y-22538123D01*
X58395310Y-22521328D01*
X58461445Y-22543865D01*
X58500483Y-22588917D01*
X58544348Y-22675006D01*
X58547715Y-22681614D01*
X58668028Y-22847213D01*
X58812786Y-22991971D01*
X58950928Y-23092335D01*
X58978390Y-23112287D01*
X59062319Y-23155051D01*
X59160776Y-23205218D01*
X59160778Y-23205218D01*
X59160781Y-23205220D01*
X59265137Y-23239127D01*
X59355465Y-23268477D01*
X59456557Y-23284488D01*
X59557648Y-23300500D01*
X59557649Y-23300500D01*
X59762351Y-23300500D01*
X59762352Y-23300500D01*
X59964534Y-23268477D01*
X60159219Y-23205220D01*
X60341610Y-23112287D01*
X60454726Y-23030104D01*
X60507213Y-22991971D01*
X60507215Y-22991968D01*
X60507219Y-22991966D01*
X60651966Y-22847219D01*
X60651968Y-22847215D01*
X60651971Y-22847213D01*
X60772284Y-22681614D01*
X60772286Y-22681611D01*
X60772287Y-22681610D01*
X60819795Y-22588369D01*
X60867770Y-22537574D01*
X60935591Y-22520779D01*
X61001725Y-22543316D01*
X61040765Y-22588370D01*
X61088140Y-22681349D01*
X61208417Y-22846894D01*
X61208417Y-22846895D01*
X61353104Y-22991582D01*
X61518650Y-23111859D01*
X61700968Y-23204754D01*
X61895578Y-23267988D01*
X61950000Y-23276607D01*
X61950000Y-22433012D01*
X62007007Y-22465925D01*
X62134174Y-22500000D01*
X62265826Y-22500000D01*
X62392993Y-22465925D01*
X62450000Y-22433012D01*
X62450000Y-23276606D01*
X62504421Y-23267988D01*
X62699031Y-23204754D01*
X62881349Y-23111859D01*
X63046894Y-22991582D01*
X63046895Y-22991582D01*
X63191582Y-22846895D01*
X63191582Y-22846894D01*
X63311859Y-22681349D01*
X63359515Y-22587820D01*
X63407489Y-22537024D01*
X63475310Y-22520229D01*
X63541445Y-22542766D01*
X63580485Y-22587820D01*
X63628140Y-22681349D01*
X63748417Y-22846894D01*
X63748417Y-22846895D01*
X63893104Y-22991582D01*
X64058650Y-23111859D01*
X64240968Y-23204754D01*
X64435578Y-23267988D01*
X64490000Y-23276607D01*
X64490000Y-22433012D01*
X64547007Y-22465925D01*
X64674174Y-22500000D01*
X64805826Y-22500000D01*
X64932993Y-22465925D01*
X64990000Y-22433012D01*
X64990000Y-23276606D01*
X65044421Y-23267988D01*
X65239031Y-23204754D01*
X65421349Y-23111859D01*
X65586894Y-22991582D01*
X65586895Y-22991582D01*
X65731582Y-22846895D01*
X65731582Y-22846894D01*
X65851861Y-22681347D01*
X65899234Y-22588371D01*
X65947208Y-22537575D01*
X66015028Y-22520779D01*
X66081164Y-22543316D01*
X66120203Y-22588369D01*
X66167713Y-22681611D01*
X66288028Y-22847213D01*
X66432786Y-22991971D01*
X66570928Y-23092335D01*
X66598390Y-23112287D01*
X66682319Y-23155051D01*
X66780776Y-23205218D01*
X66780778Y-23205218D01*
X66780781Y-23205220D01*
X66885137Y-23239127D01*
X66975465Y-23268477D01*
X67076557Y-23284488D01*
X67177648Y-23300500D01*
X67177649Y-23300500D01*
X67382351Y-23300500D01*
X67382352Y-23300500D01*
X67584534Y-23268477D01*
X67779219Y-23205220D01*
X67961610Y-23112287D01*
X68074726Y-23030104D01*
X68127213Y-22991971D01*
X68127215Y-22991968D01*
X68127219Y-22991966D01*
X68271966Y-22847219D01*
X68271968Y-22847215D01*
X68271971Y-22847213D01*
X68355833Y-22731785D01*
X68392287Y-22681610D01*
X68485220Y-22499219D01*
X68548477Y-22304534D01*
X68580500Y-22102352D01*
X68580500Y-21897648D01*
X71059500Y-21897648D01*
X71059500Y-22102351D01*
X71091522Y-22304534D01*
X71154781Y-22499223D01*
X71206382Y-22600493D01*
X71233644Y-22653999D01*
X71247715Y-22681613D01*
X71368028Y-22847213D01*
X71512786Y-22991971D01*
X71650928Y-23092335D01*
X71678390Y-23112287D01*
X71762319Y-23155051D01*
X71860776Y-23205218D01*
X71860778Y-23205218D01*
X71860781Y-23205220D01*
X71965137Y-23239127D01*
X72055465Y-23268477D01*
X72156557Y-23284488D01*
X72257648Y-23300500D01*
X72257649Y-23300500D01*
X72462351Y-23300500D01*
X72462352Y-23300500D01*
X72664534Y-23268477D01*
X72859219Y-23205220D01*
X73041610Y-23112287D01*
X73154726Y-23030104D01*
X73207213Y-22991971D01*
X73207215Y-22991968D01*
X73207219Y-22991966D01*
X73351966Y-22847219D01*
X73351968Y-22847215D01*
X73351971Y-22847213D01*
X73472284Y-22681614D01*
X73472286Y-22681611D01*
X73472287Y-22681610D01*
X73519516Y-22588917D01*
X73567489Y-22538123D01*
X73635310Y-22521328D01*
X73701445Y-22543865D01*
X73740483Y-22588917D01*
X73784348Y-22675006D01*
X73787715Y-22681614D01*
X73908028Y-22847213D01*
X74052786Y-22991971D01*
X74190928Y-23092335D01*
X74218390Y-23112287D01*
X74302319Y-23155051D01*
X74400776Y-23205218D01*
X74400778Y-23205218D01*
X74400781Y-23205220D01*
X74505137Y-23239127D01*
X74595465Y-23268477D01*
X74696557Y-23284488D01*
X74797648Y-23300500D01*
X74797649Y-23300500D01*
X75002351Y-23300500D01*
X75002352Y-23300500D01*
X75204534Y-23268477D01*
X75399219Y-23205220D01*
X75581610Y-23112287D01*
X75694726Y-23030104D01*
X75747213Y-22991971D01*
X75747215Y-22991968D01*
X75747219Y-22991966D01*
X75891966Y-22847219D01*
X75891968Y-22847215D01*
X75891971Y-22847213D01*
X76012284Y-22681614D01*
X76012286Y-22681611D01*
X76012287Y-22681610D01*
X76059516Y-22588917D01*
X76107489Y-22538123D01*
X76175310Y-22521328D01*
X76241445Y-22543865D01*
X76280483Y-22588917D01*
X76324348Y-22675006D01*
X76327715Y-22681614D01*
X76448028Y-22847213D01*
X76592786Y-22991971D01*
X76730928Y-23092335D01*
X76758390Y-23112287D01*
X76842319Y-23155051D01*
X76940776Y-23205218D01*
X76940778Y-23205218D01*
X76940781Y-23205220D01*
X77045137Y-23239127D01*
X77135465Y-23268477D01*
X77236557Y-23284488D01*
X77337648Y-23300500D01*
X77337649Y-23300500D01*
X77542351Y-23300500D01*
X77542352Y-23300500D01*
X77744534Y-23268477D01*
X77939219Y-23205220D01*
X78121610Y-23112287D01*
X78234726Y-23030104D01*
X78287213Y-22991971D01*
X78287215Y-22991968D01*
X78287219Y-22991966D01*
X78431966Y-22847219D01*
X78431968Y-22847215D01*
X78431971Y-22847213D01*
X78552284Y-22681614D01*
X78552286Y-22681611D01*
X78552287Y-22681610D01*
X78599516Y-22588917D01*
X78647489Y-22538123D01*
X78715310Y-22521328D01*
X78781445Y-22543865D01*
X78820483Y-22588917D01*
X78864348Y-22675006D01*
X78867715Y-22681614D01*
X78988028Y-22847213D01*
X79132786Y-22991971D01*
X79270928Y-23092335D01*
X79298390Y-23112287D01*
X79382319Y-23155051D01*
X79480776Y-23205218D01*
X79480778Y-23205218D01*
X79480781Y-23205220D01*
X79585137Y-23239127D01*
X79675465Y-23268477D01*
X79776557Y-23284488D01*
X79877648Y-23300500D01*
X79877649Y-23300500D01*
X80082351Y-23300500D01*
X80082352Y-23300500D01*
X80284534Y-23268477D01*
X80479219Y-23205220D01*
X80661610Y-23112287D01*
X80774726Y-23030104D01*
X80827213Y-22991971D01*
X80827215Y-22991968D01*
X80827219Y-22991966D01*
X80971966Y-22847219D01*
X80971968Y-22847215D01*
X80971971Y-22847213D01*
X81092284Y-22681614D01*
X81092286Y-22681611D01*
X81092287Y-22681610D01*
X81139516Y-22588917D01*
X81187489Y-22538123D01*
X81255310Y-22521328D01*
X81321445Y-22543865D01*
X81360483Y-22588917D01*
X81404348Y-22675006D01*
X81407715Y-22681614D01*
X81528028Y-22847213D01*
X81672786Y-22991971D01*
X81810928Y-23092335D01*
X81838390Y-23112287D01*
X81922319Y-23155051D01*
X82020776Y-23205218D01*
X82020778Y-23205218D01*
X82020781Y-23205220D01*
X82125137Y-23239127D01*
X82215465Y-23268477D01*
X82316557Y-23284488D01*
X82417648Y-23300500D01*
X82417649Y-23300500D01*
X82622351Y-23300500D01*
X82622352Y-23300500D01*
X82824534Y-23268477D01*
X83019219Y-23205220D01*
X83201610Y-23112287D01*
X83314726Y-23030104D01*
X83367213Y-22991971D01*
X83367215Y-22991968D01*
X83367219Y-22991966D01*
X83511966Y-22847219D01*
X83511968Y-22847215D01*
X83511971Y-22847213D01*
X83632284Y-22681614D01*
X83632286Y-22681611D01*
X83632287Y-22681610D01*
X83679516Y-22588917D01*
X83727489Y-22538123D01*
X83795310Y-22521328D01*
X83861445Y-22543865D01*
X83900483Y-22588917D01*
X83944348Y-22675006D01*
X83947715Y-22681614D01*
X84068028Y-22847213D01*
X84212786Y-22991971D01*
X84350928Y-23092335D01*
X84378390Y-23112287D01*
X84462319Y-23155051D01*
X84560776Y-23205218D01*
X84560778Y-23205218D01*
X84560781Y-23205220D01*
X84665137Y-23239127D01*
X84755465Y-23268477D01*
X84856557Y-23284488D01*
X84957648Y-23300500D01*
X84957649Y-23300500D01*
X85162351Y-23300500D01*
X85162352Y-23300500D01*
X85364534Y-23268477D01*
X85559219Y-23205220D01*
X85741610Y-23112287D01*
X85854726Y-23030104D01*
X85907213Y-22991971D01*
X85907215Y-22991968D01*
X85907219Y-22991966D01*
X86051966Y-22847219D01*
X86051968Y-22847215D01*
X86051971Y-22847213D01*
X86135833Y-22731785D01*
X86172287Y-22681610D01*
X86265220Y-22499219D01*
X86328477Y-22304534D01*
X86360500Y-22102352D01*
X86360500Y-21897648D01*
X86346144Y-21807007D01*
X86328477Y-21695465D01*
X86281115Y-21549701D01*
X86265220Y-21500781D01*
X86265218Y-21500778D01*
X86265218Y-21500776D01*
X86219515Y-21411080D01*
X86172287Y-21318390D01*
X86153438Y-21292446D01*
X86051971Y-21152786D01*
X85907213Y-21008028D01*
X85741613Y-20887715D01*
X85741612Y-20887714D01*
X85741610Y-20887713D01*
X85658527Y-20845380D01*
X85559223Y-20794781D01*
X85364534Y-20731522D01*
X85189995Y-20703878D01*
X85162352Y-20699500D01*
X84957648Y-20699500D01*
X84933329Y-20703351D01*
X84755465Y-20731522D01*
X84560776Y-20794781D01*
X84378386Y-20887715D01*
X84212786Y-21008028D01*
X84068028Y-21152786D01*
X83947715Y-21318386D01*
X83900485Y-21411080D01*
X83852510Y-21461876D01*
X83784689Y-21478671D01*
X83718554Y-21456134D01*
X83679515Y-21411080D01*
X83658118Y-21369087D01*
X83632287Y-21318390D01*
X83613438Y-21292446D01*
X83511971Y-21152786D01*
X83367213Y-21008028D01*
X83201613Y-20887715D01*
X83201612Y-20887714D01*
X83201610Y-20887713D01*
X83118527Y-20845380D01*
X83019223Y-20794781D01*
X82824534Y-20731522D01*
X82649995Y-20703878D01*
X82622352Y-20699500D01*
X82417648Y-20699500D01*
X82393329Y-20703351D01*
X82215465Y-20731522D01*
X82020776Y-20794781D01*
X81838386Y-20887715D01*
X81672786Y-21008028D01*
X81528028Y-21152786D01*
X81407715Y-21318386D01*
X81360485Y-21411080D01*
X81312510Y-21461876D01*
X81244689Y-21478671D01*
X81178554Y-21456134D01*
X81139515Y-21411080D01*
X81118118Y-21369087D01*
X81092287Y-21318390D01*
X81073438Y-21292446D01*
X80971971Y-21152786D01*
X80827213Y-21008028D01*
X80661613Y-20887715D01*
X80661612Y-20887714D01*
X80661610Y-20887713D01*
X80578527Y-20845380D01*
X80479223Y-20794781D01*
X80284534Y-20731522D01*
X80109995Y-20703878D01*
X80082352Y-20699500D01*
X79877648Y-20699500D01*
X79853329Y-20703351D01*
X79675465Y-20731522D01*
X79480776Y-20794781D01*
X79298386Y-20887715D01*
X79132786Y-21008028D01*
X78988028Y-21152786D01*
X78867715Y-21318386D01*
X78820485Y-21411080D01*
X78772510Y-21461876D01*
X78704689Y-21478671D01*
X78638554Y-21456134D01*
X78599515Y-21411080D01*
X78578118Y-21369087D01*
X78552287Y-21318390D01*
X78533438Y-21292446D01*
X78431971Y-21152786D01*
X78287213Y-21008028D01*
X78121613Y-20887715D01*
X78121612Y-20887714D01*
X78121610Y-20887713D01*
X78038527Y-20845380D01*
X77939223Y-20794781D01*
X77744534Y-20731522D01*
X77569995Y-20703878D01*
X77542352Y-20699500D01*
X77337648Y-20699500D01*
X77313329Y-20703351D01*
X77135465Y-20731522D01*
X76940776Y-20794781D01*
X76758386Y-20887715D01*
X76592786Y-21008028D01*
X76448028Y-21152786D01*
X76327715Y-21318386D01*
X76280485Y-21411080D01*
X76232510Y-21461876D01*
X76164689Y-21478671D01*
X76098554Y-21456134D01*
X76059515Y-21411080D01*
X76038118Y-21369087D01*
X76012287Y-21318390D01*
X75993438Y-21292446D01*
X75891971Y-21152786D01*
X75747213Y-21008028D01*
X75581613Y-20887715D01*
X75581612Y-20887714D01*
X75581610Y-20887713D01*
X75498527Y-20845380D01*
X75399223Y-20794781D01*
X75204534Y-20731522D01*
X75029995Y-20703878D01*
X75002352Y-20699500D01*
X74797648Y-20699500D01*
X74773329Y-20703351D01*
X74595465Y-20731522D01*
X74400776Y-20794781D01*
X74218386Y-20887715D01*
X74052786Y-21008028D01*
X73908028Y-21152786D01*
X73787715Y-21318386D01*
X73740485Y-21411080D01*
X73692510Y-21461876D01*
X73624689Y-21478671D01*
X73558554Y-21456134D01*
X73519515Y-21411080D01*
X73498118Y-21369087D01*
X73472287Y-21318390D01*
X73453438Y-21292446D01*
X73351971Y-21152786D01*
X73207213Y-21008028D01*
X73041613Y-20887715D01*
X73041612Y-20887714D01*
X73041610Y-20887713D01*
X72958527Y-20845380D01*
X72859223Y-20794781D01*
X72664534Y-20731522D01*
X72489995Y-20703878D01*
X72462352Y-20699500D01*
X72257648Y-20699500D01*
X72233329Y-20703351D01*
X72055465Y-20731522D01*
X71860776Y-20794781D01*
X71678386Y-20887715D01*
X71512786Y-21008028D01*
X71368028Y-21152786D01*
X71247715Y-21318386D01*
X71154781Y-21500776D01*
X71091522Y-21695465D01*
X71059500Y-21897648D01*
X68580500Y-21897648D01*
X68566144Y-21807007D01*
X68548477Y-21695465D01*
X68501115Y-21549701D01*
X68485220Y-21500781D01*
X68485218Y-21500778D01*
X68485218Y-21500776D01*
X68439515Y-21411080D01*
X68392287Y-21318390D01*
X68373438Y-21292446D01*
X68271971Y-21152786D01*
X68127213Y-21008028D01*
X67961613Y-20887715D01*
X67961612Y-20887714D01*
X67961610Y-20887713D01*
X67878527Y-20845380D01*
X67779223Y-20794781D01*
X67584534Y-20731522D01*
X67409995Y-20703878D01*
X67382352Y-20699500D01*
X67177648Y-20699500D01*
X67153329Y-20703351D01*
X66975465Y-20731522D01*
X66780776Y-20794781D01*
X66598386Y-20887715D01*
X66432786Y-21008028D01*
X66288028Y-21152786D01*
X66167713Y-21318388D01*
X66120203Y-21411630D01*
X66072228Y-21462426D01*
X66004407Y-21479220D01*
X65938272Y-21456682D01*
X65899234Y-21411628D01*
X65851861Y-21318652D01*
X65731582Y-21153105D01*
X65731582Y-21153104D01*
X65586895Y-21008417D01*
X65421349Y-20888140D01*
X65239029Y-20795244D01*
X65044413Y-20732009D01*
X64990000Y-20723390D01*
X64990000Y-21566988D01*
X64932993Y-21534075D01*
X64805826Y-21500000D01*
X64674174Y-21500000D01*
X64547007Y-21534075D01*
X64490000Y-21566988D01*
X64490000Y-20723390D01*
X64435586Y-20732009D01*
X64240970Y-20795244D01*
X64058650Y-20888140D01*
X63893105Y-21008417D01*
X63893104Y-21008417D01*
X63748417Y-21153104D01*
X63748417Y-21153105D01*
X63628140Y-21318650D01*
X63580485Y-21412179D01*
X63532510Y-21462975D01*
X63464689Y-21479770D01*
X63398554Y-21457232D01*
X63359515Y-21412179D01*
X63311859Y-21318650D01*
X63191582Y-21153105D01*
X63191582Y-21153104D01*
X63046895Y-21008417D01*
X62881349Y-20888140D01*
X62699029Y-20795244D01*
X62504413Y-20732009D01*
X62450000Y-20723390D01*
X62450000Y-21566988D01*
X62392993Y-21534075D01*
X62265826Y-21500000D01*
X62134174Y-21500000D01*
X62007007Y-21534075D01*
X61950000Y-21566988D01*
X61950000Y-20714265D01*
X61925271Y-20676385D01*
X61924771Y-20606517D01*
X61956312Y-20552922D01*
X67372417Y-15136819D01*
X67433740Y-15103334D01*
X67460098Y-15100500D01*
X91919903Y-15100500D01*
X91986942Y-15120185D01*
X92007584Y-15136819D01*
X98333181Y-21462417D01*
X98366666Y-21523740D01*
X98369500Y-21550098D01*
X98369500Y-22897870D01*
X98369501Y-22897876D01*
X98375908Y-22957483D01*
X98426202Y-23092328D01*
X98426206Y-23092335D01*
X98512452Y-23207544D01*
X98512455Y-23207547D01*
X98627664Y-23293793D01*
X98627671Y-23293797D01*
X98762517Y-23344091D01*
X98762516Y-23344091D01*
X98769444Y-23344835D01*
X98822127Y-23350500D01*
X100617872Y-23350499D01*
X100677483Y-23344091D01*
X100812331Y-23293796D01*
X100927546Y-23207546D01*
X101013796Y-23092331D01*
X101062810Y-22960916D01*
X101104681Y-22904984D01*
X101170145Y-22880566D01*
X101238418Y-22895417D01*
X101266673Y-22916569D01*
X101380213Y-23030109D01*
X101552184Y-23155051D01*
X101552184Y-23155052D01*
X101591793Y-23175233D01*
X101642590Y-23223206D01*
X101659500Y-23285718D01*
X101659500Y-24180939D01*
X101659499Y-24180943D01*
X101659499Y-24339057D01*
X101676195Y-24401369D01*
X101677042Y-24413158D01*
X101672033Y-24436212D01*
X101671472Y-24459797D01*
X101664383Y-24471426D01*
X101662209Y-24481436D01*
X101652144Y-24491506D01*
X101641041Y-24509721D01*
X101287582Y-24863182D01*
X101226262Y-24896666D01*
X101199903Y-24899500D01*
X95086669Y-24899500D01*
X95086653Y-24899499D01*
X95079057Y-24899499D01*
X94920943Y-24899499D01*
X94813587Y-24928265D01*
X94768210Y-24940424D01*
X94768209Y-24940425D01*
X94718096Y-24969359D01*
X94718095Y-24969360D01*
X94674689Y-24994420D01*
X94631285Y-25019479D01*
X94631284Y-25019480D01*
X51478481Y-68172282D01*
X51478479Y-68172285D01*
X51428361Y-68259094D01*
X51428359Y-68259096D01*
X51399425Y-68309209D01*
X51399424Y-68309210D01*
X51376543Y-68394601D01*
X51364266Y-68440423D01*
X51358499Y-68461944D01*
X51358499Y-68630046D01*
X51358500Y-68630059D01*
X51358500Y-69025302D01*
X51338815Y-69092341D01*
X51286011Y-69138096D01*
X51216853Y-69148040D01*
X51178205Y-69135787D01*
X51019223Y-69054782D01*
X51019222Y-69054781D01*
X51019219Y-69054780D01*
X50928495Y-69025302D01*
X50824534Y-68991522D01*
X50649995Y-68963878D01*
X50622352Y-68959500D01*
X50417648Y-68959500D01*
X50393329Y-68963351D01*
X50215465Y-68991522D01*
X50020776Y-69054781D01*
X49838386Y-69147715D01*
X49672786Y-69268028D01*
X49528028Y-69412786D01*
X49407713Y-69578388D01*
X49360203Y-69671630D01*
X49312228Y-69722426D01*
X49244407Y-69739220D01*
X49178272Y-69716682D01*
X49139234Y-69671628D01*
X49091861Y-69578652D01*
X48971582Y-69413105D01*
X48971582Y-69413104D01*
X48826895Y-69268417D01*
X48661349Y-69148140D01*
X48479029Y-69055244D01*
X48284413Y-68992009D01*
X48230000Y-68983390D01*
X48230000Y-69826988D01*
X48172993Y-69794075D01*
X48045826Y-69760000D01*
X47914174Y-69760000D01*
X47787007Y-69794075D01*
X47730000Y-69826988D01*
X47730000Y-68983390D01*
X47675586Y-68992009D01*
X47480970Y-69055244D01*
X47298650Y-69148140D01*
X47133105Y-69268417D01*
X47133104Y-69268417D01*
X46988417Y-69413104D01*
X46988417Y-69413105D01*
X46868140Y-69578650D01*
X46820765Y-69671629D01*
X46772790Y-69722425D01*
X46704969Y-69739220D01*
X46638834Y-69716682D01*
X46599795Y-69671629D01*
X46588990Y-69650424D01*
X46552287Y-69578390D01*
X46544556Y-69567749D01*
X46431971Y-69412786D01*
X46287213Y-69268028D01*
X46121613Y-69147715D01*
X46121612Y-69147714D01*
X46121610Y-69147713D01*
X46064653Y-69118691D01*
X45939223Y-69054781D01*
X45744534Y-68991522D01*
X45569995Y-68963878D01*
X45542352Y-68959500D01*
X45337648Y-68959500D01*
X45313329Y-68963351D01*
X45135465Y-68991522D01*
X44940776Y-69054781D01*
X44758386Y-69147715D01*
X44592786Y-69268028D01*
X44448028Y-69412786D01*
X44327715Y-69578386D01*
X44280485Y-69671080D01*
X44232510Y-69721876D01*
X44164689Y-69738671D01*
X44098554Y-69716134D01*
X44059515Y-69671080D01*
X44058883Y-69669840D01*
X44012287Y-69578390D01*
X44004556Y-69567749D01*
X43891971Y-69412786D01*
X43747213Y-69268028D01*
X43581613Y-69147715D01*
X43581612Y-69147714D01*
X43581610Y-69147713D01*
X43524653Y-69118691D01*
X43399223Y-69054781D01*
X43204534Y-68991522D01*
X43029995Y-68963878D01*
X43002352Y-68959500D01*
X42797648Y-68959500D01*
X42773329Y-68963351D01*
X42595465Y-68991522D01*
X42400776Y-69054781D01*
X42218386Y-69147715D01*
X42052786Y-69268028D01*
X41908028Y-69412786D01*
X41787715Y-69578386D01*
X41740485Y-69671080D01*
X41692510Y-69721876D01*
X41624689Y-69738671D01*
X41558554Y-69716134D01*
X41519515Y-69671080D01*
X41518883Y-69669840D01*
X41472287Y-69578390D01*
X41464556Y-69567749D01*
X41351971Y-69412786D01*
X41207213Y-69268028D01*
X41041613Y-69147715D01*
X41041612Y-69147714D01*
X41041610Y-69147713D01*
X40984653Y-69118691D01*
X40859223Y-69054781D01*
X40664534Y-68991522D01*
X40489995Y-68963878D01*
X40462352Y-68959500D01*
X40257648Y-68959500D01*
X40233329Y-68963351D01*
X40055465Y-68991522D01*
X39860776Y-69054781D01*
X39678386Y-69147715D01*
X39512786Y-69268028D01*
X39368028Y-69412786D01*
X39247715Y-69578386D01*
X39154781Y-69760776D01*
X39091522Y-69955465D01*
X39059500Y-70157648D01*
X39059500Y-70362351D01*
X39091522Y-70564534D01*
X39154781Y-70759223D01*
X39247715Y-70941613D01*
X39368028Y-71107213D01*
X39512786Y-71251971D01*
X39616072Y-71327011D01*
X39678390Y-71372287D01*
X39758125Y-71412914D01*
X39860776Y-71465218D01*
X39860778Y-71465218D01*
X39860781Y-71465220D01*
X39935818Y-71489601D01*
X40055465Y-71528477D01*
X40134885Y-71541056D01*
X40257648Y-71560500D01*
X40257649Y-71560500D01*
X40462351Y-71560500D01*
X40462352Y-71560500D01*
X40664534Y-71528477D01*
X40859219Y-71465220D01*
X41041610Y-71372287D01*
X41134590Y-71304732D01*
X41207213Y-71251971D01*
X41207215Y-71251968D01*
X41207219Y-71251966D01*
X41351966Y-71107219D01*
X41351968Y-71107215D01*
X41351971Y-71107213D01*
X41472284Y-70941614D01*
X41472286Y-70941611D01*
X41472287Y-70941610D01*
X41519516Y-70848917D01*
X41567489Y-70798123D01*
X41635310Y-70781328D01*
X41701445Y-70803865D01*
X41740485Y-70848919D01*
X41787715Y-70941614D01*
X41908028Y-71107213D01*
X42052786Y-71251971D01*
X42156072Y-71327011D01*
X42218390Y-71372287D01*
X42298125Y-71412914D01*
X42400776Y-71465218D01*
X42400778Y-71465218D01*
X42400781Y-71465220D01*
X42475818Y-71489601D01*
X42595465Y-71528477D01*
X42674885Y-71541056D01*
X42797648Y-71560500D01*
X42797649Y-71560500D01*
X43002351Y-71560500D01*
X43002352Y-71560500D01*
X43204534Y-71528477D01*
X43399219Y-71465220D01*
X43581610Y-71372287D01*
X43674590Y-71304732D01*
X43747213Y-71251971D01*
X43747215Y-71251968D01*
X43747219Y-71251966D01*
X43891966Y-71107219D01*
X43891968Y-71107215D01*
X43891971Y-71107213D01*
X44012284Y-70941614D01*
X44012286Y-70941611D01*
X44012287Y-70941610D01*
X44059516Y-70848917D01*
X44107489Y-70798123D01*
X44175310Y-70781328D01*
X44241445Y-70803865D01*
X44280485Y-70848919D01*
X44327715Y-70941614D01*
X44448028Y-71107213D01*
X44592786Y-71251971D01*
X44696072Y-71327011D01*
X44758390Y-71372287D01*
X44838125Y-71412914D01*
X44940776Y-71465218D01*
X44940778Y-71465218D01*
X44940781Y-71465220D01*
X45015818Y-71489601D01*
X45135465Y-71528477D01*
X45214885Y-71541056D01*
X45337648Y-71560500D01*
X45337649Y-71560500D01*
X45542351Y-71560500D01*
X45542352Y-71560500D01*
X45744534Y-71528477D01*
X45939219Y-71465220D01*
X46121610Y-71372287D01*
X46214590Y-71304732D01*
X46287213Y-71251971D01*
X46287215Y-71251968D01*
X46287219Y-71251966D01*
X46431966Y-71107219D01*
X46431968Y-71107215D01*
X46431971Y-71107213D01*
X46552284Y-70941614D01*
X46552286Y-70941611D01*
X46552287Y-70941610D01*
X46599795Y-70848369D01*
X46647770Y-70797574D01*
X46715591Y-70780779D01*
X46781725Y-70803316D01*
X46820765Y-70848370D01*
X46868140Y-70941349D01*
X46988417Y-71106894D01*
X46988417Y-71106895D01*
X47133104Y-71251582D01*
X47298650Y-71371859D01*
X47480968Y-71464754D01*
X47675578Y-71527988D01*
X47730000Y-71536607D01*
X47730000Y-70693012D01*
X47787007Y-70725925D01*
X47914174Y-70760000D01*
X48045826Y-70760000D01*
X48172993Y-70725925D01*
X48230000Y-70693012D01*
X48230000Y-71536606D01*
X48284421Y-71527988D01*
X48479031Y-71464754D01*
X48661349Y-71371859D01*
X48826894Y-71251582D01*
X48826895Y-71251582D01*
X48971582Y-71106895D01*
X48971582Y-71106894D01*
X49091861Y-70941347D01*
X49139234Y-70848371D01*
X49187208Y-70797575D01*
X49255028Y-70780779D01*
X49321164Y-70803316D01*
X49360203Y-70848369D01*
X49407713Y-70941611D01*
X49528028Y-71107213D01*
X49672786Y-71251971D01*
X49776072Y-71327011D01*
X49838390Y-71372287D01*
X49918125Y-71412914D01*
X50020776Y-71465218D01*
X50020778Y-71465218D01*
X50020781Y-71465220D01*
X50095818Y-71489601D01*
X50215465Y-71528477D01*
X50294885Y-71541056D01*
X50417648Y-71560500D01*
X50417649Y-71560500D01*
X50622351Y-71560500D01*
X50622352Y-71560500D01*
X50824534Y-71528477D01*
X50838842Y-71523827D01*
X50908682Y-71521831D01*
X50964842Y-71554077D01*
X53275139Y-73864374D01*
X53275149Y-73864385D01*
X53279479Y-73868715D01*
X53279480Y-73868716D01*
X53391284Y-73980520D01*
X53478095Y-74030639D01*
X53478097Y-74030641D01*
X53514719Y-74051785D01*
X53528215Y-74059577D01*
X53680943Y-74100501D01*
X53680946Y-74100501D01*
X53846653Y-74100501D01*
X53846669Y-74100500D01*
X59413331Y-74100500D01*
X59413347Y-74100501D01*
X59420943Y-74100501D01*
X59579054Y-74100501D01*
X59579057Y-74100501D01*
X59731785Y-74059577D01*
X59781904Y-74030639D01*
X59868716Y-73980520D01*
X59980520Y-73868716D01*
X59980520Y-73868714D01*
X59990728Y-73858507D01*
X59990730Y-73858504D01*
X62407819Y-71441415D01*
X62469142Y-71407930D01*
X62538834Y-71412914D01*
X62594767Y-71454786D01*
X62619184Y-71520250D01*
X62619500Y-71529096D01*
X62619500Y-86979903D01*
X62599815Y-87046942D01*
X62583181Y-87067584D01*
X62519483Y-87131281D01*
X62519481Y-87131284D01*
X62440423Y-87268214D01*
X62440423Y-87268215D01*
X62399499Y-87420943D01*
X62399499Y-87420945D01*
X62399499Y-87579054D01*
X62399498Y-87579054D01*
X62399499Y-87579057D01*
X62440423Y-87731785D01*
X62519481Y-87868716D01*
X62519483Y-87868718D01*
X66363181Y-91712416D01*
X66396666Y-91773739D01*
X66399500Y-91800097D01*
X66399500Y-99199902D01*
X66379815Y-99266941D01*
X66363181Y-99287583D01*
X63787584Y-101863181D01*
X63726261Y-101896666D01*
X63699903Y-101899500D01*
X32586670Y-101899500D01*
X32586654Y-101899499D01*
X32579058Y-101899499D01*
X32420943Y-101899499D01*
X32344579Y-101919961D01*
X32268214Y-101940423D01*
X32268209Y-101940426D01*
X32131290Y-102019475D01*
X32131282Y-102019481D01*
X19519481Y-114631282D01*
X19519479Y-114631285D01*
X19490426Y-114681608D01*
X19490425Y-114681610D01*
X19440423Y-114768214D01*
X19440423Y-114768215D01*
X19399499Y-114920943D01*
X19399499Y-114920945D01*
X19399499Y-115089046D01*
X19399500Y-115089059D01*
X19399500Y-125413330D01*
X19399499Y-125413348D01*
X19399499Y-125579054D01*
X19399498Y-125579054D01*
X19000500Y-125579054D01*
X19000500Y-9124500D01*
X19020185Y-9057461D01*
X19072989Y-9011706D01*
X19124500Y-9000500D01*
X183375500Y-9000500D01*
X183442539Y-9020185D01*
G37*
%TD.AperFunction*%
%TD*%
M02*
