M48
; DRILL file {KiCad 9.0.7} date 2026-01-03T22:54:25+0100
; FORMAT={-:-/ absolute / metric / decimal}
; #@! TF.CreationDate,2026-01-03T22:54:25+01:00
; #@! TF.GenerationSoftware,Kicad,Pcbnew,9.0.7
; #@! TF.FileFunction,Plated,1,2,PTH
FMAT,2
METRIC
; #@! TA.AperFunction,Plated,PTH,ComponentDrill
T1C0.800
; #@! TA.AperFunction,Plated,PTH,ComponentDrill
T2C0.900
; #@! TA.AperFunction,Plated,PTH,ComponentDrill
T3C1.000
%
G90
G05
T1
X77.95Y-119.64
X83.0Y-77.19
X83.0Y-84.81
X84.5Y-103.5
X85.57Y-119.64
X92.12Y-103.5
X113.5Y-106.38
X113.5Y-114.0
X127.86Y-106.38
X127.86Y-114.0
X149.86Y-106.38
X149.86Y-114.0
T2
X91.46Y-119.5
X94.0Y-119.5
X113.64Y-120.46
X113.64Y-123.0
X128.0Y-120.46
X128.0Y-123.0
X150.0Y-120.46
X150.0Y-123.0
T3
X22.8Y-96.4
X22.8Y-119.26
X25.34Y-96.4
X25.34Y-119.26
X27.88Y-96.4
X27.88Y-119.26
X30.42Y-96.4
X30.42Y-119.26
X32.96Y-96.4
X32.96Y-119.26
X35.5Y-96.4
X35.5Y-119.26
X38.04Y-96.4
X38.04Y-119.26
X40.36Y-70.26
X40.58Y-96.4
X40.58Y-119.26
X42.9Y-70.26
X43.12Y-96.4
X43.12Y-119.26
X45.44Y-70.26
X45.66Y-96.4
X45.66Y-119.26
X47.98Y-70.26
X48.2Y-96.4
X48.2Y-119.26
X49.5Y-22.0
X50.52Y-70.26
X50.74Y-96.4
X50.74Y-119.26
X52.04Y-22.0
X53.06Y-70.26
X53.28Y-96.4
X53.28Y-119.26
X54.58Y-22.0
X55.6Y-70.26
X55.82Y-96.4
X55.82Y-119.26
X57.12Y-22.0
X58.14Y-70.26
X58.36Y-96.4
X58.36Y-119.26
X59.66Y-22.0
X60.68Y-70.26
X62.2Y-22.0
X63.22Y-70.26
X64.74Y-22.0
X67.28Y-22.0
X67.28Y-70.26
X69.82Y-70.26
X72.36Y-22.0
X72.36Y-70.26
X74.9Y-22.0
X74.9Y-70.26
X77.44Y-22.0
X77.44Y-70.26
X79.98Y-22.0
X79.98Y-70.26
X82.52Y-22.0
X82.52Y-70.26
X85.06Y-22.0
X85.06Y-70.26
X98.0Y-47.54
X99.72Y-22.0
X102.26Y-22.0
X104.8Y-22.0
X107.34Y-22.0
X108.0Y-47.54
X109.88Y-22.0
X112.42Y-22.0
X114.96Y-22.0
X117.5Y-22.0
X175.5Y-27.96
X175.5Y-30.5
X175.5Y-33.04
X175.5Y-111.42
X175.5Y-113.96
X175.5Y-116.5
M30
