%TF.GenerationSoftware,KiCad,Pcbnew,9.0.7*%
%TF.CreationDate,2026-01-03T22:54:21+01:00*%
%TF.ProjectId,R3Sender,52335365-6e64-4657-922e-6b696361645f,rev?*%
%TF.SameCoordinates,Original*%
%TF.FileFunction,Soldermask,Top*%
%TF.FilePolarity,Negative*%
%FSLAX46Y46*%
G04 Gerber Fmt 4.6, Leading zero omitted, Abs format (unit mm)*
G04 Created by KiCad (PCBNEW 9.0.7) date 2026-01-03 22:54:21*
%MOMM*%
%LPD*%
G01*
G04 APERTURE LIST*
%ADD10R,2.000000X2.000000*%
%ADD11C,2.000000*%
%ADD12R,1.800000X1.800000*%
%ADD13C,1.800000*%
%ADD14R,1.700000X1.700000*%
%ADD15C,1.700000*%
%ADD16C,1.600000*%
%ADD17R,1.600000X1.600000*%
%ADD18O,1.600000X1.600000*%
G04 APERTURE END LIST*
D10*
%TO.C,BZ1*%
X108000000Y-47540000D03*
D11*
X98000000Y-47540000D03*
%TD*%
D12*
%TO.C,D3*%
X150000000Y-123000000D03*
D13*
X150000000Y-120460000D03*
%TD*%
D14*
%TO.C,J1*%
X99720000Y-22000000D03*
D15*
X102260000Y-22000000D03*
X104800000Y-22000000D03*
X107340000Y-22000000D03*
X109880000Y-22000000D03*
X112420000Y-22000000D03*
X114960000Y-22000000D03*
X117500000Y-22000000D03*
%TD*%
D14*
%TO.C,J4*%
X22800000Y-119260000D03*
D15*
X25340000Y-119260000D03*
X27880000Y-119260000D03*
X30420000Y-119260000D03*
X32960000Y-119260000D03*
X35500000Y-119260000D03*
X38040000Y-119260000D03*
X40580000Y-119260000D03*
X43120000Y-119260000D03*
X45660000Y-119260000D03*
X48200000Y-119260000D03*
X50740000Y-119260000D03*
X53280000Y-119260000D03*
X55820000Y-119260000D03*
X58360000Y-119260000D03*
%TD*%
D16*
%TO.C,R2*%
X127860000Y-114000000D03*
X127860000Y-106380000D03*
%TD*%
%TO.C,R5*%
X83000000Y-84810000D03*
X83000000Y-77190000D03*
%TD*%
D17*
%TO.C,A1*%
X49500000Y-22000000D03*
D18*
X52040000Y-22000000D03*
X54580000Y-22000000D03*
X57120000Y-22000000D03*
X59660000Y-22000000D03*
X62200000Y-22000000D03*
X64740000Y-22000000D03*
X67280000Y-22000000D03*
X72360000Y-22000000D03*
X74900000Y-22000000D03*
X77440000Y-22000000D03*
X79980000Y-22000000D03*
X82520000Y-22000000D03*
X85060000Y-22000000D03*
X85060000Y-70260000D03*
X82520000Y-70260000D03*
X79980000Y-70260000D03*
X77440000Y-70260000D03*
X74900000Y-70260000D03*
X72360000Y-70260000D03*
X69820000Y-70260000D03*
X67280000Y-70260000D03*
X63220000Y-70260000D03*
X60680000Y-70260000D03*
X58140000Y-70260000D03*
X55600000Y-70260000D03*
X53060000Y-70260000D03*
X50520000Y-70260000D03*
X47980000Y-70260000D03*
X45440000Y-70260000D03*
X42900000Y-70260000D03*
X40360000Y-70260000D03*
%TD*%
D12*
%TO.C,D4*%
X94000000Y-119500000D03*
D13*
X91460000Y-119500000D03*
%TD*%
D12*
%TO.C,D2*%
X128000000Y-123000000D03*
D13*
X128000000Y-120460000D03*
%TD*%
D16*
%TO.C,R4*%
X85570000Y-119640000D03*
X77950000Y-119640000D03*
%TD*%
D14*
%TO.C,J2*%
X175500000Y-33040000D03*
D15*
X175500000Y-30500000D03*
X175500000Y-27960000D03*
%TD*%
D16*
%TO.C,R6*%
X84500000Y-103500000D03*
X92120000Y-103500000D03*
%TD*%
D12*
%TO.C,D1*%
X113640000Y-123000000D03*
D13*
X113640000Y-120460000D03*
%TD*%
D16*
%TO.C,R3*%
X149860000Y-114000000D03*
X149860000Y-106380000D03*
%TD*%
D14*
%TO.C,J3*%
X175500000Y-116500000D03*
D15*
X175500000Y-113960000D03*
X175500000Y-111420000D03*
%TD*%
D14*
%TO.C,J5*%
X22800000Y-96400000D03*
D15*
X25340000Y-96400000D03*
X27880000Y-96400000D03*
X30420000Y-96400000D03*
X32960000Y-96400000D03*
X35500000Y-96400000D03*
X38040000Y-96400000D03*
X40580000Y-96400000D03*
X43120000Y-96400000D03*
X45660000Y-96400000D03*
X48200000Y-96400000D03*
X50740000Y-96400000D03*
X53280000Y-96400000D03*
X55820000Y-96400000D03*
X58360000Y-96400000D03*
%TD*%
D16*
%TO.C,R1*%
X113500000Y-114000000D03*
X113500000Y-106380000D03*
%TD*%
M02*
