M48
; DRILL file {KiCad 9.0.7} date 2026-01-03T23:35:51+0100
; FORMAT={-:-/ absolute / metric / decimal}
; #@! TF.CreationDate,2026-01-03T23:35:51+01:00
; #@! TF.GenerationSoftware,Kicad,Pcbnew,9.0.7
; #@! TF.FileFunction,Plated,1,2,PTH
FMAT,2
METRIC
; #@! TA.AperFunction,Plated,PTH,ComponentDrill
T1C0.800
; #@! TA.AperFunction,Plated,PTH,ComponentDrill
T2C0.900
; #@! TA.AperFunction,Plated,PTH,ComponentDrill
T3C1.000
; #@! TA.AperFunction,Plated,PTH,ComponentDrill
T4C1.300
%
G90
G05
T1
X67.9Y-51.6
X67.9Y-59.22
X83.9Y-51.6
X83.9Y-59.22
X99.9Y-51.6
X99.9Y-59.22
T2
X67.9Y-65.06
X67.9Y-67.6
X83.9Y-65.06
X83.9Y-67.6
X99.9Y-65.06
X99.9Y-67.6
T3
X19.56Y-18.82
X19.56Y-41.5
X22.1Y-18.82
X22.1Y-41.5
X24.64Y-18.82
X24.64Y-41.5
X27.18Y-18.82
X27.18Y-41.5
X29.72Y-18.82
X29.72Y-41.5
X32.26Y-18.82
X32.26Y-41.5
X34.8Y-18.82
X34.8Y-41.5
X37.34Y-18.82
X37.34Y-41.5
X39.88Y-18.82
X39.88Y-41.5
X42.42Y-18.82
X42.42Y-41.5
X44.96Y-18.82
X44.96Y-41.5
X47.5Y-18.82
X47.5Y-41.5
X50.04Y-18.82
X50.04Y-41.5
X52.58Y-18.82
X52.58Y-41.5
X55.12Y-18.82
X55.12Y-41.5
X68.0Y-29.8
X78.0Y-29.8
X92.0Y-29.8
X102.0Y-29.8
T4
X26.75Y-58.55
X33.25Y-58.55
M30
