%TF.GenerationSoftware,KiCad,Pcbnew,9.0.7*%
%TF.CreationDate,2026-01-03T23:35:48+01:00*%
%TF.ProjectId,Empfaenger,456d7066-6165-46e6-9765-722e6b696361,rev?*%
%TF.SameCoordinates,Original*%
%TF.FileFunction,Copper,L1,Top*%
%TF.FilePolarity,Positive*%
%FSLAX46Y46*%
G04 Gerber Fmt 4.6, Leading zero omitted, Abs format (unit mm)*
G04 Created by KiCad (PCBNEW 9.0.7) date 2026-01-03 23:35:48*
%MOMM*%
%LPD*%
G01*
G04 APERTURE LIST*
%TA.AperFunction,ComponentPad*%
%ADD10C,2.000000*%
%TD*%
%TA.AperFunction,ComponentPad*%
%ADD11R,2.000000X2.000000*%
%TD*%
%TA.AperFunction,ComponentPad*%
%ADD12R,2.250000X2.250000*%
%TD*%
%TA.AperFunction,ComponentPad*%
%ADD13C,2.250000*%
%TD*%
%TA.AperFunction,ComponentPad*%
%ADD14C,1.800000*%
%TD*%
%TA.AperFunction,ComponentPad*%
%ADD15R,1.800000X1.800000*%
%TD*%
%TA.AperFunction,ComponentPad*%
%ADD16C,1.600000*%
%TD*%
%TA.AperFunction,ComponentPad*%
%ADD17R,1.700000X1.700000*%
%TD*%
%TA.AperFunction,ComponentPad*%
%ADD18C,1.700000*%
%TD*%
G04 APERTURE END LIST*
D10*
%TO.P,BZ1,2,-*%
%TO.N,Net-(BZ1--)*%
X68000000Y-29800000D03*
D11*
%TO.P,BZ1,1,+*%
%TO.N,GND*%
X78000000Y-29800000D03*
%TD*%
D12*
%TO.P,SW1,1,1*%
%TO.N,Net-(J1-Pin_6)*%
X26750000Y-58550000D03*
D13*
%TO.P,SW1,2,2*%
%TO.N,GND*%
X33250000Y-58550000D03*
%TD*%
D14*
%TO.P,D1,2,A*%
%TO.N,Net-(D1-A)*%
X99900000Y-65060000D03*
D15*
%TO.P,D1,1,K*%
%TO.N,GND*%
X99900000Y-67600000D03*
%TD*%
D16*
%TO.P,R1,2*%
%TO.N,Net-(D1-A)*%
X99900000Y-59220000D03*
%TO.P,R1,1*%
%TO.N,Net-(J1-Pin_14)*%
X99900000Y-51600000D03*
%TD*%
%TO.P,R3,1*%
%TO.N,Net-(J1-Pin_12)*%
X67900000Y-51600000D03*
%TO.P,R3,2*%
%TO.N,Net-(D3-A)*%
X67900000Y-59220000D03*
%TD*%
%TO.P,R2,1*%
%TO.N,Net-(J1-Pin_13)*%
X83900000Y-51600000D03*
%TO.P,R2,2*%
%TO.N,Net-(D2-A)*%
X83900000Y-59220000D03*
%TD*%
D17*
%TO.P,J2,1,Pin_1*%
%TO.N,unconnected-(J2-Pin_1-Pad1)*%
X19560000Y-18820000D03*
D18*
%TO.P,J2,2,Pin_2*%
%TO.N,GND*%
X22100000Y-18820000D03*
%TO.P,J2,3,Pin_3*%
%TO.N,unconnected-(J2-Pin_3-Pad3)*%
X24640000Y-18820000D03*
%TO.P,J2,4,Pin_4*%
%TO.N,unconnected-(J2-Pin_4-Pad4)*%
X27180000Y-18820000D03*
%TO.P,J2,5,Pin_5*%
%TO.N,unconnected-(J2-Pin_5-Pad5)*%
X29720000Y-18820000D03*
%TO.P,J2,6,Pin_6*%
%TO.N,GND*%
X32260000Y-18820000D03*
%TO.P,J2,7,Pin_7*%
%TO.N,unconnected-(J2-Pin_7-Pad7)*%
X34800000Y-18820000D03*
%TO.P,J2,8,Pin_8*%
%TO.N,unconnected-(J2-Pin_8-Pad8)*%
X37340000Y-18820000D03*
%TO.P,J2,9,Pin_9*%
%TO.N,unconnected-(J2-Pin_9-Pad9)*%
X39880000Y-18820000D03*
%TO.P,J2,10,Pin_10*%
%TO.N,unconnected-(J2-Pin_10-Pad10)*%
X42420000Y-18820000D03*
%TO.P,J2,11,Pin_11*%
%TO.N,unconnected-(J2-Pin_11-Pad11)*%
X44960000Y-18820000D03*
%TO.P,J2,12,Pin_12*%
%TO.N,unconnected-(J2-Pin_12-Pad12)*%
X47500000Y-18820000D03*
%TO.P,J2,13,Pin_13*%
%TO.N,unconnected-(J2-Pin_13-Pad13)*%
X50040000Y-18820000D03*
%TO.P,J2,14,Pin_14*%
%TO.N,unconnected-(J2-Pin_14-Pad14)*%
X52580000Y-18820000D03*
%TO.P,J2,15,Pin_15*%
%TO.N,unconnected-(J2-Pin_15-Pad15)*%
X55120000Y-18820000D03*
%TD*%
D17*
%TO.P,J1,1,Pin_1*%
%TO.N,unconnected-(J1-Pin_1-Pad1)*%
X19560000Y-41500000D03*
D18*
%TO.P,J1,2,Pin_2*%
%TO.N,unconnected-(J1-Pin_2-Pad2)*%
X22100000Y-41500000D03*
%TO.P,J1,3,Pin_3*%
%TO.N,unconnected-(J1-Pin_3-Pad3)*%
X24640000Y-41500000D03*
%TO.P,J1,4,Pin_4*%
%TO.N,unconnected-(J1-Pin_4-Pad4)*%
X27180000Y-41500000D03*
%TO.P,J1,5,Pin_5*%
%TO.N,unconnected-(J1-Pin_5-Pad5)*%
X29720000Y-41500000D03*
%TO.P,J1,6,Pin_6*%
%TO.N,Net-(J1-Pin_6)*%
X32260000Y-41500000D03*
%TO.P,J1,7,Pin_7*%
%TO.N,Net-(BZ1--)*%
X34800000Y-41500000D03*
%TO.P,J1,8,Pin_8*%
%TO.N,Net-(BZ2--)*%
X37340000Y-41500000D03*
%TO.P,J1,9,Pin_9*%
%TO.N,GND*%
X39880000Y-41500000D03*
%TO.P,J1,10,Pin_10*%
%TO.N,unconnected-(J1-Pin_10-Pad10)*%
X42420000Y-41500000D03*
%TO.P,J1,11,Pin_11*%
%TO.N,unconnected-(J1-Pin_11-Pad11)*%
X44960000Y-41500000D03*
%TO.P,J1,12,Pin_12*%
%TO.N,Net-(J1-Pin_12)*%
X47500000Y-41500000D03*
%TO.P,J1,13,Pin_13*%
%TO.N,Net-(J1-Pin_13)*%
X50040000Y-41500000D03*
%TO.P,J1,14,Pin_14*%
%TO.N,Net-(J1-Pin_14)*%
X52580000Y-41500000D03*
%TO.P,J1,15,Pin_15*%
%TO.N,unconnected-(J1-Pin_15-Pad15)*%
X55120000Y-41500000D03*
%TD*%
D15*
%TO.P,D3,1,K*%
%TO.N,GND*%
X67900000Y-67600000D03*
D14*
%TO.P,D3,2,A*%
%TO.N,Net-(D3-A)*%
X67900000Y-65060000D03*
%TD*%
D15*
%TO.P,D2,1,K*%
%TO.N,GND*%
X83900000Y-67600000D03*
D14*
%TO.P,D2,2,A*%
%TO.N,Net-(D2-A)*%
X83900000Y-65060000D03*
%TD*%
D11*
%TO.P,BZ2,1,+*%
%TO.N,GND*%
X102000000Y-29800000D03*
D10*
%TO.P,BZ2,2,-*%
%TO.N,Net-(BZ2--)*%
X92000000Y-29800000D03*
%TD*%
M02*
