%TF.GenerationSoftware,KiCad,Pcbnew,9.0.7*%
%TF.CreationDate,2026-01-03T23:35:48+01:00*%
%TF.ProjectId,Empfaenger,456d7066-6165-46e6-9765-722e6b696361,rev?*%
%TF.SameCoordinates,Original*%
%TF.FileFunction,Soldermask,Top*%
%TF.FilePolarity,Negative*%
%FSLAX46Y46*%
G04 Gerber Fmt 4.6, Leading zero omitted, Abs format (unit mm)*
G04 Created by KiCad (PCBNEW 9.0.7) date 2026-01-03 23:35:48*
%MOMM*%
%LPD*%
G01*
G04 APERTURE LIST*
%ADD10C,2.000000*%
%ADD11R,2.000000X2.000000*%
%ADD12R,2.250000X2.250000*%
%ADD13C,2.250000*%
%ADD14C,1.800000*%
%ADD15R,1.800000X1.800000*%
%ADD16C,1.600000*%
%ADD17R,1.700000X1.700000*%
%ADD18C,1.700000*%
G04 APERTURE END LIST*
D10*
%TO.C,BZ1*%
X68000000Y-29800000D03*
D11*
X78000000Y-29800000D03*
%TD*%
D12*
%TO.C,SW1*%
X26750000Y-58550000D03*
D13*
X33250000Y-58550000D03*
%TD*%
D14*
%TO.C,D1*%
X99900000Y-65060000D03*
D15*
X99900000Y-67600000D03*
%TD*%
D16*
%TO.C,R1*%
X99900000Y-59220000D03*
X99900000Y-51600000D03*
%TD*%
%TO.C,R3*%
X67900000Y-51600000D03*
X67900000Y-59220000D03*
%TD*%
%TO.C,R2*%
X83900000Y-51600000D03*
X83900000Y-59220000D03*
%TD*%
D17*
%TO.C,J2*%
X19560000Y-18820000D03*
D18*
X22100000Y-18820000D03*
X24640000Y-18820000D03*
X27180000Y-18820000D03*
X29720000Y-18820000D03*
X32260000Y-18820000D03*
X34800000Y-18820000D03*
X37340000Y-18820000D03*
X39880000Y-18820000D03*
X42420000Y-18820000D03*
X44960000Y-18820000D03*
X47500000Y-18820000D03*
X50040000Y-18820000D03*
X52580000Y-18820000D03*
X55120000Y-18820000D03*
%TD*%
D17*
%TO.C,J1*%
X19560000Y-41500000D03*
D18*
X22100000Y-41500000D03*
X24640000Y-41500000D03*
X27180000Y-41500000D03*
X29720000Y-41500000D03*
X32260000Y-41500000D03*
X34800000Y-41500000D03*
X37340000Y-41500000D03*
X39880000Y-41500000D03*
X42420000Y-41500000D03*
X44960000Y-41500000D03*
X47500000Y-41500000D03*
X50040000Y-41500000D03*
X52580000Y-41500000D03*
X55120000Y-41500000D03*
%TD*%
D15*
%TO.C,D3*%
X67900000Y-67600000D03*
D14*
X67900000Y-65060000D03*
%TD*%
D15*
%TO.C,D2*%
X83900000Y-67600000D03*
D14*
X83900000Y-65060000D03*
%TD*%
D11*
%TO.C,BZ2*%
X102000000Y-29800000D03*
D10*
X92000000Y-29800000D03*
%TD*%
M02*
