%TF.GenerationSoftware,KiCad,Pcbnew,9.0.7*%
%TF.CreationDate,2026-01-03T23:35:48+01:00*%
%TF.ProjectId,Empfaenger,456d7066-6165-46e6-9765-722e6b696361,rev?*%
%TF.SameCoordinates,Original*%
%TF.FileFunction,Copper,L2,Bot*%
%TF.FilePolarity,Positive*%
%FSLAX46Y46*%
G04 Gerber Fmt 4.6, Leading zero omitted, Abs format (unit mm)*
G04 Created by KiCad (PCBNEW 9.0.7) date 2026-01-03 23:35:48*
%MOMM*%
%LPD*%
G01*
G04 APERTURE LIST*
%TA.AperFunction,NonConductor*%
%ADD10C,0.200000*%
%TD*%
%TA.AperFunction,ComponentPad*%
%ADD11C,2.000000*%
%TD*%
%TA.AperFunction,ComponentPad*%
%ADD12R,2.000000X2.000000*%
%TD*%
%TA.AperFunction,ComponentPad*%
%ADD13R,2.250000X2.250000*%
%TD*%
%TA.AperFunction,ComponentPad*%
%ADD14C,2.250000*%
%TD*%
%TA.AperFunction,ComponentPad*%
%ADD15C,1.800000*%
%TD*%
%TA.AperFunction,ComponentPad*%
%ADD16R,1.800000X1.800000*%
%TD*%
%TA.AperFunction,ComponentPad*%
%ADD17C,1.600000*%
%TD*%
%TA.AperFunction,ComponentPad*%
%ADD18R,1.700000X1.700000*%
%TD*%
%TA.AperFunction,ComponentPad*%
%ADD19C,1.700000*%
%TD*%
%TA.AperFunction,Conductor*%
%ADD20C,0.200000*%
%TD*%
G04 APERTURE END LIST*
D10*
X13800000Y-8900000D02*
X116000000Y-8900000D01*
X116000000Y-81000000D01*
X13800000Y-81000000D01*
X13800000Y-8900000D01*
D11*
%TO.P,BZ1,2,-*%
%TO.N,Net-(BZ1--)*%
X68000000Y-29800000D03*
D12*
%TO.P,BZ1,1,+*%
%TO.N,GND*%
X78000000Y-29800000D03*
%TD*%
D13*
%TO.P,SW1,1,1*%
%TO.N,Net-(J1-Pin_6)*%
X26750000Y-58550000D03*
D14*
%TO.P,SW1,2,2*%
%TO.N,GND*%
X33250000Y-58550000D03*
%TD*%
D15*
%TO.P,D1,2,A*%
%TO.N,Net-(D1-A)*%
X99900000Y-65060000D03*
D16*
%TO.P,D1,1,K*%
%TO.N,GND*%
X99900000Y-67600000D03*
%TD*%
D17*
%TO.P,R1,2*%
%TO.N,Net-(D1-A)*%
X99900000Y-59220000D03*
%TO.P,R1,1*%
%TO.N,Net-(J1-Pin_14)*%
X99900000Y-51600000D03*
%TD*%
%TO.P,R3,1*%
%TO.N,Net-(J1-Pin_12)*%
X67900000Y-51600000D03*
%TO.P,R3,2*%
%TO.N,Net-(D3-A)*%
X67900000Y-59220000D03*
%TD*%
%TO.P,R2,1*%
%TO.N,Net-(J1-Pin_13)*%
X83900000Y-51600000D03*
%TO.P,R2,2*%
%TO.N,Net-(D2-A)*%
X83900000Y-59220000D03*
%TD*%
D18*
%TO.P,J2,1,Pin_1*%
%TO.N,unconnected-(J2-Pin_1-Pad1)*%
X19560000Y-18820000D03*
D19*
%TO.P,J2,2,Pin_2*%
%TO.N,GND*%
X22100000Y-18820000D03*
%TO.P,J2,3,Pin_3*%
%TO.N,unconnected-(J2-Pin_3-Pad3)*%
X24640000Y-18820000D03*
%TO.P,J2,4,Pin_4*%
%TO.N,unconnected-(J2-Pin_4-Pad4)*%
X27180000Y-18820000D03*
%TO.P,J2,5,Pin_5*%
%TO.N,unconnected-(J2-Pin_5-Pad5)*%
X29720000Y-18820000D03*
%TO.P,J2,6,Pin_6*%
%TO.N,GND*%
X32260000Y-18820000D03*
%TO.P,J2,7,Pin_7*%
%TO.N,unconnected-(J2-Pin_7-Pad7)*%
X34800000Y-18820000D03*
%TO.P,J2,8,Pin_8*%
%TO.N,unconnected-(J2-Pin_8-Pad8)*%
X37340000Y-18820000D03*
%TO.P,J2,9,Pin_9*%
%TO.N,unconnected-(J2-Pin_9-Pad9)*%
X39880000Y-18820000D03*
%TO.P,J2,10,Pin_10*%
%TO.N,unconnected-(J2-Pin_10-Pad10)*%
X42420000Y-18820000D03*
%TO.P,J2,11,Pin_11*%
%TO.N,unconnected-(J2-Pin_11-Pad11)*%
X44960000Y-18820000D03*
%TO.P,J2,12,Pin_12*%
%TO.N,unconnected-(J2-Pin_12-Pad12)*%
X47500000Y-18820000D03*
%TO.P,J2,13,Pin_13*%
%TO.N,unconnected-(J2-Pin_13-Pad13)*%
X50040000Y-18820000D03*
%TO.P,J2,14,Pin_14*%
%TO.N,unconnected-(J2-Pin_14-Pad14)*%
X52580000Y-18820000D03*
%TO.P,J2,15,Pin_15*%
%TO.N,unconnected-(J2-Pin_15-Pad15)*%
X55120000Y-18820000D03*
%TD*%
D18*
%TO.P,J1,1,Pin_1*%
%TO.N,unconnected-(J1-Pin_1-Pad1)*%
X19560000Y-41500000D03*
D19*
%TO.P,J1,2,Pin_2*%
%TO.N,unconnected-(J1-Pin_2-Pad2)*%
X22100000Y-41500000D03*
%TO.P,J1,3,Pin_3*%
%TO.N,unconnected-(J1-Pin_3-Pad3)*%
X24640000Y-41500000D03*
%TO.P,J1,4,Pin_4*%
%TO.N,unconnected-(J1-Pin_4-Pad4)*%
X27180000Y-41500000D03*
%TO.P,J1,5,Pin_5*%
%TO.N,unconnected-(J1-Pin_5-Pad5)*%
X29720000Y-41500000D03*
%TO.P,J1,6,Pin_6*%
%TO.N,Net-(J1-Pin_6)*%
X32260000Y-41500000D03*
%TO.P,J1,7,Pin_7*%
%TO.N,Net-(BZ1--)*%
X34800000Y-41500000D03*
%TO.P,J1,8,Pin_8*%
%TO.N,Net-(BZ2--)*%
X37340000Y-41500000D03*
%TO.P,J1,9,Pin_9*%
%TO.N,GND*%
X39880000Y-41500000D03*
%TO.P,J1,10,Pin_10*%
%TO.N,unconnected-(J1-Pin_10-Pad10)*%
X42420000Y-41500000D03*
%TO.P,J1,11,Pin_11*%
%TO.N,unconnected-(J1-Pin_11-Pad11)*%
X44960000Y-41500000D03*
%TO.P,J1,12,Pin_12*%
%TO.N,Net-(J1-Pin_12)*%
X47500000Y-41500000D03*
%TO.P,J1,13,Pin_13*%
%TO.N,Net-(J1-Pin_13)*%
X50040000Y-41500000D03*
%TO.P,J1,14,Pin_14*%
%TO.N,Net-(J1-Pin_14)*%
X52580000Y-41500000D03*
%TO.P,J1,15,Pin_15*%
%TO.N,unconnected-(J1-Pin_15-Pad15)*%
X55120000Y-41500000D03*
%TD*%
D16*
%TO.P,D3,1,K*%
%TO.N,GND*%
X67900000Y-67600000D03*
D15*
%TO.P,D3,2,A*%
%TO.N,Net-(D3-A)*%
X67900000Y-65060000D03*
%TD*%
D16*
%TO.P,D2,1,K*%
%TO.N,GND*%
X83900000Y-67600000D03*
D15*
%TO.P,D2,2,A*%
%TO.N,Net-(D2-A)*%
X83900000Y-65060000D03*
%TD*%
D12*
%TO.P,BZ2,1,+*%
%TO.N,GND*%
X102000000Y-29800000D03*
D11*
%TO.P,BZ2,2,-*%
%TO.N,Net-(BZ2--)*%
X92000000Y-29800000D03*
%TD*%
D20*
%TO.N,Net-(BZ2--)*%
X44140000Y-34700000D02*
X87100000Y-34700000D01*
X87100000Y-34700000D02*
X92000000Y-29800000D01*
X37340000Y-41500000D02*
X44140000Y-34700000D01*
%TO.N,Net-(D3-A)*%
X67900000Y-59220000D02*
X67900000Y-65060000D01*
%TO.N,Net-(D2-A)*%
X83900000Y-59220000D02*
X83900000Y-65060000D01*
%TO.N,Net-(D1-A)*%
X99900000Y-59220000D02*
X99900000Y-65060000D01*
%TO.N,Net-(J1-Pin_14)*%
X99900000Y-50300000D02*
X99900000Y-51600000D01*
X96105114Y-46371439D02*
X96105114Y-46505114D01*
X57451439Y-46371439D02*
X96105114Y-46371439D01*
X96105114Y-46505114D02*
X99900000Y-50300000D01*
X52580000Y-41500000D02*
X57451439Y-46371439D01*
%TO.N,Net-(J1-Pin_13)*%
X83900000Y-50100000D02*
X83900000Y-51600000D01*
X56840000Y-48300000D02*
X82100000Y-48300000D01*
X50040000Y-41500000D02*
X56840000Y-48300000D01*
X82100000Y-48300000D02*
X83900000Y-50100000D01*
%TO.N,Net-(J1-Pin_12)*%
X57600000Y-51600000D02*
X67900000Y-51600000D01*
X47500000Y-41500000D02*
X57600000Y-51600000D01*
%TO.N,Net-(BZ1--)*%
X58400000Y-29800000D02*
X68000000Y-29800000D01*
X58300000Y-29900000D02*
X58400000Y-29800000D01*
X46400000Y-29900000D02*
X58300000Y-29900000D01*
X34800000Y-41500000D02*
X46400000Y-29900000D01*
%TO.N,Net-(J1-Pin_6)*%
X31940000Y-53360000D02*
X26750000Y-58550000D01*
X32260000Y-53360000D02*
X31940000Y-53360000D01*
X32260000Y-41500000D02*
X32260000Y-53360000D01*
%TO.N,GND*%
X33250000Y-58250000D02*
X33500000Y-58000000D01*
X33250000Y-58550000D02*
X33250000Y-57750000D01*
X33250000Y-57750000D02*
X33400000Y-57600000D01*
X33250000Y-58550000D02*
X33250000Y-58250000D01*
%TD*%
%TA.AperFunction,Conductor*%
%TO.N,GND*%
G36*
X112042539Y-12620185D02*
G01*
X112088294Y-12672989D01*
X112099500Y-12724500D01*
X112099500Y-76575500D01*
X112079815Y-76642539D01*
X112027011Y-76688294D01*
X111975500Y-76699500D01*
X18224500Y-76699500D01*
X18157461Y-76679815D01*
X18111706Y-76627011D01*
X18100500Y-76575500D01*
X18100500Y-64949778D01*
X66499500Y-64949778D01*
X66499500Y-65170221D01*
X66533985Y-65387952D01*
X66602103Y-65597603D01*
X66602104Y-65597606D01*
X66702187Y-65794025D01*
X66831752Y-65972358D01*
X66831756Y-65972363D01*
X66882316Y-66022923D01*
X66915801Y-66084246D01*
X66910817Y-66153938D01*
X66868945Y-66209871D01*
X66837969Y-66226785D01*
X66757918Y-66256643D01*
X66757906Y-66256649D01*
X66642812Y-66342809D01*
X66642809Y-66342812D01*
X66556649Y-66457906D01*
X66556645Y-66457913D01*
X66506403Y-66592620D01*
X66506401Y-66592627D01*
X66500000Y-66652155D01*
X66500000Y-67350000D01*
X67524722Y-67350000D01*
X67480667Y-67426306D01*
X67450000Y-67540756D01*
X67450000Y-67659244D01*
X67480667Y-67773694D01*
X67524722Y-67850000D01*
X66500000Y-67850000D01*
X66500000Y-68547844D01*
X66506401Y-68607372D01*
X66506403Y-68607379D01*
X66556645Y-68742086D01*
X66556649Y-68742093D01*
X66642809Y-68857187D01*
X66642812Y-68857190D01*
X66757906Y-68943350D01*
X66757913Y-68943354D01*
X66892620Y-68993596D01*
X66892627Y-68993598D01*
X66952155Y-68999999D01*
X66952172Y-69000000D01*
X67650000Y-69000000D01*
X67650000Y-67975277D01*
X67726306Y-68019333D01*
X67840756Y-68050000D01*
X67959244Y-68050000D01*
X68073694Y-68019333D01*
X68150000Y-67975277D01*
X68150000Y-69000000D01*
X68847828Y-69000000D01*
X68847844Y-68999999D01*
X68907372Y-68993598D01*
X68907379Y-68993596D01*
X69042086Y-68943354D01*
X69042093Y-68943350D01*
X69157187Y-68857190D01*
X69157190Y-68857187D01*
X69243350Y-68742093D01*
X69243354Y-68742086D01*
X69293596Y-68607379D01*
X69293598Y-68607372D01*
X69299999Y-68547844D01*
X69300000Y-68547827D01*
X69300000Y-67850000D01*
X68275278Y-67850000D01*
X68319333Y-67773694D01*
X68350000Y-67659244D01*
X68350000Y-67540756D01*
X68319333Y-67426306D01*
X68275278Y-67350000D01*
X69300000Y-67350000D01*
X69300000Y-66652172D01*
X69299999Y-66652155D01*
X69293598Y-66592627D01*
X69293596Y-66592620D01*
X69243354Y-66457913D01*
X69243350Y-66457906D01*
X69157190Y-66342812D01*
X69157187Y-66342809D01*
X69042093Y-66256649D01*
X69042087Y-66256646D01*
X68962030Y-66226786D01*
X68906097Y-66184914D01*
X68881680Y-66119450D01*
X68896532Y-66051177D01*
X68917681Y-66022925D01*
X68968242Y-65972365D01*
X69097815Y-65794022D01*
X69197895Y-65597606D01*
X69266015Y-65387951D01*
X69300500Y-65170222D01*
X69300500Y-64949778D01*
X82499500Y-64949778D01*
X82499500Y-65170221D01*
X82533985Y-65387952D01*
X82602103Y-65597603D01*
X82602104Y-65597606D01*
X82702187Y-65794025D01*
X82831752Y-65972358D01*
X82831756Y-65972363D01*
X82882316Y-66022923D01*
X82915801Y-66084246D01*
X82910817Y-66153938D01*
X82868945Y-66209871D01*
X82837969Y-66226785D01*
X82757918Y-66256643D01*
X82757906Y-66256649D01*
X82642812Y-66342809D01*
X82642809Y-66342812D01*
X82556649Y-66457906D01*
X82556645Y-66457913D01*
X82506403Y-66592620D01*
X82506401Y-66592627D01*
X82500000Y-66652155D01*
X82500000Y-67350000D01*
X83524722Y-67350000D01*
X83480667Y-67426306D01*
X83450000Y-67540756D01*
X83450000Y-67659244D01*
X83480667Y-67773694D01*
X83524722Y-67850000D01*
X82500000Y-67850000D01*
X82500000Y-68547844D01*
X82506401Y-68607372D01*
X82506403Y-68607379D01*
X82556645Y-68742086D01*
X82556649Y-68742093D01*
X82642809Y-68857187D01*
X82642812Y-68857190D01*
X82757906Y-68943350D01*
X82757913Y-68943354D01*
X82892620Y-68993596D01*
X82892627Y-68993598D01*
X82952155Y-68999999D01*
X82952172Y-69000000D01*
X83650000Y-69000000D01*
X83650000Y-67975277D01*
X83726306Y-68019333D01*
X83840756Y-68050000D01*
X83959244Y-68050000D01*
X84073694Y-68019333D01*
X84150000Y-67975277D01*
X84150000Y-69000000D01*
X84847828Y-69000000D01*
X84847844Y-68999999D01*
X84907372Y-68993598D01*
X84907379Y-68993596D01*
X85042086Y-68943354D01*
X85042093Y-68943350D01*
X85157187Y-68857190D01*
X85157190Y-68857187D01*
X85243350Y-68742093D01*
X85243354Y-68742086D01*
X85293596Y-68607379D01*
X85293598Y-68607372D01*
X85299999Y-68547844D01*
X85300000Y-68547827D01*
X85300000Y-67850000D01*
X84275278Y-67850000D01*
X84319333Y-67773694D01*
X84350000Y-67659244D01*
X84350000Y-67540756D01*
X84319333Y-67426306D01*
X84275278Y-67350000D01*
X85300000Y-67350000D01*
X85300000Y-66652172D01*
X85299999Y-66652155D01*
X85293598Y-66592627D01*
X85293596Y-66592620D01*
X85243354Y-66457913D01*
X85243350Y-66457906D01*
X85157190Y-66342812D01*
X85157187Y-66342809D01*
X85042093Y-66256649D01*
X85042087Y-66256646D01*
X84962030Y-66226786D01*
X84906097Y-66184914D01*
X84881680Y-66119450D01*
X84896532Y-66051177D01*
X84917681Y-66022925D01*
X84968242Y-65972365D01*
X85097815Y-65794022D01*
X85197895Y-65597606D01*
X85266015Y-65387951D01*
X85300500Y-65170222D01*
X85300500Y-64949778D01*
X98499500Y-64949778D01*
X98499500Y-65170221D01*
X98533985Y-65387952D01*
X98602103Y-65597603D01*
X98602104Y-65597606D01*
X98702187Y-65794025D01*
X98831752Y-65972358D01*
X98831756Y-65972363D01*
X98882316Y-66022923D01*
X98915801Y-66084246D01*
X98910817Y-66153938D01*
X98868945Y-66209871D01*
X98837969Y-66226785D01*
X98757918Y-66256643D01*
X98757906Y-66256649D01*
X98642812Y-66342809D01*
X98642809Y-66342812D01*
X98556649Y-66457906D01*
X98556645Y-66457913D01*
X98506403Y-66592620D01*
X98506401Y-66592627D01*
X98500000Y-66652155D01*
X98500000Y-67350000D01*
X99524722Y-67350000D01*
X99480667Y-67426306D01*
X99450000Y-67540756D01*
X99450000Y-67659244D01*
X99480667Y-67773694D01*
X99524722Y-67850000D01*
X98500000Y-67850000D01*
X98500000Y-68547844D01*
X98506401Y-68607372D01*
X98506403Y-68607379D01*
X98556645Y-68742086D01*
X98556649Y-68742093D01*
X98642809Y-68857187D01*
X98642812Y-68857190D01*
X98757906Y-68943350D01*
X98757913Y-68943354D01*
X98892620Y-68993596D01*
X98892627Y-68993598D01*
X98952155Y-68999999D01*
X98952172Y-69000000D01*
X99650000Y-69000000D01*
X99650000Y-67975277D01*
X99726306Y-68019333D01*
X99840756Y-68050000D01*
X99959244Y-68050000D01*
X100073694Y-68019333D01*
X100150000Y-67975277D01*
X100150000Y-69000000D01*
X100847828Y-69000000D01*
X100847844Y-68999999D01*
X100907372Y-68993598D01*
X100907379Y-68993596D01*
X101042086Y-68943354D01*
X101042093Y-68943350D01*
X101157187Y-68857190D01*
X101157190Y-68857187D01*
X101243350Y-68742093D01*
X101243354Y-68742086D01*
X101293596Y-68607379D01*
X101293598Y-68607372D01*
X101299999Y-68547844D01*
X101300000Y-68547827D01*
X101300000Y-67850000D01*
X100275278Y-67850000D01*
X100319333Y-67773694D01*
X100350000Y-67659244D01*
X100350000Y-67540756D01*
X100319333Y-67426306D01*
X100275278Y-67350000D01*
X101300000Y-67350000D01*
X101300000Y-66652172D01*
X101299999Y-66652155D01*
X101293598Y-66592627D01*
X101293596Y-66592620D01*
X101243354Y-66457913D01*
X101243350Y-66457906D01*
X101157190Y-66342812D01*
X101157187Y-66342809D01*
X101042093Y-66256649D01*
X101042087Y-66256646D01*
X100962030Y-66226786D01*
X100906097Y-66184914D01*
X100881680Y-66119450D01*
X100896532Y-66051177D01*
X100917681Y-66022925D01*
X100968242Y-65972365D01*
X101097815Y-65794022D01*
X101197895Y-65597606D01*
X101266015Y-65387951D01*
X101300500Y-65170222D01*
X101300500Y-64949778D01*
X101266015Y-64732049D01*
X101197895Y-64522394D01*
X101197895Y-64522393D01*
X101163237Y-64454375D01*
X101097815Y-64325978D01*
X101081260Y-64303192D01*
X100968247Y-64147641D01*
X100968243Y-64147636D01*
X100812363Y-63991756D01*
X100812358Y-63991752D01*
X100634023Y-63862185D01*
X100568204Y-63828648D01*
X100517409Y-63780674D01*
X100500500Y-63718164D01*
X100500500Y-60449601D01*
X100520185Y-60382562D01*
X100568206Y-60339116D01*
X100581610Y-60332287D01*
X100747219Y-60211966D01*
X100891966Y-60067219D01*
X100891968Y-60067215D01*
X100891971Y-60067213D01*
X101000862Y-59917335D01*
X101012287Y-59901610D01*
X101105220Y-59719219D01*
X101168477Y-59524534D01*
X101200500Y-59322352D01*
X101200500Y-59117648D01*
X101168477Y-58915466D01*
X101164606Y-58903553D01*
X101105218Y-58720776D01*
X101050822Y-58614019D01*
X101012287Y-58538390D01*
X100974210Y-58485981D01*
X100891971Y-58372786D01*
X100747213Y-58228028D01*
X100581613Y-58107715D01*
X100581612Y-58107714D01*
X100581610Y-58107713D01*
X100524653Y-58078691D01*
X100399223Y-58014781D01*
X100204534Y-57951522D01*
X100029995Y-57923878D01*
X100002352Y-57919500D01*
X99797648Y-57919500D01*
X99773329Y-57923351D01*
X99595465Y-57951522D01*
X99400776Y-58014781D01*
X99218386Y-58107715D01*
X99052786Y-58228028D01*
X98908028Y-58372786D01*
X98787715Y-58538386D01*
X98694781Y-58720776D01*
X98631522Y-58915465D01*
X98599500Y-59117648D01*
X98599500Y-59322351D01*
X98631522Y-59524534D01*
X98694781Y-59719223D01*
X98787715Y-59901613D01*
X98908028Y-60067213D01*
X98908034Y-60067219D01*
X99052781Y-60211966D01*
X99218390Y-60332287D01*
X99231793Y-60339116D01*
X99282589Y-60387088D01*
X99299500Y-60449601D01*
X99299500Y-63718164D01*
X99279815Y-63785203D01*
X99231796Y-63828648D01*
X99165976Y-63862185D01*
X98987641Y-63991752D01*
X98987636Y-63991756D01*
X98831756Y-64147636D01*
X98831752Y-64147641D01*
X98702187Y-64325974D01*
X98602104Y-64522393D01*
X98602103Y-64522396D01*
X98533985Y-64732047D01*
X98499500Y-64949778D01*
X85300500Y-64949778D01*
X85266015Y-64732049D01*
X85197895Y-64522394D01*
X85197895Y-64522393D01*
X85163237Y-64454375D01*
X85097815Y-64325978D01*
X85081260Y-64303192D01*
X84968247Y-64147641D01*
X84968243Y-64147636D01*
X84812363Y-63991756D01*
X84812358Y-63991752D01*
X84634023Y-63862185D01*
X84568204Y-63828648D01*
X84517409Y-63780674D01*
X84500500Y-63718164D01*
X84500500Y-60449601D01*
X84520185Y-60382562D01*
X84568206Y-60339116D01*
X84581610Y-60332287D01*
X84747219Y-60211966D01*
X84891966Y-60067219D01*
X84891968Y-60067215D01*
X84891971Y-60067213D01*
X85000862Y-59917335D01*
X85012287Y-59901610D01*
X85105220Y-59719219D01*
X85168477Y-59524534D01*
X85200500Y-59322352D01*
X85200500Y-59117648D01*
X85168477Y-58915466D01*
X85164606Y-58903553D01*
X85105218Y-58720776D01*
X85050822Y-58614019D01*
X85012287Y-58538390D01*
X84974210Y-58485981D01*
X84891971Y-58372786D01*
X84747213Y-58228028D01*
X84581613Y-58107715D01*
X84581612Y-58107714D01*
X84581610Y-58107713D01*
X84524653Y-58078691D01*
X84399223Y-58014781D01*
X84204534Y-57951522D01*
X84029995Y-57923878D01*
X84002352Y-57919500D01*
X83797648Y-57919500D01*
X83773329Y-57923351D01*
X83595465Y-57951522D01*
X83400776Y-58014781D01*
X83218386Y-58107715D01*
X83052786Y-58228028D01*
X82908028Y-58372786D01*
X82787715Y-58538386D01*
X82694781Y-58720776D01*
X82631522Y-58915465D01*
X82599500Y-59117648D01*
X82599500Y-59322351D01*
X82631522Y-59524534D01*
X82694781Y-59719223D01*
X82787715Y-59901613D01*
X82908028Y-60067213D01*
X82908034Y-60067219D01*
X83052781Y-60211966D01*
X83218390Y-60332287D01*
X83231793Y-60339116D01*
X83282589Y-60387088D01*
X83299500Y-60449601D01*
X83299500Y-63718164D01*
X83279815Y-63785203D01*
X83231796Y-63828648D01*
X83165976Y-63862185D01*
X82987641Y-63991752D01*
X82987636Y-63991756D01*
X82831756Y-64147636D01*
X82831752Y-64147641D01*
X82702187Y-64325974D01*
X82602104Y-64522393D01*
X82602103Y-64522396D01*
X82533985Y-64732047D01*
X82499500Y-64949778D01*
X69300500Y-64949778D01*
X69266015Y-64732049D01*
X69197895Y-64522394D01*
X69197895Y-64522393D01*
X69163237Y-64454375D01*
X69097815Y-64325978D01*
X69081260Y-64303192D01*
X68968247Y-64147641D01*
X68968243Y-64147636D01*
X68812363Y-63991756D01*
X68812358Y-63991752D01*
X68634023Y-63862185D01*
X68568204Y-63828648D01*
X68517409Y-63780674D01*
X68500500Y-63718164D01*
X68500500Y-60449601D01*
X68520185Y-60382562D01*
X68568206Y-60339116D01*
X68581610Y-60332287D01*
X68747219Y-60211966D01*
X68891966Y-60067219D01*
X68891968Y-60067215D01*
X68891971Y-60067213D01*
X69000862Y-59917335D01*
X69012287Y-59901610D01*
X69105220Y-59719219D01*
X69168477Y-59524534D01*
X69200500Y-59322352D01*
X69200500Y-59117648D01*
X69168477Y-58915466D01*
X69164606Y-58903553D01*
X69105218Y-58720776D01*
X69050822Y-58614019D01*
X69012287Y-58538390D01*
X68974210Y-58485981D01*
X68891971Y-58372786D01*
X68747213Y-58228028D01*
X68581613Y-58107715D01*
X68581612Y-58107714D01*
X68581610Y-58107713D01*
X68524653Y-58078691D01*
X68399223Y-58014781D01*
X68204534Y-57951522D01*
X68029995Y-57923878D01*
X68002352Y-57919500D01*
X67797648Y-57919500D01*
X67773329Y-57923351D01*
X67595465Y-57951522D01*
X67400776Y-58014781D01*
X67218386Y-58107715D01*
X67052786Y-58228028D01*
X66908028Y-58372786D01*
X66787715Y-58538386D01*
X66694781Y-58720776D01*
X66631522Y-58915465D01*
X66599500Y-59117648D01*
X66599500Y-59322351D01*
X66631522Y-59524534D01*
X66694781Y-59719223D01*
X66787715Y-59901613D01*
X66908028Y-60067213D01*
X66908034Y-60067219D01*
X67052781Y-60211966D01*
X67218390Y-60332287D01*
X67231793Y-60339116D01*
X67282589Y-60387088D01*
X67299500Y-60449601D01*
X67299500Y-63718164D01*
X67279815Y-63785203D01*
X67231796Y-63828648D01*
X67165976Y-63862185D01*
X66987641Y-63991752D01*
X66987636Y-63991756D01*
X66831756Y-64147636D01*
X66831752Y-64147641D01*
X66702187Y-64325974D01*
X66602104Y-64522393D01*
X66602103Y-64522396D01*
X66533985Y-64732047D01*
X66499500Y-64949778D01*
X18100500Y-64949778D01*
X18100500Y-42743535D01*
X18120185Y-42676496D01*
X18172989Y-42630741D01*
X18242147Y-42620797D01*
X18305703Y-42649822D01*
X18323762Y-42669219D01*
X18352454Y-42707546D01*
X18352455Y-42707546D01*
X18352456Y-42707548D01*
X18467664Y-42793793D01*
X18467671Y-42793797D01*
X18602517Y-42844091D01*
X18602516Y-42844091D01*
X18609444Y-42844835D01*
X18662127Y-42850500D01*
X20457872Y-42850499D01*
X20517483Y-42844091D01*
X20652331Y-42793796D01*
X20767546Y-42707546D01*
X20853796Y-42592331D01*
X20902810Y-42460916D01*
X20944681Y-42404984D01*
X21010145Y-42380566D01*
X21078418Y-42395417D01*
X21106673Y-42416569D01*
X21220213Y-42530109D01*
X21392179Y-42655048D01*
X21392181Y-42655049D01*
X21392184Y-42655051D01*
X21581588Y-42751557D01*
X21783757Y-42817246D01*
X21993713Y-42850500D01*
X21993714Y-42850500D01*
X22206286Y-42850500D01*
X22206287Y-42850500D01*
X22416243Y-42817246D01*
X22618412Y-42751557D01*
X22807816Y-42655051D01*
X22894138Y-42592335D01*
X22979786Y-42530109D01*
X22979788Y-42530106D01*
X22979792Y-42530104D01*
X23130104Y-42379792D01*
X23130106Y-42379788D01*
X23130109Y-42379786D01*
X23255048Y-42207820D01*
X23255047Y-42207820D01*
X23255051Y-42207816D01*
X23259514Y-42199054D01*
X23307488Y-42148259D01*
X23375308Y-42131463D01*
X23441444Y-42153999D01*
X23480486Y-42199056D01*
X23484951Y-42207820D01*
X23609890Y-42379786D01*
X23760213Y-42530109D01*
X23932179Y-42655048D01*
X23932181Y-42655049D01*
X23932184Y-42655051D01*
X24121588Y-42751557D01*
X24323757Y-42817246D01*
X24533713Y-42850500D01*
X24533714Y-42850500D01*
X24746286Y-42850500D01*
X24746287Y-42850500D01*
X24956243Y-42817246D01*
X25158412Y-42751557D01*
X25347816Y-42655051D01*
X25434138Y-42592335D01*
X25519786Y-42530109D01*
X25519788Y-42530106D01*
X25519792Y-42530104D01*
X25670104Y-42379792D01*
X25670106Y-42379788D01*
X25670109Y-42379786D01*
X25795048Y-42207820D01*
X25795047Y-42207820D01*
X25795051Y-42207816D01*
X25799514Y-42199054D01*
X25847488Y-42148259D01*
X25915308Y-42131463D01*
X25981444Y-42153999D01*
X26020486Y-42199056D01*
X26024951Y-42207820D01*
X26149890Y-42379786D01*
X26300213Y-42530109D01*
X26472179Y-42655048D01*
X26472181Y-42655049D01*
X26472184Y-42655051D01*
X26661588Y-42751557D01*
X26863757Y-42817246D01*
X27073713Y-42850500D01*
X27073714Y-42850500D01*
X27286286Y-42850500D01*
X27286287Y-42850500D01*
X27496243Y-42817246D01*
X27698412Y-42751557D01*
X27887816Y-42655051D01*
X27974138Y-42592335D01*
X28059786Y-42530109D01*
X28059788Y-42530106D01*
X28059792Y-42530104D01*
X28210104Y-42379792D01*
X28210106Y-42379788D01*
X28210109Y-42379786D01*
X28335048Y-42207820D01*
X28335047Y-42207820D01*
X28335051Y-42207816D01*
X28339514Y-42199054D01*
X28387488Y-42148259D01*
X28455308Y-42131463D01*
X28521444Y-42153999D01*
X28560486Y-42199056D01*
X28564951Y-42207820D01*
X28689890Y-42379786D01*
X28840213Y-42530109D01*
X29012179Y-42655048D01*
X29012181Y-42655049D01*
X29012184Y-42655051D01*
X29201588Y-42751557D01*
X29403757Y-42817246D01*
X29613713Y-42850500D01*
X29613714Y-42850500D01*
X29826286Y-42850500D01*
X29826287Y-42850500D01*
X30036243Y-42817246D01*
X30238412Y-42751557D01*
X30427816Y-42655051D01*
X30514138Y-42592335D01*
X30599786Y-42530109D01*
X30599788Y-42530106D01*
X30599792Y-42530104D01*
X30750104Y-42379792D01*
X30750106Y-42379788D01*
X30750109Y-42379786D01*
X30875048Y-42207820D01*
X30875047Y-42207820D01*
X30875051Y-42207816D01*
X30879514Y-42199054D01*
X30927488Y-42148259D01*
X30995308Y-42131463D01*
X31061444Y-42153999D01*
X31100486Y-42199056D01*
X31104951Y-42207820D01*
X31229890Y-42379786D01*
X31380213Y-42530109D01*
X31552184Y-42655051D01*
X31552184Y-42655052D01*
X31591793Y-42675233D01*
X31642590Y-42723206D01*
X31659500Y-42785718D01*
X31659500Y-52756957D01*
X31639815Y-52823996D01*
X31618238Y-52849317D01*
X31608648Y-52857907D01*
X31571284Y-52879480D01*
X31459480Y-52991284D01*
X31459478Y-52991286D01*
X31457078Y-52993685D01*
X31457069Y-52993694D01*
X27562582Y-56888181D01*
X27501259Y-56921666D01*
X27474901Y-56924500D01*
X25577129Y-56924500D01*
X25577123Y-56924501D01*
X25517516Y-56930908D01*
X25382671Y-56981202D01*
X25382664Y-56981206D01*
X25267455Y-57067452D01*
X25267452Y-57067455D01*
X25181206Y-57182664D01*
X25181202Y-57182671D01*
X25130908Y-57317517D01*
X25124501Y-57377116D01*
X25124500Y-57377135D01*
X25124500Y-59722870D01*
X25124501Y-59722876D01*
X25130908Y-59782483D01*
X25181202Y-59917328D01*
X25181206Y-59917335D01*
X25267452Y-60032544D01*
X25267455Y-60032547D01*
X25382664Y-60118793D01*
X25382671Y-60118797D01*
X25517517Y-60169091D01*
X25517516Y-60169091D01*
X25524444Y-60169835D01*
X25577127Y-60175500D01*
X27922872Y-60175499D01*
X27982483Y-60169091D01*
X28117331Y-60118796D01*
X28232546Y-60032546D01*
X28318796Y-59917331D01*
X28369091Y-59782483D01*
X28375500Y-59722873D01*
X28375499Y-58422110D01*
X31625000Y-58422110D01*
X31625000Y-58677889D01*
X31665013Y-58930523D01*
X31744051Y-59173781D01*
X31744052Y-59173784D01*
X31860175Y-59401686D01*
X31937850Y-59508595D01*
X31937850Y-59508596D01*
X32648958Y-58797487D01*
X32673978Y-58857890D01*
X32745112Y-58964351D01*
X32835649Y-59054888D01*
X32942110Y-59126022D01*
X33002510Y-59151041D01*
X32291402Y-59862148D01*
X32398313Y-59939824D01*
X32626215Y-60055947D01*
X32626218Y-60055948D01*
X32869476Y-60134986D01*
X33122111Y-60175000D01*
X33377889Y-60175000D01*
X33630523Y-60134986D01*
X33873781Y-60055948D01*
X33873784Y-60055947D01*
X34101685Y-59939825D01*
X34208595Y-59862148D01*
X34208596Y-59862148D01*
X33497488Y-59151041D01*
X33557890Y-59126022D01*
X33664351Y-59054888D01*
X33754888Y-58964351D01*
X33826022Y-58857890D01*
X33851041Y-58797488D01*
X34562148Y-59508596D01*
X34562148Y-59508595D01*
X34639825Y-59401685D01*
X34755947Y-59173784D01*
X34755948Y-59173781D01*
X34834986Y-58930523D01*
X34875000Y-58677889D01*
X34875000Y-58422110D01*
X34834986Y-58169476D01*
X34755948Y-57926218D01*
X34755947Y-57926215D01*
X34639824Y-57698313D01*
X34562148Y-57591403D01*
X34562148Y-57591402D01*
X33851041Y-58302510D01*
X33826022Y-58242110D01*
X33754888Y-58135649D01*
X33664351Y-58045112D01*
X33557890Y-57973978D01*
X33497487Y-57948957D01*
X34208596Y-57237850D01*
X34101686Y-57160175D01*
X33873784Y-57044052D01*
X33873781Y-57044051D01*
X33630523Y-56965013D01*
X33377889Y-56925000D01*
X33122111Y-56925000D01*
X32869476Y-56965013D01*
X32626218Y-57044051D01*
X32626215Y-57044052D01*
X32398310Y-57160177D01*
X32291403Y-57237849D01*
X32291402Y-57237850D01*
X33002511Y-57948958D01*
X32942110Y-57973978D01*
X32835649Y-58045112D01*
X32745112Y-58135649D01*
X32673978Y-58242110D01*
X32648958Y-58302511D01*
X31937850Y-57591402D01*
X31937849Y-57591403D01*
X31860177Y-57698310D01*
X31744052Y-57926215D01*
X31744051Y-57926218D01*
X31665013Y-58169476D01*
X31625000Y-58422110D01*
X28375499Y-58422110D01*
X28375499Y-57825095D01*
X28395184Y-57758057D01*
X28411813Y-57737420D01*
X32152416Y-53996819D01*
X32213739Y-53963334D01*
X32240097Y-53960500D01*
X32339055Y-53960500D01*
X32339057Y-53960500D01*
X32491784Y-53919577D01*
X32628716Y-53840520D01*
X32740520Y-53728716D01*
X32819577Y-53591784D01*
X32860500Y-53439057D01*
X32860500Y-42785718D01*
X32880185Y-42718679D01*
X32928207Y-42675233D01*
X32967815Y-42655052D01*
X32967815Y-42655051D01*
X32967816Y-42655051D01*
X33059193Y-42588661D01*
X33139786Y-42530109D01*
X33139788Y-42530106D01*
X33139792Y-42530104D01*
X33290104Y-42379792D01*
X33290106Y-42379788D01*
X33290109Y-42379786D01*
X33415048Y-42207820D01*
X33415047Y-42207820D01*
X33415051Y-42207816D01*
X33419514Y-42199054D01*
X33467488Y-42148259D01*
X33535308Y-42131463D01*
X33601444Y-42153999D01*
X33640486Y-42199056D01*
X33644951Y-42207820D01*
X33769890Y-42379786D01*
X33920213Y-42530109D01*
X34092179Y-42655048D01*
X34092181Y-42655049D01*
X34092184Y-42655051D01*
X34281588Y-42751557D01*
X34483757Y-42817246D01*
X34693713Y-42850500D01*
X34693714Y-42850500D01*
X34906286Y-42850500D01*
X34906287Y-42850500D01*
X35116243Y-42817246D01*
X35318412Y-42751557D01*
X35507816Y-42655051D01*
X35594138Y-42592335D01*
X35679786Y-42530109D01*
X35679788Y-42530106D01*
X35679792Y-42530104D01*
X35830104Y-42379792D01*
X35830106Y-42379788D01*
X35830109Y-42379786D01*
X35955048Y-42207820D01*
X35955047Y-42207820D01*
X35955051Y-42207816D01*
X35959514Y-42199054D01*
X36007488Y-42148259D01*
X36075308Y-42131463D01*
X36141444Y-42153999D01*
X36180486Y-42199056D01*
X36184951Y-42207820D01*
X36309890Y-42379786D01*
X36460213Y-42530109D01*
X36632179Y-42655048D01*
X36632181Y-42655049D01*
X36632184Y-42655051D01*
X36821588Y-42751557D01*
X37023757Y-42817246D01*
X37233713Y-42850500D01*
X37233714Y-42850500D01*
X37446286Y-42850500D01*
X37446287Y-42850500D01*
X37656243Y-42817246D01*
X37858412Y-42751557D01*
X38047816Y-42655051D01*
X38134138Y-42592335D01*
X38219786Y-42530109D01*
X38219788Y-42530106D01*
X38219792Y-42530104D01*
X38370104Y-42379792D01*
X38370106Y-42379788D01*
X38370109Y-42379786D01*
X38455890Y-42261717D01*
X38495051Y-42207816D01*
X38499793Y-42198508D01*
X38547763Y-42147711D01*
X38615583Y-42130911D01*
X38681719Y-42153445D01*
X38720763Y-42198500D01*
X38725373Y-42207547D01*
X38764728Y-42261716D01*
X39397037Y-41629408D01*
X39414075Y-41692993D01*
X39479901Y-41807007D01*
X39572993Y-41900099D01*
X39687007Y-41965925D01*
X39750590Y-41982962D01*
X39118282Y-42615269D01*
X39118282Y-42615270D01*
X39172449Y-42654624D01*
X39361782Y-42751095D01*
X39563870Y-42816757D01*
X39773754Y-42850000D01*
X39986246Y-42850000D01*
X40196127Y-42816757D01*
X40196130Y-42816757D01*
X40398217Y-42751095D01*
X40587554Y-42654622D01*
X40641716Y-42615270D01*
X40641717Y-42615270D01*
X40009408Y-41982962D01*
X40072993Y-41965925D01*
X40187007Y-41900099D01*
X40280099Y-41807007D01*
X40345925Y-41692993D01*
X40362962Y-41629408D01*
X40995270Y-42261717D01*
X40995270Y-42261716D01*
X41034622Y-42207555D01*
X41039232Y-42198507D01*
X41087205Y-42147709D01*
X41155025Y-42130912D01*
X41221161Y-42153447D01*
X41260204Y-42198504D01*
X41264949Y-42207817D01*
X41389890Y-42379786D01*
X41540213Y-42530109D01*
X41712179Y-42655048D01*
X41712181Y-42655049D01*
X41712184Y-42655051D01*
X41901588Y-42751557D01*
X42103757Y-42817246D01*
X42313713Y-42850500D01*
X42313714Y-42850500D01*
X42526286Y-42850500D01*
X42526287Y-42850500D01*
X42736243Y-42817246D01*
X42938412Y-42751557D01*
X43127816Y-42655051D01*
X43214138Y-42592335D01*
X43299786Y-42530109D01*
X43299788Y-42530106D01*
X43299792Y-42530104D01*
X43450104Y-42379792D01*
X43450106Y-42379788D01*
X43450109Y-42379786D01*
X43575048Y-42207820D01*
X43575047Y-42207820D01*
X43575051Y-42207816D01*
X43579514Y-42199054D01*
X43627488Y-42148259D01*
X43695308Y-42131463D01*
X43761444Y-42153999D01*
X43800486Y-42199056D01*
X43804951Y-42207820D01*
X43929890Y-42379786D01*
X44080213Y-42530109D01*
X44252179Y-42655048D01*
X44252181Y-42655049D01*
X44252184Y-42655051D01*
X44441588Y-42751557D01*
X44643757Y-42817246D01*
X44853713Y-42850500D01*
X44853714Y-42850500D01*
X45066286Y-42850500D01*
X45066287Y-42850500D01*
X45276243Y-42817246D01*
X45478412Y-42751557D01*
X45667816Y-42655051D01*
X45754138Y-42592335D01*
X45839786Y-42530109D01*
X45839788Y-42530106D01*
X45839792Y-42530104D01*
X45990104Y-42379792D01*
X45990106Y-42379788D01*
X45990109Y-42379786D01*
X46115048Y-42207820D01*
X46115047Y-42207820D01*
X46115051Y-42207816D01*
X46119514Y-42199054D01*
X46167488Y-42148259D01*
X46235308Y-42131463D01*
X46301444Y-42153999D01*
X46340486Y-42199056D01*
X46344951Y-42207820D01*
X46469890Y-42379786D01*
X46620213Y-42530109D01*
X46792179Y-42655048D01*
X46792181Y-42655049D01*
X46792184Y-42655051D01*
X46981588Y-42751557D01*
X47183757Y-42817246D01*
X47393713Y-42850500D01*
X47393714Y-42850500D01*
X47606286Y-42850500D01*
X47606287Y-42850500D01*
X47816243Y-42817246D01*
X47858523Y-42803507D01*
X47928362Y-42801511D01*
X47984522Y-42833757D01*
X57115139Y-51964374D01*
X57115149Y-51964385D01*
X57119479Y-51968715D01*
X57119480Y-51968716D01*
X57231284Y-52080520D01*
X57318095Y-52130639D01*
X57318097Y-52130641D01*
X57356151Y-52152611D01*
X57368215Y-52159577D01*
X57520943Y-52200501D01*
X57520946Y-52200501D01*
X57686653Y-52200501D01*
X57686669Y-52200500D01*
X66670398Y-52200500D01*
X66737437Y-52220185D01*
X66780883Y-52268205D01*
X66787715Y-52281614D01*
X66908028Y-52447213D01*
X67052786Y-52591971D01*
X67207749Y-52704556D01*
X67218390Y-52712287D01*
X67306060Y-52756957D01*
X67400776Y-52805218D01*
X67400778Y-52805218D01*
X67400781Y-52805220D01*
X67505137Y-52839127D01*
X67595465Y-52868477D01*
X67664935Y-52879480D01*
X67797648Y-52900500D01*
X67797649Y-52900500D01*
X68002351Y-52900500D01*
X68002352Y-52900500D01*
X68204534Y-52868477D01*
X68399219Y-52805220D01*
X68581610Y-52712287D01*
X68674590Y-52644732D01*
X68747213Y-52591971D01*
X68747215Y-52591968D01*
X68747219Y-52591966D01*
X68891966Y-52447219D01*
X68891968Y-52447215D01*
X68891971Y-52447213D01*
X68944732Y-52374590D01*
X69012287Y-52281610D01*
X69105220Y-52099219D01*
X69168477Y-51904534D01*
X69200500Y-51702352D01*
X69200500Y-51497648D01*
X69168477Y-51295466D01*
X69105220Y-51100781D01*
X69105218Y-51100778D01*
X69105218Y-51100776D01*
X69071503Y-51034607D01*
X69012287Y-50918390D01*
X69004556Y-50907749D01*
X68891971Y-50752786D01*
X68747213Y-50608028D01*
X68581613Y-50487715D01*
X68581612Y-50487714D01*
X68581610Y-50487713D01*
X68524653Y-50458691D01*
X68399223Y-50394781D01*
X68204534Y-50331522D01*
X68029995Y-50303878D01*
X68002352Y-50299500D01*
X67797648Y-50299500D01*
X67773329Y-50303351D01*
X67595465Y-50331522D01*
X67400776Y-50394781D01*
X67218386Y-50487715D01*
X67052786Y-50608028D01*
X66908028Y-50752786D01*
X66787715Y-50918385D01*
X66780883Y-50931795D01*
X66732909Y-50982591D01*
X66670398Y-50999500D01*
X57900097Y-50999500D01*
X57833058Y-50979815D01*
X57812416Y-50963181D01*
X49911416Y-43062181D01*
X49877931Y-43000858D01*
X49882915Y-42931166D01*
X49924787Y-42875233D01*
X49990251Y-42850816D01*
X49999097Y-42850500D01*
X50146286Y-42850500D01*
X50146287Y-42850500D01*
X50356243Y-42817246D01*
X50398523Y-42803507D01*
X50468362Y-42801511D01*
X50524522Y-42833757D01*
X56355139Y-48664374D01*
X56355149Y-48664385D01*
X56359479Y-48668715D01*
X56359480Y-48668716D01*
X56471284Y-48780520D01*
X56558095Y-48830639D01*
X56558097Y-48830641D01*
X56608213Y-48859576D01*
X56608215Y-48859577D01*
X56760942Y-48900500D01*
X56760943Y-48900500D01*
X81799903Y-48900500D01*
X81866942Y-48920185D01*
X81887584Y-48936819D01*
X83243630Y-50292865D01*
X83277115Y-50354188D01*
X83272131Y-50423880D01*
X83230259Y-50479813D01*
X83220738Y-50486274D01*
X83218385Y-50487715D01*
X83052786Y-50608028D01*
X82908028Y-50752786D01*
X82787715Y-50918386D01*
X82694781Y-51100776D01*
X82631522Y-51295465D01*
X82599500Y-51497648D01*
X82599500Y-51702351D01*
X82631522Y-51904534D01*
X82694781Y-52099223D01*
X82787715Y-52281613D01*
X82908028Y-52447213D01*
X83052786Y-52591971D01*
X83207749Y-52704556D01*
X83218390Y-52712287D01*
X83306060Y-52756957D01*
X83400776Y-52805218D01*
X83400778Y-52805218D01*
X83400781Y-52805220D01*
X83505137Y-52839127D01*
X83595465Y-52868477D01*
X83664935Y-52879480D01*
X83797648Y-52900500D01*
X83797649Y-52900500D01*
X84002351Y-52900500D01*
X84002352Y-52900500D01*
X84204534Y-52868477D01*
X84399219Y-52805220D01*
X84581610Y-52712287D01*
X84674590Y-52644732D01*
X84747213Y-52591971D01*
X84747215Y-52591968D01*
X84747219Y-52591966D01*
X84891966Y-52447219D01*
X84891968Y-52447215D01*
X84891971Y-52447213D01*
X84944732Y-52374590D01*
X85012287Y-52281610D01*
X85105220Y-52099219D01*
X85168477Y-51904534D01*
X85200500Y-51702352D01*
X85200500Y-51497648D01*
X85168477Y-51295466D01*
X85105220Y-51100781D01*
X85105218Y-51100778D01*
X85105218Y-51100776D01*
X85071503Y-51034607D01*
X85012287Y-50918390D01*
X85004556Y-50907749D01*
X84891971Y-50752786D01*
X84747213Y-50608028D01*
X84581610Y-50487712D01*
X84568200Y-50480879D01*
X84517406Y-50432903D01*
X84500500Y-50370397D01*
X84500500Y-50020945D01*
X84500500Y-50020943D01*
X84459577Y-49868216D01*
X84431440Y-49819480D01*
X84380524Y-49731290D01*
X84380521Y-49731286D01*
X84380520Y-49731284D01*
X84268716Y-49619480D01*
X84268715Y-49619479D01*
X84264385Y-49615149D01*
X84264374Y-49615139D01*
X82587590Y-47938355D01*
X82587588Y-47938352D01*
X82468717Y-47819481D01*
X82468716Y-47819480D01*
X82381904Y-47769360D01*
X82381904Y-47769359D01*
X82381900Y-47769358D01*
X82331785Y-47740423D01*
X82179057Y-47699499D01*
X82020943Y-47699499D01*
X82013347Y-47699499D01*
X82013331Y-47699500D01*
X57140097Y-47699500D01*
X57073058Y-47679815D01*
X57052416Y-47663181D01*
X52451416Y-43062181D01*
X52417931Y-43000858D01*
X52422915Y-42931166D01*
X52464787Y-42875233D01*
X52530251Y-42850816D01*
X52539097Y-42850500D01*
X52686286Y-42850500D01*
X52686287Y-42850500D01*
X52896243Y-42817246D01*
X52938523Y-42803507D01*
X53008362Y-42801511D01*
X53064522Y-42833757D01*
X56966578Y-46735813D01*
X56966588Y-46735824D01*
X56970918Y-46740154D01*
X56970919Y-46740155D01*
X57082723Y-46851959D01*
X57169534Y-46902078D01*
X57169536Y-46902080D01*
X57207590Y-46924050D01*
X57219654Y-46931016D01*
X57372382Y-46971939D01*
X57530496Y-46971939D01*
X95671342Y-46971939D01*
X95738381Y-46991624D01*
X95759023Y-47008258D01*
X99127362Y-50376597D01*
X99160847Y-50437920D01*
X99155863Y-50507612D01*
X99113991Y-50563545D01*
X99112567Y-50564596D01*
X99052782Y-50608032D01*
X98908028Y-50752786D01*
X98787715Y-50918386D01*
X98694781Y-51100776D01*
X98631522Y-51295465D01*
X98599500Y-51497648D01*
X98599500Y-51702351D01*
X98631522Y-51904534D01*
X98694781Y-52099223D01*
X98787715Y-52281613D01*
X98908028Y-52447213D01*
X99052786Y-52591971D01*
X99207749Y-52704556D01*
X99218390Y-52712287D01*
X99306060Y-52756957D01*
X99400776Y-52805218D01*
X99400778Y-52805218D01*
X99400781Y-52805220D01*
X99505137Y-52839127D01*
X99595465Y-52868477D01*
X99664935Y-52879480D01*
X99797648Y-52900500D01*
X99797649Y-52900500D01*
X100002351Y-52900500D01*
X100002352Y-52900500D01*
X100204534Y-52868477D01*
X100399219Y-52805220D01*
X100581610Y-52712287D01*
X100674590Y-52644732D01*
X100747213Y-52591971D01*
X100747215Y-52591968D01*
X100747219Y-52591966D01*
X100891966Y-52447219D01*
X100891968Y-52447215D01*
X100891971Y-52447213D01*
X100944732Y-52374590D01*
X101012287Y-52281610D01*
X101105220Y-52099219D01*
X101168477Y-51904534D01*
X101200500Y-51702352D01*
X101200500Y-51497648D01*
X101168477Y-51295466D01*
X101105220Y-51100781D01*
X101105218Y-51100778D01*
X101105218Y-51100776D01*
X101071503Y-51034607D01*
X101012287Y-50918390D01*
X101004556Y-50907749D01*
X100891971Y-50752786D01*
X100747213Y-50608028D01*
X100581610Y-50487712D01*
X100568200Y-50480879D01*
X100517406Y-50432903D01*
X100500500Y-50370397D01*
X100500500Y-50220945D01*
X100500500Y-50220943D01*
X100459577Y-50068216D01*
X100459577Y-50068215D01*
X100459577Y-50068214D01*
X100430639Y-50018095D01*
X100430637Y-50018092D01*
X100380520Y-49931284D01*
X100268716Y-49819480D01*
X100268715Y-49819479D01*
X100264385Y-49815149D01*
X100264374Y-49815139D01*
X96715930Y-46266695D01*
X96683836Y-46211107D01*
X96664691Y-46139655D01*
X96664687Y-46139648D01*
X96585638Y-46002729D01*
X96585632Y-46002721D01*
X96473831Y-45890920D01*
X96473823Y-45890914D01*
X96336904Y-45811865D01*
X96336900Y-45811863D01*
X96336898Y-45811862D01*
X96184171Y-45770939D01*
X96184170Y-45770939D01*
X57751536Y-45770939D01*
X57684497Y-45751254D01*
X57663855Y-45734620D01*
X54991416Y-43062181D01*
X54957931Y-43000858D01*
X54962915Y-42931166D01*
X55004787Y-42875233D01*
X55070251Y-42850816D01*
X55079097Y-42850500D01*
X55226286Y-42850500D01*
X55226287Y-42850500D01*
X55436243Y-42817246D01*
X55638412Y-42751557D01*
X55827816Y-42655051D01*
X55914138Y-42592335D01*
X55999786Y-42530109D01*
X55999788Y-42530106D01*
X55999792Y-42530104D01*
X56150104Y-42379792D01*
X56150106Y-42379788D01*
X56150109Y-42379786D01*
X56275048Y-42207820D01*
X56275047Y-42207820D01*
X56275051Y-42207816D01*
X56371557Y-42018412D01*
X56437246Y-41816243D01*
X56470500Y-41606287D01*
X56470500Y-41393713D01*
X56437246Y-41183757D01*
X56371557Y-40981588D01*
X56275051Y-40792184D01*
X56275049Y-40792181D01*
X56275048Y-40792179D01*
X56150109Y-40620213D01*
X55999786Y-40469890D01*
X55827820Y-40344951D01*
X55638414Y-40248444D01*
X55638413Y-40248443D01*
X55638412Y-40248443D01*
X55436243Y-40182754D01*
X55436241Y-40182753D01*
X55436240Y-40182753D01*
X55274957Y-40157208D01*
X55226287Y-40149500D01*
X55013713Y-40149500D01*
X54965042Y-40157208D01*
X54803760Y-40182753D01*
X54601585Y-40248444D01*
X54412179Y-40344951D01*
X54240213Y-40469890D01*
X54089890Y-40620213D01*
X53964949Y-40792182D01*
X53960484Y-40800946D01*
X53912509Y-40851742D01*
X53844688Y-40868536D01*
X53778553Y-40845998D01*
X53739516Y-40800946D01*
X53735050Y-40792182D01*
X53610109Y-40620213D01*
X53459786Y-40469890D01*
X53287820Y-40344951D01*
X53098414Y-40248444D01*
X53098413Y-40248443D01*
X53098412Y-40248443D01*
X52896243Y-40182754D01*
X52896241Y-40182753D01*
X52896240Y-40182753D01*
X52734957Y-40157208D01*
X52686287Y-40149500D01*
X52473713Y-40149500D01*
X52425042Y-40157208D01*
X52263760Y-40182753D01*
X52061585Y-40248444D01*
X51872179Y-40344951D01*
X51700213Y-40469890D01*
X51549890Y-40620213D01*
X51424949Y-40792182D01*
X51420484Y-40800946D01*
X51372509Y-40851742D01*
X51304688Y-40868536D01*
X51238553Y-40845998D01*
X51199516Y-40800946D01*
X51195050Y-40792182D01*
X51070109Y-40620213D01*
X50919786Y-40469890D01*
X50747820Y-40344951D01*
X50558414Y-40248444D01*
X50558413Y-40248443D01*
X50558412Y-40248443D01*
X50356243Y-40182754D01*
X50356241Y-40182753D01*
X50356240Y-40182753D01*
X50194957Y-40157208D01*
X50146287Y-40149500D01*
X49933713Y-40149500D01*
X49885042Y-40157208D01*
X49723760Y-40182753D01*
X49521585Y-40248444D01*
X49332179Y-40344951D01*
X49160213Y-40469890D01*
X49009890Y-40620213D01*
X48884949Y-40792182D01*
X48880484Y-40800946D01*
X48832509Y-40851742D01*
X48764688Y-40868536D01*
X48698553Y-40845998D01*
X48659516Y-40800946D01*
X48655050Y-40792182D01*
X48530109Y-40620213D01*
X48379786Y-40469890D01*
X48207820Y-40344951D01*
X48018414Y-40248444D01*
X48018413Y-40248443D01*
X48018412Y-40248443D01*
X47816243Y-40182754D01*
X47816241Y-40182753D01*
X47816240Y-40182753D01*
X47654957Y-40157208D01*
X47606287Y-40149500D01*
X47393713Y-40149500D01*
X47345042Y-40157208D01*
X47183760Y-40182753D01*
X46981585Y-40248444D01*
X46792179Y-40344951D01*
X46620213Y-40469890D01*
X46469890Y-40620213D01*
X46344949Y-40792182D01*
X46340484Y-40800946D01*
X46292509Y-40851742D01*
X46224688Y-40868536D01*
X46158553Y-40845998D01*
X46119516Y-40800946D01*
X46115050Y-40792182D01*
X45990109Y-40620213D01*
X45839786Y-40469890D01*
X45667820Y-40344951D01*
X45478414Y-40248444D01*
X45478413Y-40248443D01*
X45478412Y-40248443D01*
X45276243Y-40182754D01*
X45276241Y-40182753D01*
X45276240Y-40182753D01*
X45114957Y-40157208D01*
X45066287Y-40149500D01*
X44853713Y-40149500D01*
X44805042Y-40157208D01*
X44643760Y-40182753D01*
X44441585Y-40248444D01*
X44252179Y-40344951D01*
X44080213Y-40469890D01*
X43929890Y-40620213D01*
X43804949Y-40792182D01*
X43800484Y-40800946D01*
X43752509Y-40851742D01*
X43684688Y-40868536D01*
X43618553Y-40845998D01*
X43579516Y-40800946D01*
X43575050Y-40792182D01*
X43450109Y-40620213D01*
X43299786Y-40469890D01*
X43127820Y-40344951D01*
X42938414Y-40248444D01*
X42938413Y-40248443D01*
X42938412Y-40248443D01*
X42736243Y-40182754D01*
X42736241Y-40182753D01*
X42736240Y-40182753D01*
X42574957Y-40157208D01*
X42526287Y-40149500D01*
X42313713Y-40149500D01*
X42265042Y-40157208D01*
X42103760Y-40182753D01*
X41901585Y-40248444D01*
X41712179Y-40344951D01*
X41540213Y-40469890D01*
X41389890Y-40620213D01*
X41264949Y-40792182D01*
X41260202Y-40801499D01*
X41212227Y-40852293D01*
X41144405Y-40869087D01*
X41078271Y-40846548D01*
X41039234Y-40801495D01*
X41034626Y-40792452D01*
X40995270Y-40738282D01*
X40995269Y-40738282D01*
X40362962Y-41370590D01*
X40345925Y-41307007D01*
X40280099Y-41192993D01*
X40187007Y-41099901D01*
X40072993Y-41034075D01*
X40009408Y-41017037D01*
X40641716Y-40384728D01*
X40587550Y-40345375D01*
X40398217Y-40248904D01*
X40196129Y-40183242D01*
X39986246Y-40150000D01*
X39838595Y-40150000D01*
X39771556Y-40130315D01*
X39725801Y-40077511D01*
X39715857Y-40008353D01*
X39744882Y-39944797D01*
X39750897Y-39938336D01*
X44352416Y-35336819D01*
X44413739Y-35303334D01*
X44440097Y-35300500D01*
X87013331Y-35300500D01*
X87013347Y-35300501D01*
X87020943Y-35300501D01*
X87179054Y-35300501D01*
X87179057Y-35300501D01*
X87331785Y-35259577D01*
X87381904Y-35230639D01*
X87468716Y-35180520D01*
X87580520Y-35068716D01*
X87580520Y-35068714D01*
X87590728Y-35058507D01*
X87590730Y-35058504D01*
X91396437Y-31252796D01*
X91457758Y-31219313D01*
X91522433Y-31222547D01*
X91648632Y-31263553D01*
X91736110Y-31277408D01*
X91881903Y-31300500D01*
X91881908Y-31300500D01*
X92118097Y-31300500D01*
X92351368Y-31263553D01*
X92384468Y-31252798D01*
X92575992Y-31190568D01*
X92786433Y-31083343D01*
X92977510Y-30944517D01*
X93144517Y-30777510D01*
X93283343Y-30586433D01*
X93390568Y-30375992D01*
X93463553Y-30151368D01*
X93479608Y-30050000D01*
X93490816Y-29979240D01*
X93500500Y-29918097D01*
X93500500Y-29681902D01*
X93463553Y-29448631D01*
X93395902Y-29240424D01*
X93390568Y-29224008D01*
X93390566Y-29224005D01*
X93390566Y-29224003D01*
X93283342Y-29013566D01*
X93144517Y-28822490D01*
X93074182Y-28752155D01*
X100500000Y-28752155D01*
X100500000Y-29550000D01*
X101566988Y-29550000D01*
X101534075Y-29607007D01*
X101500000Y-29734174D01*
X101500000Y-29865826D01*
X101534075Y-29992993D01*
X101566988Y-30050000D01*
X100500000Y-30050000D01*
X100500000Y-30847844D01*
X100506401Y-30907372D01*
X100506403Y-30907379D01*
X100556645Y-31042086D01*
X100556649Y-31042093D01*
X100642809Y-31157187D01*
X100642812Y-31157190D01*
X100757906Y-31243350D01*
X100757913Y-31243354D01*
X100892620Y-31293596D01*
X100892627Y-31293598D01*
X100952155Y-31299999D01*
X100952172Y-31300000D01*
X101750000Y-31300000D01*
X101750000Y-30233012D01*
X101807007Y-30265925D01*
X101934174Y-30300000D01*
X102065826Y-30300000D01*
X102192993Y-30265925D01*
X102250000Y-30233012D01*
X102250000Y-31300000D01*
X103047828Y-31300000D01*
X103047844Y-31299999D01*
X103107372Y-31293598D01*
X103107379Y-31293596D01*
X103242086Y-31243354D01*
X103242093Y-31243350D01*
X103357187Y-31157190D01*
X103357190Y-31157187D01*
X103443350Y-31042093D01*
X103443354Y-31042086D01*
X103493596Y-30907379D01*
X103493598Y-30907372D01*
X103499999Y-30847844D01*
X103500000Y-30847827D01*
X103500000Y-30050000D01*
X102433012Y-30050000D01*
X102465925Y-29992993D01*
X102500000Y-29865826D01*
X102500000Y-29734174D01*
X102465925Y-29607007D01*
X102433012Y-29550000D01*
X103500000Y-29550000D01*
X103500000Y-28752172D01*
X103499999Y-28752155D01*
X103493598Y-28692627D01*
X103493596Y-28692620D01*
X103443354Y-28557913D01*
X103443350Y-28557906D01*
X103357190Y-28442812D01*
X103357187Y-28442809D01*
X103242093Y-28356649D01*
X103242086Y-28356645D01*
X103107379Y-28306403D01*
X103107372Y-28306401D01*
X103047844Y-28300000D01*
X102250000Y-28300000D01*
X102250000Y-29366988D01*
X102192993Y-29334075D01*
X102065826Y-29300000D01*
X101934174Y-29300000D01*
X101807007Y-29334075D01*
X101750000Y-29366988D01*
X101750000Y-28300000D01*
X100952155Y-28300000D01*
X100892627Y-28306401D01*
X100892620Y-28306403D01*
X100757913Y-28356645D01*
X100757906Y-28356649D01*
X100642812Y-28442809D01*
X100642809Y-28442812D01*
X100556649Y-28557906D01*
X100556645Y-28557913D01*
X100506403Y-28692620D01*
X100506401Y-28692627D01*
X100500000Y-28752155D01*
X93074182Y-28752155D01*
X92977510Y-28655483D01*
X92786433Y-28516657D01*
X92575996Y-28409433D01*
X92351368Y-28336446D01*
X92118097Y-28299500D01*
X92118092Y-28299500D01*
X91881908Y-28299500D01*
X91881903Y-28299500D01*
X91648631Y-28336446D01*
X91424003Y-28409433D01*
X91213566Y-28516657D01*
X91156783Y-28557913D01*
X91022490Y-28655483D01*
X91022488Y-28655485D01*
X91022487Y-28655485D01*
X90855485Y-28822487D01*
X90855485Y-28822488D01*
X90855483Y-28822490D01*
X90795862Y-28904550D01*
X90716657Y-29013566D01*
X90609433Y-29224003D01*
X90536446Y-29448631D01*
X90499500Y-29681902D01*
X90499500Y-29918097D01*
X90536447Y-30151369D01*
X90536447Y-30151372D01*
X90577450Y-30277564D01*
X90579445Y-30347405D01*
X90547200Y-30403563D01*
X86887584Y-34063181D01*
X86826261Y-34096666D01*
X86799903Y-34099500D01*
X44219057Y-34099500D01*
X44060942Y-34099500D01*
X43908215Y-34140423D01*
X43908214Y-34140423D01*
X43908212Y-34140424D01*
X43908209Y-34140425D01*
X43858096Y-34169359D01*
X43858095Y-34169360D01*
X43814689Y-34194420D01*
X43771285Y-34219479D01*
X43771282Y-34219481D01*
X43659478Y-34331286D01*
X37824522Y-40166241D01*
X37763199Y-40199726D01*
X37698523Y-40196491D01*
X37656245Y-40182754D01*
X37516272Y-40160584D01*
X37446287Y-40149500D01*
X37299096Y-40149500D01*
X37232057Y-40129815D01*
X37186302Y-40077011D01*
X37176358Y-40007853D01*
X37205383Y-39944297D01*
X37211415Y-39937819D01*
X41812416Y-35336819D01*
X46612416Y-30536819D01*
X46673739Y-30503334D01*
X46700097Y-30500500D01*
X58213331Y-30500500D01*
X58213347Y-30500501D01*
X58220943Y-30500501D01*
X58379054Y-30500501D01*
X58379057Y-30500501D01*
X58531785Y-30459577D01*
X58581904Y-30430639D01*
X58600012Y-30420185D01*
X58605341Y-30417109D01*
X58605406Y-30417093D01*
X58667334Y-30400500D01*
X66545932Y-30400500D01*
X66612971Y-30420185D01*
X66656416Y-30468203D01*
X66716657Y-30586433D01*
X66855483Y-30777510D01*
X67022490Y-30944517D01*
X67213567Y-31083343D01*
X67312991Y-31134002D01*
X67424003Y-31190566D01*
X67424005Y-31190566D01*
X67424008Y-31190568D01*
X67512476Y-31219313D01*
X67648631Y-31263553D01*
X67881903Y-31300500D01*
X67881908Y-31300500D01*
X68118097Y-31300500D01*
X68351368Y-31263553D01*
X68384468Y-31252798D01*
X68575992Y-31190568D01*
X68786433Y-31083343D01*
X68977510Y-30944517D01*
X69144517Y-30777510D01*
X69283343Y-30586433D01*
X69390568Y-30375992D01*
X69463553Y-30151368D01*
X69479608Y-30050000D01*
X69490816Y-29979240D01*
X69500500Y-29918097D01*
X69500500Y-29681902D01*
X69463553Y-29448631D01*
X69395902Y-29240424D01*
X69390568Y-29224008D01*
X69390566Y-29224005D01*
X69390566Y-29224003D01*
X69283342Y-29013566D01*
X69144517Y-28822490D01*
X69074182Y-28752155D01*
X76500000Y-28752155D01*
X76500000Y-29550000D01*
X77566988Y-29550000D01*
X77534075Y-29607007D01*
X77500000Y-29734174D01*
X77500000Y-29865826D01*
X77534075Y-29992993D01*
X77566988Y-30050000D01*
X76500000Y-30050000D01*
X76500000Y-30847844D01*
X76506401Y-30907372D01*
X76506403Y-30907379D01*
X76556645Y-31042086D01*
X76556649Y-31042093D01*
X76642809Y-31157187D01*
X76642812Y-31157190D01*
X76757906Y-31243350D01*
X76757913Y-31243354D01*
X76892620Y-31293596D01*
X76892627Y-31293598D01*
X76952155Y-31299999D01*
X76952172Y-31300000D01*
X77750000Y-31300000D01*
X77750000Y-30233012D01*
X77807007Y-30265925D01*
X77934174Y-30300000D01*
X78065826Y-30300000D01*
X78192993Y-30265925D01*
X78250000Y-30233012D01*
X78250000Y-31300000D01*
X79047828Y-31300000D01*
X79047844Y-31299999D01*
X79107372Y-31293598D01*
X79107379Y-31293596D01*
X79242086Y-31243354D01*
X79242093Y-31243350D01*
X79357187Y-31157190D01*
X79357190Y-31157187D01*
X79443350Y-31042093D01*
X79443354Y-31042086D01*
X79493596Y-30907379D01*
X79493598Y-30907372D01*
X79499999Y-30847844D01*
X79500000Y-30847827D01*
X79500000Y-30050000D01*
X78433012Y-30050000D01*
X78465925Y-29992993D01*
X78500000Y-29865826D01*
X78500000Y-29734174D01*
X78465925Y-29607007D01*
X78433012Y-29550000D01*
X79500000Y-29550000D01*
X79500000Y-28752172D01*
X79499999Y-28752155D01*
X79493598Y-28692627D01*
X79493596Y-28692620D01*
X79443354Y-28557913D01*
X79443350Y-28557906D01*
X79357190Y-28442812D01*
X79357187Y-28442809D01*
X79242093Y-28356649D01*
X79242086Y-28356645D01*
X79107379Y-28306403D01*
X79107372Y-28306401D01*
X79047844Y-28300000D01*
X78250000Y-28300000D01*
X78250000Y-29366988D01*
X78192993Y-29334075D01*
X78065826Y-29300000D01*
X77934174Y-29300000D01*
X77807007Y-29334075D01*
X77750000Y-29366988D01*
X77750000Y-28300000D01*
X76952155Y-28300000D01*
X76892627Y-28306401D01*
X76892620Y-28306403D01*
X76757913Y-28356645D01*
X76757906Y-28356649D01*
X76642812Y-28442809D01*
X76642809Y-28442812D01*
X76556649Y-28557906D01*
X76556645Y-28557913D01*
X76506403Y-28692620D01*
X76506401Y-28692627D01*
X76500000Y-28752155D01*
X69074182Y-28752155D01*
X68977510Y-28655483D01*
X68786433Y-28516657D01*
X68575996Y-28409433D01*
X68351368Y-28336446D01*
X68118097Y-28299500D01*
X68118092Y-28299500D01*
X67881908Y-28299500D01*
X67881903Y-28299500D01*
X67648631Y-28336446D01*
X67424003Y-28409433D01*
X67213566Y-28516657D01*
X67156783Y-28557913D01*
X67022490Y-28655483D01*
X67022488Y-28655485D01*
X67022487Y-28655485D01*
X66855485Y-28822487D01*
X66855485Y-28822488D01*
X66855483Y-28822490D01*
X66795862Y-28904550D01*
X66716657Y-29013566D01*
X66656417Y-29131795D01*
X66608442Y-29182591D01*
X66545932Y-29199500D01*
X58320940Y-29199500D01*
X58280019Y-29210464D01*
X58280019Y-29210465D01*
X58242751Y-29220451D01*
X58168214Y-29240423D01*
X58168213Y-29240424D01*
X58094666Y-29282887D01*
X58032666Y-29299500D01*
X46479057Y-29299500D01*
X46320942Y-29299500D01*
X46168215Y-29340423D01*
X46168214Y-29340423D01*
X46168212Y-29340424D01*
X46168209Y-29340425D01*
X46118096Y-29369359D01*
X46118095Y-29369360D01*
X46074689Y-29394420D01*
X46031285Y-29419479D01*
X46031282Y-29419481D01*
X45919478Y-29531286D01*
X35284522Y-40166241D01*
X35223199Y-40199726D01*
X35158523Y-40196491D01*
X35116245Y-40182754D01*
X34976272Y-40160584D01*
X34906287Y-40149500D01*
X34693713Y-40149500D01*
X34645042Y-40157208D01*
X34483760Y-40182753D01*
X34281585Y-40248444D01*
X34092179Y-40344951D01*
X33920213Y-40469890D01*
X33769890Y-40620213D01*
X33644949Y-40792182D01*
X33640484Y-40800946D01*
X33592509Y-40851742D01*
X33524688Y-40868536D01*
X33458553Y-40845998D01*
X33419516Y-40800946D01*
X33415050Y-40792182D01*
X33290109Y-40620213D01*
X33139786Y-40469890D01*
X32967820Y-40344951D01*
X32778414Y-40248444D01*
X32778413Y-40248443D01*
X32778412Y-40248443D01*
X32576243Y-40182754D01*
X32576241Y-40182753D01*
X32576240Y-40182753D01*
X32414957Y-40157208D01*
X32366287Y-40149500D01*
X32153713Y-40149500D01*
X32105042Y-40157208D01*
X31943760Y-40182753D01*
X31741585Y-40248444D01*
X31552179Y-40344951D01*
X31380213Y-40469890D01*
X31229890Y-40620213D01*
X31104949Y-40792182D01*
X31100484Y-40800946D01*
X31052509Y-40851742D01*
X30984688Y-40868536D01*
X30918553Y-40845998D01*
X30879516Y-40800946D01*
X30875050Y-40792182D01*
X30750109Y-40620213D01*
X30599786Y-40469890D01*
X30427820Y-40344951D01*
X30238414Y-40248444D01*
X30238413Y-40248443D01*
X30238412Y-40248443D01*
X30036243Y-40182754D01*
X30036241Y-40182753D01*
X30036240Y-40182753D01*
X29874957Y-40157208D01*
X29826287Y-40149500D01*
X29613713Y-40149500D01*
X29565042Y-40157208D01*
X29403760Y-40182753D01*
X29201585Y-40248444D01*
X29012179Y-40344951D01*
X28840213Y-40469890D01*
X28689890Y-40620213D01*
X28564949Y-40792182D01*
X28560484Y-40800946D01*
X28512509Y-40851742D01*
X28444688Y-40868536D01*
X28378553Y-40845998D01*
X28339516Y-40800946D01*
X28335050Y-40792182D01*
X28210109Y-40620213D01*
X28059786Y-40469890D01*
X27887820Y-40344951D01*
X27698414Y-40248444D01*
X27698413Y-40248443D01*
X27698412Y-40248443D01*
X27496243Y-40182754D01*
X27496241Y-40182753D01*
X27496240Y-40182753D01*
X27334957Y-40157208D01*
X27286287Y-40149500D01*
X27073713Y-40149500D01*
X27025042Y-40157208D01*
X26863760Y-40182753D01*
X26661585Y-40248444D01*
X26472179Y-40344951D01*
X26300213Y-40469890D01*
X26149890Y-40620213D01*
X26024949Y-40792182D01*
X26020484Y-40800946D01*
X25972509Y-40851742D01*
X25904688Y-40868536D01*
X25838553Y-40845998D01*
X25799516Y-40800946D01*
X25795050Y-40792182D01*
X25670109Y-40620213D01*
X25519786Y-40469890D01*
X25347820Y-40344951D01*
X25158414Y-40248444D01*
X25158413Y-40248443D01*
X25158412Y-40248443D01*
X24956243Y-40182754D01*
X24956241Y-40182753D01*
X24956240Y-40182753D01*
X24794957Y-40157208D01*
X24746287Y-40149500D01*
X24533713Y-40149500D01*
X24485042Y-40157208D01*
X24323760Y-40182753D01*
X24121585Y-40248444D01*
X23932179Y-40344951D01*
X23760213Y-40469890D01*
X23609890Y-40620213D01*
X23484949Y-40792182D01*
X23480484Y-40800946D01*
X23432509Y-40851742D01*
X23364688Y-40868536D01*
X23298553Y-40845998D01*
X23259516Y-40800946D01*
X23255050Y-40792182D01*
X23130109Y-40620213D01*
X22979786Y-40469890D01*
X22807820Y-40344951D01*
X22618414Y-40248444D01*
X22618413Y-40248443D01*
X22618412Y-40248443D01*
X22416243Y-40182754D01*
X22416241Y-40182753D01*
X22416240Y-40182753D01*
X22254957Y-40157208D01*
X22206287Y-40149500D01*
X21993713Y-40149500D01*
X21945042Y-40157208D01*
X21783760Y-40182753D01*
X21581585Y-40248444D01*
X21392179Y-40344951D01*
X21220215Y-40469889D01*
X21106673Y-40583431D01*
X21045350Y-40616915D01*
X20975658Y-40611931D01*
X20919725Y-40570059D01*
X20902810Y-40539082D01*
X20853797Y-40407671D01*
X20853793Y-40407664D01*
X20767547Y-40292455D01*
X20767544Y-40292452D01*
X20652335Y-40206206D01*
X20652328Y-40206202D01*
X20517482Y-40155908D01*
X20517483Y-40155908D01*
X20457883Y-40149501D01*
X20457881Y-40149500D01*
X20457873Y-40149500D01*
X20457864Y-40149500D01*
X18662129Y-40149500D01*
X18662123Y-40149501D01*
X18602516Y-40155908D01*
X18467671Y-40206202D01*
X18467664Y-40206206D01*
X18352455Y-40292452D01*
X18323766Y-40330776D01*
X18267832Y-40372646D01*
X18198140Y-40377630D01*
X18136818Y-40344144D01*
X18103333Y-40282820D01*
X18100500Y-40256464D01*
X18100500Y-20063535D01*
X18120185Y-19996496D01*
X18172989Y-19950741D01*
X18242147Y-19940797D01*
X18305703Y-19969822D01*
X18323762Y-19989219D01*
X18352454Y-20027546D01*
X18352455Y-20027546D01*
X18352456Y-20027548D01*
X18467664Y-20113793D01*
X18467671Y-20113797D01*
X18602517Y-20164091D01*
X18602516Y-20164091D01*
X18609444Y-20164835D01*
X18662127Y-20170500D01*
X20457872Y-20170499D01*
X20517483Y-20164091D01*
X20652331Y-20113796D01*
X20767546Y-20027546D01*
X20853796Y-19912331D01*
X20904091Y-19777483D01*
X20910500Y-19717873D01*
X20910499Y-19693979D01*
X20913330Y-19680963D01*
X20923940Y-19661525D01*
X20930179Y-19640275D01*
X20946803Y-19619643D01*
X20946808Y-19619636D01*
X20946811Y-19619634D01*
X20946818Y-19619626D01*
X21617037Y-18949408D01*
X21634075Y-19012993D01*
X21699901Y-19127007D01*
X21792993Y-19220099D01*
X21907007Y-19285925D01*
X21970590Y-19302962D01*
X21338282Y-19935269D01*
X21338282Y-19935270D01*
X21392449Y-19974624D01*
X21581782Y-20071095D01*
X21783870Y-20136757D01*
X21993754Y-20170000D01*
X22206246Y-20170000D01*
X22416127Y-20136757D01*
X22416130Y-20136757D01*
X22618217Y-20071095D01*
X22807554Y-19974622D01*
X22861716Y-19935270D01*
X22861717Y-19935270D01*
X22229408Y-19302962D01*
X22292993Y-19285925D01*
X22407007Y-19220099D01*
X22500099Y-19127007D01*
X22565925Y-19012993D01*
X22582962Y-18949408D01*
X23215270Y-19581717D01*
X23215270Y-19581716D01*
X23254622Y-19527555D01*
X23259232Y-19518507D01*
X23307205Y-19467709D01*
X23375025Y-19450912D01*
X23441161Y-19473447D01*
X23480204Y-19518504D01*
X23484949Y-19527817D01*
X23609890Y-19699786D01*
X23760213Y-19850109D01*
X23932179Y-19975048D01*
X23932181Y-19975049D01*
X23932184Y-19975051D01*
X24121588Y-20071557D01*
X24323757Y-20137246D01*
X24533713Y-20170500D01*
X24533714Y-20170500D01*
X24746286Y-20170500D01*
X24746287Y-20170500D01*
X24956243Y-20137246D01*
X25158412Y-20071557D01*
X25347816Y-19975051D01*
X25434138Y-19912335D01*
X25519786Y-19850109D01*
X25519788Y-19850106D01*
X25519792Y-19850104D01*
X25670104Y-19699792D01*
X25670106Y-19699788D01*
X25670109Y-19699786D01*
X25795048Y-19527820D01*
X25795047Y-19527820D01*
X25795051Y-19527816D01*
X25799514Y-19519054D01*
X25847488Y-19468259D01*
X25915308Y-19451463D01*
X25981444Y-19473999D01*
X26020486Y-19519056D01*
X26024951Y-19527820D01*
X26149890Y-19699786D01*
X26300213Y-19850109D01*
X26472179Y-19975048D01*
X26472181Y-19975049D01*
X26472184Y-19975051D01*
X26661588Y-20071557D01*
X26863757Y-20137246D01*
X27073713Y-20170500D01*
X27073714Y-20170500D01*
X27286286Y-20170500D01*
X27286287Y-20170500D01*
X27496243Y-20137246D01*
X27698412Y-20071557D01*
X27887816Y-19975051D01*
X27974138Y-19912335D01*
X28059786Y-19850109D01*
X28059788Y-19850106D01*
X28059792Y-19850104D01*
X28210104Y-19699792D01*
X28210106Y-19699788D01*
X28210109Y-19699786D01*
X28335048Y-19527820D01*
X28335047Y-19527820D01*
X28335051Y-19527816D01*
X28339514Y-19519054D01*
X28387488Y-19468259D01*
X28455308Y-19451463D01*
X28521444Y-19473999D01*
X28560486Y-19519056D01*
X28564951Y-19527820D01*
X28689890Y-19699786D01*
X28840213Y-19850109D01*
X29012179Y-19975048D01*
X29012181Y-19975049D01*
X29012184Y-19975051D01*
X29201588Y-20071557D01*
X29403757Y-20137246D01*
X29613713Y-20170500D01*
X29613714Y-20170500D01*
X29826286Y-20170500D01*
X29826287Y-20170500D01*
X30036243Y-20137246D01*
X30238412Y-20071557D01*
X30427816Y-19975051D01*
X30514138Y-19912335D01*
X30599786Y-19850109D01*
X30599788Y-19850106D01*
X30599792Y-19850104D01*
X30750104Y-19699792D01*
X30750106Y-19699788D01*
X30750109Y-19699786D01*
X30835890Y-19581717D01*
X30875051Y-19527816D01*
X30879793Y-19518508D01*
X30927763Y-19467711D01*
X30995583Y-19450911D01*
X31061719Y-19473445D01*
X31100763Y-19518500D01*
X31105373Y-19527547D01*
X31144728Y-19581716D01*
X31777037Y-18949408D01*
X31794075Y-19012993D01*
X31859901Y-19127007D01*
X31952993Y-19220099D01*
X32067007Y-19285925D01*
X32130590Y-19302962D01*
X31498282Y-19935269D01*
X31498282Y-19935270D01*
X31552449Y-19974624D01*
X31741782Y-20071095D01*
X31943870Y-20136757D01*
X32153754Y-20170000D01*
X32366246Y-20170000D01*
X32576127Y-20136757D01*
X32576130Y-20136757D01*
X32778217Y-20071095D01*
X32967554Y-19974622D01*
X33021716Y-19935270D01*
X33021717Y-19935270D01*
X32389408Y-19302962D01*
X32452993Y-19285925D01*
X32567007Y-19220099D01*
X32660099Y-19127007D01*
X32725925Y-19012993D01*
X32742962Y-18949408D01*
X33375270Y-19581717D01*
X33375270Y-19581716D01*
X33414622Y-19527555D01*
X33419232Y-19518507D01*
X33467205Y-19467709D01*
X33535025Y-19450912D01*
X33601161Y-19473447D01*
X33640204Y-19518504D01*
X33644949Y-19527817D01*
X33769890Y-19699786D01*
X33920213Y-19850109D01*
X34092179Y-19975048D01*
X34092181Y-19975049D01*
X34092184Y-19975051D01*
X34281588Y-20071557D01*
X34483757Y-20137246D01*
X34693713Y-20170500D01*
X34693714Y-20170500D01*
X34906286Y-20170500D01*
X34906287Y-20170500D01*
X35116243Y-20137246D01*
X35318412Y-20071557D01*
X35507816Y-19975051D01*
X35594138Y-19912335D01*
X35679786Y-19850109D01*
X35679788Y-19850106D01*
X35679792Y-19850104D01*
X35830104Y-19699792D01*
X35830106Y-19699788D01*
X35830109Y-19699786D01*
X35955048Y-19527820D01*
X35955047Y-19527820D01*
X35955051Y-19527816D01*
X35959514Y-19519054D01*
X36007488Y-19468259D01*
X36075308Y-19451463D01*
X36141444Y-19473999D01*
X36180486Y-19519056D01*
X36184951Y-19527820D01*
X36309890Y-19699786D01*
X36460213Y-19850109D01*
X36632179Y-19975048D01*
X36632181Y-19975049D01*
X36632184Y-19975051D01*
X36821588Y-20071557D01*
X37023757Y-20137246D01*
X37233713Y-20170500D01*
X37233714Y-20170500D01*
X37446286Y-20170500D01*
X37446287Y-20170500D01*
X37656243Y-20137246D01*
X37858412Y-20071557D01*
X38047816Y-19975051D01*
X38134138Y-19912335D01*
X38219786Y-19850109D01*
X38219788Y-19850106D01*
X38219792Y-19850104D01*
X38370104Y-19699792D01*
X38370106Y-19699788D01*
X38370109Y-19699786D01*
X38495048Y-19527820D01*
X38495047Y-19527820D01*
X38495051Y-19527816D01*
X38499514Y-19519054D01*
X38547488Y-19468259D01*
X38615308Y-19451463D01*
X38681444Y-19473999D01*
X38720486Y-19519056D01*
X38724951Y-19527820D01*
X38849890Y-19699786D01*
X39000213Y-19850109D01*
X39172179Y-19975048D01*
X39172181Y-19975049D01*
X39172184Y-19975051D01*
X39361588Y-20071557D01*
X39563757Y-20137246D01*
X39773713Y-20170500D01*
X39773714Y-20170500D01*
X39986286Y-20170500D01*
X39986287Y-20170500D01*
X40196243Y-20137246D01*
X40398412Y-20071557D01*
X40587816Y-19975051D01*
X40674138Y-19912335D01*
X40759786Y-19850109D01*
X40759788Y-19850106D01*
X40759792Y-19850104D01*
X40910104Y-19699792D01*
X40910106Y-19699788D01*
X40910109Y-19699786D01*
X41035048Y-19527820D01*
X41035047Y-19527820D01*
X41035051Y-19527816D01*
X41039514Y-19519054D01*
X41087488Y-19468259D01*
X41155308Y-19451463D01*
X41221444Y-19473999D01*
X41260486Y-19519056D01*
X41264951Y-19527820D01*
X41389890Y-19699786D01*
X41540213Y-19850109D01*
X41712179Y-19975048D01*
X41712181Y-19975049D01*
X41712184Y-19975051D01*
X41901588Y-20071557D01*
X42103757Y-20137246D01*
X42313713Y-20170500D01*
X42313714Y-20170500D01*
X42526286Y-20170500D01*
X42526287Y-20170500D01*
X42736243Y-20137246D01*
X42938412Y-20071557D01*
X43127816Y-19975051D01*
X43214138Y-19912335D01*
X43299786Y-19850109D01*
X43299788Y-19850106D01*
X43299792Y-19850104D01*
X43450104Y-19699792D01*
X43450106Y-19699788D01*
X43450109Y-19699786D01*
X43575048Y-19527820D01*
X43575047Y-19527820D01*
X43575051Y-19527816D01*
X43579514Y-19519054D01*
X43627488Y-19468259D01*
X43695308Y-19451463D01*
X43761444Y-19473999D01*
X43800486Y-19519056D01*
X43804951Y-19527820D01*
X43929890Y-19699786D01*
X44080213Y-19850109D01*
X44252179Y-19975048D01*
X44252181Y-19975049D01*
X44252184Y-19975051D01*
X44441588Y-20071557D01*
X44643757Y-20137246D01*
X44853713Y-20170500D01*
X44853714Y-20170500D01*
X45066286Y-20170500D01*
X45066287Y-20170500D01*
X45276243Y-20137246D01*
X45478412Y-20071557D01*
X45667816Y-19975051D01*
X45754138Y-19912335D01*
X45839786Y-19850109D01*
X45839788Y-19850106D01*
X45839792Y-19850104D01*
X45990104Y-19699792D01*
X45990106Y-19699788D01*
X45990109Y-19699786D01*
X46115048Y-19527820D01*
X46115047Y-19527820D01*
X46115051Y-19527816D01*
X46119514Y-19519054D01*
X46167488Y-19468259D01*
X46235308Y-19451463D01*
X46301444Y-19473999D01*
X46340486Y-19519056D01*
X46344951Y-19527820D01*
X46469890Y-19699786D01*
X46620213Y-19850109D01*
X46792179Y-19975048D01*
X46792181Y-19975049D01*
X46792184Y-19975051D01*
X46981588Y-20071557D01*
X47183757Y-20137246D01*
X47393713Y-20170500D01*
X47393714Y-20170500D01*
X47606286Y-20170500D01*
X47606287Y-20170500D01*
X47816243Y-20137246D01*
X48018412Y-20071557D01*
X48207816Y-19975051D01*
X48294138Y-19912335D01*
X48379786Y-19850109D01*
X48379788Y-19850106D01*
X48379792Y-19850104D01*
X48530104Y-19699792D01*
X48530106Y-19699788D01*
X48530109Y-19699786D01*
X48655048Y-19527820D01*
X48655047Y-19527820D01*
X48655051Y-19527816D01*
X48659514Y-19519054D01*
X48707488Y-19468259D01*
X48775308Y-19451463D01*
X48841444Y-19473999D01*
X48880486Y-19519056D01*
X48884951Y-19527820D01*
X49009890Y-19699786D01*
X49160213Y-19850109D01*
X49332179Y-19975048D01*
X49332181Y-19975049D01*
X49332184Y-19975051D01*
X49521588Y-20071557D01*
X49723757Y-20137246D01*
X49933713Y-20170500D01*
X49933714Y-20170500D01*
X50146286Y-20170500D01*
X50146287Y-20170500D01*
X50356243Y-20137246D01*
X50558412Y-20071557D01*
X50747816Y-19975051D01*
X50834138Y-19912335D01*
X50919786Y-19850109D01*
X50919788Y-19850106D01*
X50919792Y-19850104D01*
X51070104Y-19699792D01*
X51070106Y-19699788D01*
X51070109Y-19699786D01*
X51195048Y-19527820D01*
X51195047Y-19527820D01*
X51195051Y-19527816D01*
X51199514Y-19519054D01*
X51247488Y-19468259D01*
X51315308Y-19451463D01*
X51381444Y-19473999D01*
X51420486Y-19519056D01*
X51424951Y-19527820D01*
X51549890Y-19699786D01*
X51700213Y-19850109D01*
X51872179Y-19975048D01*
X51872181Y-19975049D01*
X51872184Y-19975051D01*
X52061588Y-20071557D01*
X52263757Y-20137246D01*
X52473713Y-20170500D01*
X52473714Y-20170500D01*
X52686286Y-20170500D01*
X52686287Y-20170500D01*
X52896243Y-20137246D01*
X53098412Y-20071557D01*
X53287816Y-19975051D01*
X53374138Y-19912335D01*
X53459786Y-19850109D01*
X53459788Y-19850106D01*
X53459792Y-19850104D01*
X53610104Y-19699792D01*
X53610106Y-19699788D01*
X53610109Y-19699786D01*
X53735048Y-19527820D01*
X53735047Y-19527820D01*
X53735051Y-19527816D01*
X53739514Y-19519054D01*
X53787488Y-19468259D01*
X53855308Y-19451463D01*
X53921444Y-19473999D01*
X53960486Y-19519056D01*
X53964951Y-19527820D01*
X54089890Y-19699786D01*
X54240213Y-19850109D01*
X54412179Y-19975048D01*
X54412181Y-19975049D01*
X54412184Y-19975051D01*
X54601588Y-20071557D01*
X54803757Y-20137246D01*
X55013713Y-20170500D01*
X55013714Y-20170500D01*
X55226286Y-20170500D01*
X55226287Y-20170500D01*
X55436243Y-20137246D01*
X55638412Y-20071557D01*
X55827816Y-19975051D01*
X55914138Y-19912335D01*
X55999786Y-19850109D01*
X55999788Y-19850106D01*
X55999792Y-19850104D01*
X56150104Y-19699792D01*
X56150106Y-19699788D01*
X56150109Y-19699786D01*
X56275048Y-19527820D01*
X56275047Y-19527820D01*
X56275051Y-19527816D01*
X56371557Y-19338412D01*
X56437246Y-19136243D01*
X56470500Y-18926287D01*
X56470500Y-18713713D01*
X56437246Y-18503757D01*
X56371557Y-18301588D01*
X56275051Y-18112184D01*
X56275049Y-18112181D01*
X56275048Y-18112179D01*
X56150109Y-17940213D01*
X55999786Y-17789890D01*
X55827820Y-17664951D01*
X55638414Y-17568444D01*
X55638413Y-17568443D01*
X55638412Y-17568443D01*
X55436243Y-17502754D01*
X55436241Y-17502753D01*
X55436240Y-17502753D01*
X55274957Y-17477208D01*
X55226287Y-17469500D01*
X55013713Y-17469500D01*
X54965042Y-17477208D01*
X54803760Y-17502753D01*
X54601585Y-17568444D01*
X54412179Y-17664951D01*
X54240213Y-17789890D01*
X54089890Y-17940213D01*
X53964949Y-18112182D01*
X53960484Y-18120946D01*
X53912509Y-18171742D01*
X53844688Y-18188536D01*
X53778553Y-18165998D01*
X53739516Y-18120946D01*
X53735050Y-18112182D01*
X53610109Y-17940213D01*
X53459786Y-17789890D01*
X53287820Y-17664951D01*
X53098414Y-17568444D01*
X53098413Y-17568443D01*
X53098412Y-17568443D01*
X52896243Y-17502754D01*
X52896241Y-17502753D01*
X52896240Y-17502753D01*
X52734957Y-17477208D01*
X52686287Y-17469500D01*
X52473713Y-17469500D01*
X52425042Y-17477208D01*
X52263760Y-17502753D01*
X52061585Y-17568444D01*
X51872179Y-17664951D01*
X51700213Y-17789890D01*
X51549890Y-17940213D01*
X51424949Y-18112182D01*
X51420484Y-18120946D01*
X51372509Y-18171742D01*
X51304688Y-18188536D01*
X51238553Y-18165998D01*
X51199516Y-18120946D01*
X51195050Y-18112182D01*
X51070109Y-17940213D01*
X50919786Y-17789890D01*
X50747820Y-17664951D01*
X50558414Y-17568444D01*
X50558413Y-17568443D01*
X50558412Y-17568443D01*
X50356243Y-17502754D01*
X50356241Y-17502753D01*
X50356240Y-17502753D01*
X50194957Y-17477208D01*
X50146287Y-17469500D01*
X49933713Y-17469500D01*
X49885042Y-17477208D01*
X49723760Y-17502753D01*
X49521585Y-17568444D01*
X49332179Y-17664951D01*
X49160213Y-17789890D01*
X49009890Y-17940213D01*
X48884949Y-18112182D01*
X48880484Y-18120946D01*
X48832509Y-18171742D01*
X48764688Y-18188536D01*
X48698553Y-18165998D01*
X48659516Y-18120946D01*
X48655050Y-18112182D01*
X48530109Y-17940213D01*
X48379786Y-17789890D01*
X48207820Y-17664951D01*
X48018414Y-17568444D01*
X48018413Y-17568443D01*
X48018412Y-17568443D01*
X47816243Y-17502754D01*
X47816241Y-17502753D01*
X47816240Y-17502753D01*
X47654957Y-17477208D01*
X47606287Y-17469500D01*
X47393713Y-17469500D01*
X47345042Y-17477208D01*
X47183760Y-17502753D01*
X46981585Y-17568444D01*
X46792179Y-17664951D01*
X46620213Y-17789890D01*
X46469890Y-17940213D01*
X46344949Y-18112182D01*
X46340484Y-18120946D01*
X46292509Y-18171742D01*
X46224688Y-18188536D01*
X46158553Y-18165998D01*
X46119516Y-18120946D01*
X46115050Y-18112182D01*
X45990109Y-17940213D01*
X45839786Y-17789890D01*
X45667820Y-17664951D01*
X45478414Y-17568444D01*
X45478413Y-17568443D01*
X45478412Y-17568443D01*
X45276243Y-17502754D01*
X45276241Y-17502753D01*
X45276240Y-17502753D01*
X45114957Y-17477208D01*
X45066287Y-17469500D01*
X44853713Y-17469500D01*
X44805042Y-17477208D01*
X44643760Y-17502753D01*
X44441585Y-17568444D01*
X44252179Y-17664951D01*
X44080213Y-17789890D01*
X43929890Y-17940213D01*
X43804949Y-18112182D01*
X43800484Y-18120946D01*
X43752509Y-18171742D01*
X43684688Y-18188536D01*
X43618553Y-18165998D01*
X43579516Y-18120946D01*
X43575050Y-18112182D01*
X43450109Y-17940213D01*
X43299786Y-17789890D01*
X43127820Y-17664951D01*
X42938414Y-17568444D01*
X42938413Y-17568443D01*
X42938412Y-17568443D01*
X42736243Y-17502754D01*
X42736241Y-17502753D01*
X42736240Y-17502753D01*
X42574957Y-17477208D01*
X42526287Y-17469500D01*
X42313713Y-17469500D01*
X42265042Y-17477208D01*
X42103760Y-17502753D01*
X41901585Y-17568444D01*
X41712179Y-17664951D01*
X41540213Y-17789890D01*
X41389890Y-17940213D01*
X41264949Y-18112182D01*
X41260484Y-18120946D01*
X41212509Y-18171742D01*
X41144688Y-18188536D01*
X41078553Y-18165998D01*
X41039516Y-18120946D01*
X41035050Y-18112182D01*
X40910109Y-17940213D01*
X40759786Y-17789890D01*
X40587820Y-17664951D01*
X40398414Y-17568444D01*
X40398413Y-17568443D01*
X40398412Y-17568443D01*
X40196243Y-17502754D01*
X40196241Y-17502753D01*
X40196240Y-17502753D01*
X40034957Y-17477208D01*
X39986287Y-17469500D01*
X39773713Y-17469500D01*
X39725042Y-17477208D01*
X39563760Y-17502753D01*
X39361585Y-17568444D01*
X39172179Y-17664951D01*
X39000213Y-17789890D01*
X38849890Y-17940213D01*
X38724949Y-18112182D01*
X38720484Y-18120946D01*
X38672509Y-18171742D01*
X38604688Y-18188536D01*
X38538553Y-18165998D01*
X38499516Y-18120946D01*
X38495050Y-18112182D01*
X38370109Y-17940213D01*
X38219786Y-17789890D01*
X38047820Y-17664951D01*
X37858414Y-17568444D01*
X37858413Y-17568443D01*
X37858412Y-17568443D01*
X37656243Y-17502754D01*
X37656241Y-17502753D01*
X37656240Y-17502753D01*
X37494957Y-17477208D01*
X37446287Y-17469500D01*
X37233713Y-17469500D01*
X37185042Y-17477208D01*
X37023760Y-17502753D01*
X36821585Y-17568444D01*
X36632179Y-17664951D01*
X36460213Y-17789890D01*
X36309890Y-17940213D01*
X36184949Y-18112182D01*
X36180484Y-18120946D01*
X36132509Y-18171742D01*
X36064688Y-18188536D01*
X35998553Y-18165998D01*
X35959516Y-18120946D01*
X35955050Y-18112182D01*
X35830109Y-17940213D01*
X35679786Y-17789890D01*
X35507820Y-17664951D01*
X35318414Y-17568444D01*
X35318413Y-17568443D01*
X35318412Y-17568443D01*
X35116243Y-17502754D01*
X35116241Y-17502753D01*
X35116240Y-17502753D01*
X34954957Y-17477208D01*
X34906287Y-17469500D01*
X34693713Y-17469500D01*
X34645042Y-17477208D01*
X34483760Y-17502753D01*
X34281585Y-17568444D01*
X34092179Y-17664951D01*
X33920213Y-17789890D01*
X33769890Y-17940213D01*
X33644949Y-18112182D01*
X33640202Y-18121499D01*
X33592227Y-18172293D01*
X33524405Y-18189087D01*
X33458271Y-18166548D01*
X33419234Y-18121495D01*
X33414626Y-18112452D01*
X33375270Y-18058282D01*
X33375269Y-18058282D01*
X32742962Y-18690590D01*
X32725925Y-18627007D01*
X32660099Y-18512993D01*
X32567007Y-18419901D01*
X32452993Y-18354075D01*
X32389409Y-18337037D01*
X33021716Y-17704728D01*
X32967550Y-17665375D01*
X32778217Y-17568904D01*
X32576129Y-17503242D01*
X32366246Y-17470000D01*
X32153754Y-17470000D01*
X31943872Y-17503242D01*
X31943869Y-17503242D01*
X31741782Y-17568904D01*
X31552439Y-17665380D01*
X31498282Y-17704727D01*
X31498282Y-17704728D01*
X32130591Y-18337037D01*
X32067007Y-18354075D01*
X31952993Y-18419901D01*
X31859901Y-18512993D01*
X31794075Y-18627007D01*
X31777037Y-18690591D01*
X31144728Y-18058282D01*
X31144727Y-18058282D01*
X31105380Y-18112440D01*
X31105376Y-18112446D01*
X31100760Y-18121505D01*
X31052781Y-18172297D01*
X30984959Y-18189087D01*
X30918826Y-18166543D01*
X30879794Y-18121493D01*
X30875051Y-18112184D01*
X30875049Y-18112181D01*
X30875048Y-18112179D01*
X30750109Y-17940213D01*
X30599786Y-17789890D01*
X30427820Y-17664951D01*
X30238414Y-17568444D01*
X30238413Y-17568443D01*
X30238412Y-17568443D01*
X30036243Y-17502754D01*
X30036241Y-17502753D01*
X30036240Y-17502753D01*
X29874957Y-17477208D01*
X29826287Y-17469500D01*
X29613713Y-17469500D01*
X29565042Y-17477208D01*
X29403760Y-17502753D01*
X29201585Y-17568444D01*
X29012179Y-17664951D01*
X28840213Y-17789890D01*
X28689890Y-17940213D01*
X28564949Y-18112182D01*
X28560484Y-18120946D01*
X28512509Y-18171742D01*
X28444688Y-18188536D01*
X28378553Y-18165998D01*
X28339516Y-18120946D01*
X28335050Y-18112182D01*
X28210109Y-17940213D01*
X28059786Y-17789890D01*
X27887820Y-17664951D01*
X27698414Y-17568444D01*
X27698413Y-17568443D01*
X27698412Y-17568443D01*
X27496243Y-17502754D01*
X27496241Y-17502753D01*
X27496240Y-17502753D01*
X27334957Y-17477208D01*
X27286287Y-17469500D01*
X27073713Y-17469500D01*
X27025042Y-17477208D01*
X26863760Y-17502753D01*
X26661585Y-17568444D01*
X26472179Y-17664951D01*
X26300213Y-17789890D01*
X26149890Y-17940213D01*
X26024949Y-18112182D01*
X26020484Y-18120946D01*
X25972509Y-18171742D01*
X25904688Y-18188536D01*
X25838553Y-18165998D01*
X25799516Y-18120946D01*
X25795050Y-18112182D01*
X25670109Y-17940213D01*
X25519786Y-17789890D01*
X25347820Y-17664951D01*
X25158414Y-17568444D01*
X25158413Y-17568443D01*
X25158412Y-17568443D01*
X24956243Y-17502754D01*
X24956241Y-17502753D01*
X24956240Y-17502753D01*
X24794957Y-17477208D01*
X24746287Y-17469500D01*
X24533713Y-17469500D01*
X24485042Y-17477208D01*
X24323760Y-17502753D01*
X24121585Y-17568444D01*
X23932179Y-17664951D01*
X23760213Y-17789890D01*
X23609890Y-17940213D01*
X23484949Y-18112182D01*
X23480202Y-18121499D01*
X23432227Y-18172293D01*
X23364405Y-18189087D01*
X23298271Y-18166548D01*
X23259234Y-18121495D01*
X23254626Y-18112452D01*
X23215270Y-18058282D01*
X23215269Y-18058282D01*
X22582962Y-18690590D01*
X22565925Y-18627007D01*
X22500099Y-18512993D01*
X22407007Y-18419901D01*
X22292993Y-18354075D01*
X22229409Y-18337037D01*
X22861716Y-17704728D01*
X22807550Y-17665375D01*
X22618217Y-17568904D01*
X22416129Y-17503242D01*
X22206246Y-17470000D01*
X21993754Y-17470000D01*
X21783872Y-17503242D01*
X21783869Y-17503242D01*
X21581782Y-17568904D01*
X21392439Y-17665380D01*
X21338282Y-17704727D01*
X21338282Y-17704728D01*
X21970591Y-18337037D01*
X21907007Y-18354075D01*
X21792993Y-18419901D01*
X21699901Y-18512993D01*
X21634075Y-18627007D01*
X21617037Y-18690591D01*
X20946818Y-18020372D01*
X20913333Y-17959049D01*
X20913330Y-17959036D01*
X20910499Y-17946015D01*
X20910499Y-17922128D01*
X20904091Y-17862517D01*
X20875926Y-17787002D01*
X20853798Y-17727673D01*
X20853793Y-17727664D01*
X20767547Y-17612455D01*
X20767544Y-17612452D01*
X20652335Y-17526206D01*
X20652328Y-17526202D01*
X20517482Y-17475908D01*
X20517483Y-17475908D01*
X20457883Y-17469501D01*
X20457881Y-17469500D01*
X20457873Y-17469500D01*
X20457864Y-17469500D01*
X18662129Y-17469500D01*
X18662123Y-17469501D01*
X18602516Y-17475908D01*
X18467671Y-17526202D01*
X18467664Y-17526206D01*
X18352455Y-17612452D01*
X18323766Y-17650776D01*
X18267832Y-17692646D01*
X18198140Y-17697630D01*
X18136818Y-17664144D01*
X18103333Y-17602820D01*
X18100500Y-17576464D01*
X18100500Y-12724500D01*
X18120185Y-12657461D01*
X18172989Y-12611706D01*
X18224500Y-12600500D01*
X111975500Y-12600500D01*
X112042539Y-12620185D01*
G37*
%TD.AperFunction*%
%TD*%
M02*
